<svg width="16" height="14" viewBox="0 0 16 14" fill="none" xmlns="http://www.w3.org/2000/svg">
<g clip-path="url(#clip0_1_6327)">
<path d="M0 1.14286C0 0.514286 0.514286 0 1.14286 0H14.8571C15.4857 0 16 0.514286 16 1.14286C16 1.77143 15.4857 2.28571 14.8571 2.28571H1.14286C0.514286 2.28571 0 1.77143 0 1.14286ZM0 6.85714C0 6.22857 0.514286 5.71429 1.14286 5.71429H7.5C8.12857 5.71429 8.5 6.22836 8.5 6.85693C8.5 7.48551 8.12857 8 7.5 8H1.14286C0.514286 8 0 7.48571 0 6.85714ZM16 12.5714C16 13.2 15.4857 13.7143 14.8571 13.7143H1.14286C0.514286 13.7143 0 13.2 0 12.5714C0 11.9429 0.514286 11.4286 1.14286 11.4286H14.8571C15.4857 11.4286 16 11.9429 16 12.5714Z" fill="black" fill-opacity="0.78"/>
</g>
<defs>
<clipPath id="clip0_1_6327">
<rect width="16" height="13.7143" fill="white"/>
</clipPath>
</defs>
</svg>
