<svg width="16" height="16" viewBox="0 0 16 16" fill="none" xmlns="http://www.w3.org/2000/svg">
<circle cx="8" cy="8" r="7" fill="#FDB812" stroke="#FDB812" stroke-width="2"/>
<path d="M12.7919 4.20924C12.7915 4.20924 12.7913 4.20974 12.7916 4.21003C13.0697 4.48909 13.0695 4.94157 12.7908 5.22029L7.07711 10.9339C6.79813 11.2129 6.34505 11.2129 6.06606 10.9339L3.20924 8.07711C2.93025 7.79813 2.93025 7.34505 3.20924 7.06606C3.48823 6.78708 3.9413 6.78708 4.22029 7.06606C5.51975 8.3643 7.62538 8.36402 8.92451 7.06545L11.7819 4.20924C12.0607 3.93052 12.5131 3.93025 12.7922 4.20845C12.7925 4.20874 12.7923 4.20924 12.7919 4.20924Z" fill="white"/>
</svg>
