<svg width="10" height="13" viewBox="0 0 10 13" fill="none" xmlns="http://www.w3.org/2000/svg">
<path d="M3.24399 0.528619L3.244 0.528621L3.24465 0.527213C3.32668 0.350349 3.4892 0.25 3.65625 0.25H6.34375C6.5108 0.25 6.67332 0.350349 6.75535 0.527213L6.75534 0.527215L6.75601 0.528619L6.91672 0.869579L6.98432 1.01299H7.14286H9.28571C9.52746 1.01299 9.75 1.22623 9.75 1.52597C9.75 1.82572 9.52746 2.03896 9.28571 2.03896H0.714286C0.472544 2.03896 0.25 1.82572 0.25 1.52597C0.25 1.22623 0.472544 1.01299 0.714286 1.01299H2.85714H3.01568L3.08328 0.869579L3.24399 0.528619ZM1.43706 11.1201L0.97935 3.30195H9.02065L8.56294 11.1201C8.53419 11.6057 8.1617 11.9578 7.7433 11.9578H2.2567C1.83833 11.9578 1.46585 11.6057 1.43707 11.1201C1.43707 11.1201 1.43706 11.1201 1.43706 11.1201Z" fill="white" stroke="black" stroke-width="0.5"/>
<mask id="path-2-inside-1_6_2323" fill="white">
<path d="M5.33654 6.44539C5.33654 6.32674 5.24201 6.23087 5.125 6.23087C5.00799 6.23087 4.91346 6.32674 4.91346 6.44539V7.41073H3.96154C3.84453 7.41073 3.75 7.5066 3.75 7.62526C3.75 7.74391 3.84453 7.83978 3.96154 7.83978H4.91346V8.80512C4.91346 8.92377 5.00799 9.01964 5.125 9.01964C5.24201 9.01964 5.33654 8.92377 5.33654 8.80512V7.83978H6.28846C6.40547 7.83978 6.5 7.74391 6.5 7.62526C6.5 7.5066 6.40547 7.41073 6.28846 7.41073H5.33654V6.44539Z"/>
</mask>
<path d="M5.33654 6.44539C5.33654 6.32674 5.24201 6.23087 5.125 6.23087C5.00799 6.23087 4.91346 6.32674 4.91346 6.44539V7.41073H3.96154C3.84453 7.41073 3.75 7.5066 3.75 7.62526C3.75 7.74391 3.84453 7.83978 3.96154 7.83978H4.91346V8.80512C4.91346 8.92377 5.00799 9.01964 5.125 9.01964C5.24201 9.01964 5.33654 8.92377 5.33654 8.80512V7.83978H6.28846C6.40547 7.83978 6.5 7.74391 6.5 7.62526C6.5 7.5066 6.40547 7.41073 6.28846 7.41073H5.33654V6.44539Z" fill="#FF0000"/>
<path d="M4.91346 7.41073V7.91073H5.41346V7.41073H4.91346ZM4.91346 7.83978H5.41346V7.33978H4.91346V7.83978ZM5.33654 7.83978V7.33978H4.83654V7.83978H5.33654ZM5.33654 7.41073H4.83654V7.91073H5.33654V7.41073ZM5.83654 6.44539C5.83654 6.05722 5.52472 5.73087 5.125 5.73087V6.73087C4.95929 6.73087 4.83654 6.59626 4.83654 6.44539H5.83654ZM5.125 5.73087C4.72528 5.73087 4.41346 6.05722 4.41346 6.44539H5.41346C5.41346 6.59626 5.29071 6.73087 5.125 6.73087V5.73087ZM4.41346 6.44539V7.41073H5.41346V6.44539H4.41346ZM4.91346 6.91073H3.96154V7.91073H4.91346V6.91073ZM3.96154 6.91073C3.56181 6.91073 3.25 7.23708 3.25 7.62526H4.25C4.25 7.77612 4.12725 7.91073 3.96154 7.91073V6.91073ZM3.25 7.62526C3.25 8.01343 3.56181 8.33978 3.96154 8.33978V7.33978C4.12725 7.33978 4.25 7.47439 4.25 7.62526H3.25ZM3.96154 8.33978H4.91346V7.33978H3.96154V8.33978ZM4.41346 7.83978V8.80512H5.41346V7.83978H4.41346ZM4.41346 8.80512C4.41346 9.1933 4.72528 9.51964 5.125 9.51964V8.51964C5.29071 8.51964 5.41346 8.65425 5.41346 8.80512H4.41346ZM5.125 9.51964C5.52472 9.51964 5.83654 9.1933 5.83654 8.80512H4.83654C4.83654 8.65425 4.95929 8.51964 5.125 8.51964V9.51964ZM5.83654 8.80512V7.83978H4.83654V8.80512H5.83654ZM5.33654 8.33978H6.28846V7.33978H5.33654V8.33978ZM6.28846 8.33978C6.68819 8.33978 7 8.01343 7 7.62526H6C6 7.47439 6.12275 7.33978 6.28846 7.33978V8.33978ZM7 7.62526C7 7.23708 6.68819 6.91073 6.28846 6.91073V7.91073C6.12275 7.91073 6 7.77612 6 7.62526H7ZM6.28846 6.91073H5.33654V7.91073H6.28846V6.91073ZM5.83654 7.41073V6.44539H4.83654V7.41073H5.83654Z" fill="black" mask="url(#path-2-inside-1_6_2323)"/>
</svg>
