<svg width="39" height="39" viewBox="0 0 39 39" fill="none" xmlns="http://www.w3.org/2000/svg">
<g clip-path="url(#clip0_1_9287)">
<path d="M34.2475 6.16159C34.3089 5.71019 33.6751 5.34276 33.1984 5.30394C32.9709 5.28588 32.7353 5.32019 32.5195 5.24525C32.0528 5.08275 31.8668 4.47968 31.4118 4.28829C31.0714 4.14474 30.6796 4.27204 30.3492 4.43815C30.0188 4.60427 29.6938 4.81372 29.3254 4.83719C29.004 4.85795 28.6565 4.73878 28.3757 4.89497C28.1662 5.01233 28.057 5.25609 27.8647 5.39512C27.6724 5.53415 27.4305 5.56304 27.1966 5.57568C26.9628 5.58832 26.72 5.59103 26.5078 5.68853C26.2956 5.78603 26.1187 6.01173 26.162 6.24104L34.2475 6.16159Z" fill="#F5F5F5"/>
<path d="M26.8537 14.3942H23.8158V27.2419H26.8537V14.3942Z" fill="#EBEBEB"/>
<path d="M25.3062 15.2952H24.3826V17.0746H25.3062V15.2952Z" fill="white"/>
<path d="M24.8701 17.0746C24.8629 17.0746 24.8575 16.6765 24.8575 16.1844C24.8575 15.6924 24.8629 15.2952 24.8701 15.2952C24.8773 15.2952 24.8827 15.6933 24.8827 16.1844C24.8827 16.6756 24.8764 17.0746 24.8701 17.0746Z" fill="#E0E0E0"/>
<path d="M25.3098 15.9136C25.0028 15.9289 24.6941 15.9289 24.3871 15.9136C24.6941 15.8964 25.0028 15.8964 25.3098 15.9136Z" fill="#E0E0E0"/>
<path d="M25.3099 16.5501C25.3099 16.5564 25.1014 16.5618 24.8441 16.5618C24.5868 16.5618 24.3791 16.5564 24.3791 16.5501C24.6888 16.5329 25.0003 16.5329 25.3099 16.5501Z" fill="#E0E0E0"/>
<path d="M25.3062 17.619H24.3826V19.3985H25.3062V17.619Z" fill="white"/>
<path d="M24.8701 19.3985C24.8629 19.3985 24.8575 19.0003 24.8575 18.5092C24.8575 18.0181 24.8629 17.619 24.8701 17.619C24.8773 17.619 24.8827 18.0181 24.8827 18.5092C24.8827 19.0003 24.8764 19.3985 24.8701 19.3985Z" fill="#E0E0E0"/>
<path d="M25.3098 18.2374C25.0028 18.2546 24.6941 18.2546 24.3871 18.2374C24.6941 18.2221 25.0028 18.2221 25.3098 18.2374Z" fill="#E0E0E0"/>
<path d="M25.3099 18.8739C25.0003 18.891 24.6888 18.891 24.3791 18.8739C24.6888 18.8567 25.0003 18.8567 25.3099 18.8739Z" fill="#E0E0E0"/>
<path d="M25.3062 19.9437H24.3826V21.7231H25.3062V19.9437Z" fill="white"/>
<path d="M24.8701 21.7231C24.8629 21.7231 24.8575 21.325 24.8575 20.833C24.8575 20.3409 24.8629 19.9437 24.8701 19.9437C24.8773 19.9437 24.8827 20.3418 24.8827 20.833C24.8827 21.3241 24.8764 21.7231 24.8701 21.7231Z" fill="#E0E0E0"/>
<path d="M25.3098 20.5594C25.0028 20.5748 24.6941 20.5748 24.3871 20.5594C24.6941 20.5423 25.0028 20.5423 25.3098 20.5594Z" fill="#E0E0E0"/>
<path d="M25.3099 21.1986C25.3099 21.2049 25.1014 21.2103 24.8441 21.2103C24.5868 21.2103 24.3791 21.2049 24.3791 21.1986C24.6888 21.1815 25.0003 21.1815 25.3099 21.1986Z" fill="#E0E0E0"/>
<path d="M25.3062 22.2675H24.3826V24.0469H25.3062V22.2675Z" fill="white"/>
<path d="M24.8701 24.0469C24.8629 24.0469 24.8575 23.6488 24.8575 23.1577C24.8575 22.6665 24.8629 22.2675 24.8701 22.2675C24.8773 22.2675 24.8827 22.6665 24.8827 23.1577C24.8827 23.6488 24.8764 24.0469 24.8701 24.0469Z" fill="#E0E0E0"/>
<path d="M25.3098 22.8859C25.0028 22.9031 24.6941 22.9031 24.3871 22.8859C24.6941 22.8706 25.0028 22.8706 25.3098 22.8859Z" fill="#E0E0E0"/>
<path d="M25.3099 23.5224C25.0003 23.5396 24.6888 23.5396 24.3791 23.5224C24.6888 23.5052 25.0003 23.5052 25.3099 23.5224Z" fill="#E0E0E0"/>
<path d="M28.1466 14.3942H25.9329V27.2419H28.1466V14.3942Z" fill="#E0E0E0"/>
<path d="M27.5433 15.2952H26.6198V17.0746H27.5433V15.2952Z" fill="white"/>
<path d="M27.1074 17.0746C27.101 17.0746 27.0956 16.6765 27.0956 16.1844C27.0956 15.6924 27.101 15.2952 27.1074 15.2952C27.1137 15.2952 27.12 15.6933 27.12 16.1844C27.12 16.6756 27.1155 17.0746 27.1074 17.0746Z" fill="#E0E0E0"/>
<path d="M27.5433 15.9136C27.2355 15.9289 26.9276 15.9289 26.6198 15.9136C26.9276 15.8964 27.2355 15.8964 27.5433 15.9136Z" fill="#E0E0E0"/>
<path d="M27.5478 16.5501C27.5478 16.5564 27.3402 16.5618 27.0829 16.5618C26.8256 16.5618 26.617 16.5564 26.617 16.5501C26.9267 16.5329 27.2382 16.5329 27.5478 16.5501Z" fill="#E0E0E0"/>
<path d="M27.5433 17.6389H26.6198V19.4183H27.5433V17.6389Z" fill="white"/>
<path d="M27.1074 19.4183C27.101 19.4183 27.0956 19.0192 27.0956 18.5281C27.0956 18.037 27.101 17.6389 27.1074 17.6389C27.1137 17.6389 27.12 18.037 27.12 18.5281C27.12 19.0192 27.1155 19.4183 27.1074 19.4183Z" fill="#E0E0E0"/>
<path d="M27.5433 18.2564C27.2355 18.2736 26.9276 18.2736 26.6198 18.2564C26.9276 18.2411 27.2355 18.2411 27.5433 18.2564Z" fill="#E0E0E0"/>
<path d="M27.5478 18.8929C27.2382 18.91 26.9267 18.91 26.617 18.8929C26.617 18.8866 26.8256 18.8811 27.0829 18.8811C27.3402 18.8811 27.5478 18.8866 27.5478 18.8929Z" fill="#E0E0E0"/>
<path d="M27.5433 19.9816H26.6198V21.7611H27.5433V19.9816Z" fill="white"/>
<path d="M27.1074 21.7611C27.101 21.7611 27.0956 21.3629 27.0956 20.8718C27.0956 20.3807 27.101 19.9816 27.1074 19.9816C27.1137 19.9816 27.12 20.3798 27.12 20.8718C27.12 21.3638 27.1155 21.7611 27.1074 21.7611Z" fill="#E0E0E0"/>
<path d="M27.5433 20.6001C27.2355 20.6172 26.9276 20.6172 26.6198 20.6001C26.9276 20.5829 27.2355 20.5829 27.5433 20.6001Z" fill="#E0E0E0"/>
<path d="M27.5478 21.2365C27.5478 21.2429 27.3402 21.2483 27.0829 21.2483C26.8256 21.2483 26.617 21.2429 26.617 21.2365C26.9267 21.2194 27.2382 21.2194 27.5478 21.2365Z" fill="#E0E0E0"/>
<path d="M27.5433 22.3253H26.6198V24.1047H27.5433V22.3253Z" fill="white"/>
<path d="M27.1074 24.1047C27.101 24.1047 27.0956 23.7066 27.0956 23.2146C27.0956 22.7226 27.101 22.3253 27.1074 22.3253C27.1137 22.3253 27.12 22.7235 27.12 23.2146C27.12 23.7057 27.1155 24.1047 27.1074 24.1047Z" fill="#E0E0E0"/>
<path d="M27.5433 22.9437C27.2355 22.9591 26.9276 22.9591 26.6198 22.9437C26.9276 22.9266 27.2355 22.9266 27.5433 22.9437Z" fill="#E0E0E0"/>
<path d="M27.5478 23.5793C27.2382 23.5964 26.9267 23.5964 26.617 23.5793C26.617 23.573 26.8256 23.5675 27.0829 23.5675C27.3402 23.5675 27.5478 23.573 27.5478 23.5793Z" fill="#E0E0E0"/>
<path d="M25.3062 24.5922H24.3826V26.3716H25.3062V24.5922Z" fill="white"/>
<path d="M24.8701 26.3716C24.8629 26.3716 24.8575 25.9735 24.8575 25.4815C24.8575 24.9895 24.8629 24.5922 24.8701 24.5922C24.8773 24.5922 24.8827 24.9904 24.8827 25.4815C24.8827 25.9726 24.8764 26.3716 24.8701 26.3716Z" fill="#E0E0E0"/>
<path d="M25.3098 25.2106C25.0028 25.226 24.6941 25.226 24.3871 25.2106C24.6941 25.1935 25.0028 25.1935 25.3098 25.2106Z" fill="#E0E0E0"/>
<path d="M25.3099 25.8471C25.3099 25.8534 25.1014 25.8589 24.8441 25.8589C24.5868 25.8589 24.3791 25.8534 24.3791 25.8471C24.6888 25.83 25.0003 25.83 25.3099 25.8471Z" fill="#E0E0E0"/>
<path d="M27.5433 24.6681H26.6198V26.4475H27.5433V24.6681Z" fill="white"/>
<path d="M27.1074 26.4475C27.101 26.4475 27.0956 26.0493 27.0956 25.5582C27.0956 25.0671 27.101 24.6681 27.1074 24.6681C27.1137 24.6681 27.12 25.0671 27.12 25.5582C27.12 26.0493 27.1155 26.4475 27.1074 26.4475Z" fill="#E0E0E0"/>
<path d="M27.5433 25.2865C27.2355 25.3036 26.9276 25.3036 26.6198 25.2865C26.9276 25.2693 27.2355 25.2693 27.5433 25.2865Z" fill="#E0E0E0"/>
<path d="M27.5478 25.923C27.2382 25.9401 26.9267 25.9401 26.617 25.923C26.9267 25.9058 27.2382 25.9058 27.5478 25.923Z" fill="#E0E0E0"/>
<path d="M37.1979 18.1905H35.0538V27.2573H37.1979V18.1905Z" fill="#EBEBEB"/>
<path d="M36.1047 18.8261H35.4529V20.0819H36.1047V18.8261Z" fill="white"/>
<path d="M35.7968 20.0819C35.7923 20.0819 35.7887 19.8011 35.7887 19.4499C35.7887 19.0987 35.7887 18.8179 35.7968 18.8179C35.8049 18.8179 35.8058 19.0996 35.8058 19.4499C35.8058 19.8002 35.8022 20.0819 35.7968 20.0819Z" fill="#E0E0E0"/>
<path d="M36.1047 19.263C36.1047 19.2675 35.9584 19.2711 35.7788 19.2711C35.5991 19.2711 35.4529 19.2711 35.4529 19.263C35.6695 19.2513 35.888 19.2513 36.1047 19.263Z" fill="#E0E0E0"/>
<path d="M36.1081 19.7117C35.8896 19.7235 35.6693 19.7235 35.4509 19.7117C35.6693 19.7 35.8896 19.7 36.1081 19.7117Z" fill="#E0E0E0"/>
<path d="M36.1047 20.4664H35.4529V21.7222H36.1047V20.4664Z" fill="white"/>
<path d="M35.7968 21.7222C35.7923 21.7222 35.7887 21.4414 35.7887 21.0948C35.7887 20.7481 35.7887 20.4628 35.7968 20.4628C35.8049 20.4628 35.8058 20.7445 35.8058 21.0948C35.8058 21.445 35.8022 21.7222 35.7968 21.7222Z" fill="#E0E0E0"/>
<path d="M36.1047 20.9034C36.1047 20.9079 35.9584 20.9115 35.7788 20.9115C35.5991 20.9115 35.4529 20.9115 35.4529 20.9034C35.6695 20.8916 35.888 20.8916 36.1047 20.9034Z" fill="#E0E0E0"/>
<path d="M36.1081 21.3521C35.8896 21.3638 35.6693 21.3638 35.4509 21.3521C35.6693 21.3403 35.8896 21.3403 36.1081 21.3521Z" fill="#E0E0E0"/>
<path d="M36.1047 22.1068H35.4529V23.3626H36.1047V22.1068Z" fill="white"/>
<path d="M35.7968 23.3626C35.7923 23.3626 35.7887 23.0819 35.7887 22.7352C35.7887 22.3885 35.7887 22.1032 35.7968 22.1032C35.8049 22.1032 35.8058 22.3849 35.8058 22.7352C35.8058 23.0855 35.8022 23.3626 35.7968 23.3626Z" fill="#E0E0E0"/>
<path d="M36.1047 22.5455C35.888 22.5573 35.6695 22.5573 35.4529 22.5455C35.4529 22.541 35.5991 22.5374 35.7788 22.5374C35.9584 22.5374 36.1047 22.5383 36.1047 22.5455Z" fill="#E0E0E0"/>
<path d="M36.1081 22.997C35.8896 23.0087 35.6693 23.0087 35.4509 22.997C35.6693 22.9853 35.8896 22.9853 36.1081 22.997Z" fill="#E0E0E0"/>
<path d="M36.1047 23.7472H35.4529V25.003H36.1047V23.7472Z" fill="white"/>
<path d="M35.7968 25.003C35.7923 25.003 35.7887 24.7222 35.7887 24.371C35.7887 24.0198 35.7887 23.7391 35.7968 23.7391C35.8049 23.7391 35.8058 24.0207 35.8058 24.371C35.8058 24.7213 35.8022 25.003 35.7968 25.003Z" fill="#E0E0E0"/>
<path d="M36.1047 24.1833C35.888 24.195 35.6695 24.195 35.4529 24.1833C35.4529 24.1788 35.5991 24.1752 35.7788 24.1752C35.9584 24.1752 36.1047 24.1788 36.1047 24.1833Z" fill="#E0E0E0"/>
<path d="M36.1081 24.6328C35.8896 24.6446 35.6693 24.6446 35.4509 24.6328C35.6693 24.6211 35.8896 24.6211 36.1081 24.6328Z" fill="#E0E0E0"/>
<path d="M38.1089 18.1905H36.5471V27.2573H38.1089V18.1905Z" fill="#E0E0E0"/>
<path d="M37.6837 18.8261H37.0319V20.0819H37.6837V18.8261Z" fill="white"/>
<path d="M37.3767 20.0819C37.3713 20.0819 37.3677 19.8011 37.3677 19.4499C37.3677 19.0987 37.3677 18.8179 37.3767 18.8179C37.3858 18.8179 37.3849 19.0996 37.3849 19.4499C37.3849 19.8002 37.3812 20.0819 37.3767 20.0819Z" fill="#E0E0E0"/>
<path d="M37.6837 19.263C37.5754 19.2711 37.4661 19.2738 37.3578 19.2711C37.1772 19.2711 37.0319 19.2711 37.0319 19.263C37.2486 19.2513 37.467 19.2513 37.6837 19.263Z" fill="#E0E0E0"/>
<path d="M37.6871 19.7117C37.4687 19.7235 37.2484 19.7235 37.0299 19.7117C37.2484 19.7 37.4687 19.7 37.6871 19.7117Z" fill="#E0E0E0"/>
<path d="M37.6837 20.48H37.0319V21.7358H37.6837V20.48Z" fill="white"/>
<path d="M37.3767 21.7331C37.3713 21.7331 37.3677 21.4523 37.3677 21.1056C37.3677 20.759 37.3677 20.4737 37.3767 20.4737C37.3858 20.4737 37.3849 20.7544 37.3849 21.1056C37.3849 21.4568 37.3812 21.7331 37.3767 21.7331Z" fill="#E0E0E0"/>
<path d="M37.6837 20.9205C37.467 20.9323 37.2486 20.9323 37.0319 20.9205C37.0319 20.916 37.1781 20.9124 37.3578 20.9124C37.4661 20.9097 37.5754 20.9124 37.6837 20.9205Z" fill="#E0E0E0"/>
<path d="M37.6871 21.3656C37.4687 21.3774 37.2484 21.3774 37.0299 21.3656C37.2484 21.3539 37.4687 21.3539 37.6871 21.3656Z" fill="#E0E0E0"/>
<path d="M37.6837 22.1339H37.0319V23.3897H37.6837V22.1339Z" fill="white"/>
<path d="M37.3767 23.3897C37.3713 23.3897 37.3677 23.1089 37.3677 22.7577C37.3677 22.4066 37.3677 22.1258 37.3767 22.1258C37.3858 22.1258 37.3849 22.4066 37.3849 22.7577C37.3849 23.1089 37.3812 23.3897 37.3767 23.3897Z" fill="#E0E0E0"/>
<path d="M37.6837 22.5699C37.467 22.5817 37.2486 22.5817 37.0319 22.5699C37.0319 22.5699 37.1781 22.5618 37.3578 22.5618C37.4661 22.5591 37.5754 22.5618 37.6837 22.5699Z" fill="#E0E0E0"/>
<path d="M37.6871 23.0196C37.6871 23.0241 37.54 23.0277 37.3585 23.0277C37.1771 23.0277 37.0299 23.0277 37.0299 23.0196C37.2484 23.0078 37.4687 23.0078 37.6871 23.0196Z" fill="#E0E0E0"/>
<path d="M37.6837 23.7878H37.0319V25.0436H37.6837V23.7878Z" fill="white"/>
<path d="M37.3767 25.0436C37.3713 25.0436 37.3677 24.7628 37.3677 24.4116C37.3677 24.0605 37.3677 23.7842 37.3767 23.7842C37.3858 23.7842 37.3849 24.065 37.3849 24.4116C37.3849 24.7583 37.3812 25.0436 37.3767 25.0436Z" fill="#E0E0E0"/>
<path d="M37.6837 24.2239C37.467 24.2356 37.2486 24.2356 37.0319 24.2239C37.0319 24.2239 37.1781 24.2157 37.3578 24.2157C37.4661 24.213 37.5754 24.2157 37.6837 24.2239Z" fill="#E0E0E0"/>
<path d="M37.6871 24.6735C37.6871 24.678 37.54 24.6816 37.3585 24.6816C37.1771 24.6816 37.0299 24.6816 37.0299 24.6735C37.2484 24.6617 37.4687 24.6617 37.6871 24.6735Z" fill="#E0E0E0"/>
<path d="M36.1047 25.3876H35.4529V26.6433H36.1047V25.3876Z" fill="white"/>
<path d="M35.7968 26.6434C35.7923 26.6434 35.7887 26.3626 35.7887 26.016C35.7887 25.6693 35.7887 25.384 35.7968 25.384C35.8049 25.384 35.8058 25.6657 35.8058 26.016C35.8058 26.3662 35.8022 26.6434 35.7968 26.6434Z" fill="#E0E0E0"/>
<path d="M36.1047 25.8236C35.888 25.8354 35.6695 25.8354 35.4529 25.8236C35.4529 25.8191 35.5991 25.8155 35.7788 25.8155C35.9584 25.8155 36.1047 25.8191 36.1047 25.8236Z" fill="#E0E0E0"/>
<path d="M36.1081 26.2732C35.8896 26.2849 35.6693 26.2849 35.4509 26.2732C35.6693 26.2615 35.8896 26.2615 36.1081 26.2732Z" fill="#E0E0E0"/>
<path d="M37.6837 25.4418H37.0319V26.6975H37.6837V25.4418Z" fill="white"/>
<path d="M37.3767 26.6985C37.3713 26.6985 37.3677 26.4168 37.3677 26.0665C37.3677 25.7162 37.3677 25.4391 37.3767 25.4391C37.3858 25.4391 37.3849 25.7198 37.3849 26.0665C37.3849 26.4132 37.3812 26.6985 37.3767 26.6985Z" fill="#E0E0E0"/>
<path d="M37.6837 25.8778C37.467 25.8896 37.2486 25.8896 37.0319 25.8778C37.2486 25.8661 37.467 25.8661 37.6837 25.8778Z" fill="#E0E0E0"/>
<path d="M37.6871 26.3274C37.6871 26.3319 37.54 26.3355 37.3585 26.3355C37.1771 26.3355 37.0299 26.3355 37.0299 26.3274C37.2484 26.3157 37.4687 26.3157 37.6871 26.3274Z" fill="#E0E0E0"/>
<path d="M38.2948 14.2236C38.339 13.9067 37.8912 13.6458 37.5545 13.6187C37.3947 13.6061 37.2277 13.6304 37.076 13.5772C36.7465 13.4625 36.6156 13.0355 36.2942 12.9019C36.054 12.8008 35.7778 12.8911 35.5449 13.0084C35.3119 13.1258 35.0817 13.2729 34.8226 13.2892C34.596 13.3036 34.3505 13.2197 34.1527 13.3307C34.0047 13.4129 33.9279 13.5826 33.7916 13.6828C33.6499 13.7704 33.4865 13.8146 33.3204 13.811C33.1542 13.8074 32.9899 13.8345 32.8338 13.8905C32.6839 13.9591 32.5629 14.118 32.5909 14.2805L38.2948 14.2236Z" fill="#EBEBEB"/>
<path d="M15.7456 0.949744C15.9496 0.826963 16.169 0.731267 16.3983 0.666265L16.5338 0.0198616L17.6252 0L17.7832 0.64189C18.0153 0.698766 18.2391 0.786337 18.4486 0.902798L19.0002 0.541679L19.7865 1.30003L19.4417 1.86338C19.5645 2.06741 19.6601 2.28769 19.7252 2.517L20.3716 2.65152L20.3905 3.7439L19.7495 3.90099C19.6926 4.13301 19.6051 4.3551 19.4886 4.56364L19.8497 5.11616L19.0914 5.90159L18.5262 5.55943C18.3231 5.68311 18.1037 5.77881 17.8744 5.84381L17.7399 6.49022L16.6475 6.50918L16.4904 5.86819C16.2602 5.81041 16.0381 5.72284 15.8305 5.60728L15.278 5.9684L14.4898 5.21185L14.832 4.64761C14.7083 4.44357 14.6126 4.22329 14.5476 3.99398L13.9012 3.85766L13.8822 2.76527L14.5232 2.60818C14.581 2.37707 14.6686 2.15408 14.7841 1.94553L14.423 1.39392L15.1814 0.607583L15.7456 0.949744ZM16.3279 2.40505C15.8765 2.8709 15.8883 3.6139 16.3541 4.0644C16.8199 4.5158 17.5629 4.50406 18.0134 4.03822C18.4648 3.57237 18.4531 2.82937 17.9873 2.37887C17.9864 2.37797 17.9855 2.37707 17.9846 2.37617C17.5187 1.92747 16.7775 1.94102 16.3279 2.40505Z" fill="#EBEBEB"/>
<path d="M6.94247 29.2155C7.17178 29.0773 7.41915 28.9699 7.67645 28.8968L7.82721 28.17L9.05502 28.1484L9.23558 28.8706C9.49559 28.9347 9.74656 29.0331 9.98039 29.1631L10.6006 28.7568L11.4835 29.6091L11.099 30.2411C11.238 30.4704 11.3454 30.7168 11.4185 30.975L12.1408 31.1267L12.1625 32.3536L11.4402 32.5342C11.3761 32.7942 11.2768 33.0451 11.1468 33.279L11.554 33.8992L10.7008 34.7821L10.0689 34.3975C9.83775 34.5366 9.58948 34.6431 9.33037 34.7153L9.17961 35.4421L7.9518 35.4628L7.77124 34.7406C7.51124 34.6765 7.26026 34.5781 7.02643 34.4472L6.40531 34.8543L5.52237 34.0012L5.90696 33.3692C5.76883 33.1399 5.6614 32.8926 5.58828 32.6353L4.86604 32.4836L4.84437 31.2567L5.56661 31.0761C5.63071 30.8161 5.72911 30.5652 5.85911 30.3313L5.45286 29.7111L6.3051 28.8273L6.93706 29.2119L6.94247 29.2155ZM7.597 30.8513C7.09143 31.375 7.10588 32.2082 7.6295 32.7138C8.15312 33.2194 8.98641 33.2049 9.49197 32.6813C9.99754 32.1577 9.9831 31.3244 9.45947 30.8188L9.45857 30.8179C8.93585 30.3133 8.10347 30.3277 7.59881 30.8495C7.5979 30.8504 7.5979 30.8504 7.597 30.8513Z" fill="#E0E0E0"/>
<path d="M2.05468 34.0797C2.19912 33.9921 2.3544 33.9244 2.51691 33.8784L2.6126 33.4207L3.3863 33.4071L3.49825 33.8585C3.66256 33.8991 3.81965 33.9614 3.9677 34.0436L4.35862 33.7872L4.91564 34.3244L4.67279 34.7243C4.76036 34.8688 4.82807 35.0249 4.87411 35.1874L5.33183 35.2822L5.34537 36.0568L4.89398 36.1679C4.85515 36.3322 4.79467 36.4902 4.71342 36.6373L4.96981 37.0282L4.42813 37.5853L4.02819 37.3433C3.88374 37.4309 3.72756 37.4977 3.56506 37.5437L3.47478 38.0024L2.70108 38.0159L2.58913 37.5645C2.42573 37.5257 2.26774 37.4643 2.11968 37.3839L1.72877 37.6403L1.17174 37.0987L1.41459 36.6987C1.32431 36.5543 1.25389 36.399 1.20514 36.2356L0.746521 36.1399L0.733882 35.3653L1.18528 35.2542C1.2241 35.0899 1.28459 34.9328 1.36584 34.7848L1.11486 34.3939L1.65654 33.8378L2.05648 34.0797H2.05468ZM2.46906 35.1107C2.14857 35.4393 2.15579 35.9647 2.48441 36.2852C2.81303 36.6057 3.33845 36.5985 3.65895 36.2699C3.97944 35.9413 3.97222 35.4158 3.6436 35.0954L3.6427 35.0945C3.31498 34.7749 2.79046 34.7812 2.47087 35.1089C2.46996 35.1098 2.46996 35.1098 2.46906 35.1107Z" fill="#F5F5F5"/>
<path d="M34.3387 28.8345H28.0688V29.4457H34.3387V28.8345Z" fill="#EBEBEB"/>
<path d="M37.2585 38.9765C37.2585 38.9892 28.9175 39 18.6301 39C8.34276 39 0 38.9865 0 38.9765C0 38.9666 8.33915 38.9531 18.6301 38.9531C28.9211 38.9531 37.2585 38.9612 37.2585 38.9765Z" fill="#263238"/>
<path d="M31.4994 32.9052C31.7793 33.0388 31.9924 33.2799 32.0899 33.5742C32.1847 33.8649 32.2108 34.1736 32.1684 34.477C32.1016 35.0647 31.7676 35.6578 31.4074 36.1282C30.9126 35.6957 30.7989 34.9419 30.7646 34.5564C30.7113 33.9461 30.9857 32.8104 31.4994 32.9016" fill="#FDB812"/>
<path d="M31.9833 37.1023C31.9147 36.7601 32.0339 36.4071 32.2975 36.1778C32.562 35.9548 32.9051 35.8483 33.249 35.8808C33.407 35.8925 33.5777 35.9386 33.667 36.0677C33.7456 36.1968 33.7483 36.3575 33.6743 36.4893C33.5993 36.6175 33.491 36.7231 33.3619 36.7962C32.9331 37.0671 32.4681 37.2476 31.9833 37.1023Z" fill="#FDB812"/>
<path d="M31.3489 38.9052C31.3507 38.8645 31.3561 38.8239 31.366 38.7842C31.3814 38.6993 31.4021 38.5892 31.4256 38.4574C31.4816 38.0936 31.5953 37.7415 31.7633 37.4146C31.9375 37.0878 32.1957 36.8134 32.5117 36.6193C32.6074 36.5624 32.7103 36.5173 32.8168 36.4839C32.8538 36.4712 32.8845 36.4667 32.9071 36.4613C32.9297 36.4559 32.9387 36.4559 32.9387 36.4613C32.4449 36.622 32.035 36.9741 31.803 37.439C31.5953 37.811 31.5204 38.1965 31.4581 38.4673C31.4283 38.6045 31.4039 38.7156 31.385 38.7914C31.376 38.8302 31.3642 38.8682 31.3489 38.9052Z" fill="#263238"/>
<path d="M31.3669 33.7881C31.3714 33.8053 31.3732 33.8224 31.3732 33.8405C31.3732 33.8802 31.3786 33.9308 31.3822 33.9922C31.3894 34.124 31.3967 34.3145 31.4048 34.5501C31.4201 35.0213 31.4319 35.6723 31.4283 36.3918C31.4247 37.1113 31.4075 37.7622 31.3885 38.2335C31.3786 38.4691 31.3696 38.6596 31.3615 38.7914C31.3615 38.8528 31.3533 38.9034 31.3506 38.9422C31.3506 38.9603 31.3488 38.9783 31.3443 38.9955C31.3434 38.9774 31.3434 38.9603 31.3443 38.9422C31.3443 38.9034 31.3443 38.8519 31.3443 38.7905C31.3443 38.6533 31.3524 38.4637 31.3578 38.2326C31.3696 37.7613 31.3822 37.1104 31.3858 36.3918C31.3894 35.6732 31.3813 35.0223 31.3741 34.551C31.3741 34.319 31.3678 34.1303 31.3651 33.9931C31.3651 33.9308 31.3651 33.8802 31.3651 33.8414C31.3642 33.8233 31.3651 33.8062 31.3669 33.7881Z" fill="#263238"/>
<path d="M31.1267 37.4598C31.0048 36.7367 30.5435 36.1174 29.8853 35.7941C29.7192 35.7147 29.5034 35.6632 29.3671 35.786C29.2308 35.9088 29.2615 36.1309 29.3283 36.3024C29.6253 37.0283 30.3304 37.504 31.1149 37.5086" fill="#FDB812"/>
<path d="M29.9647 36.3521C30.0017 36.3638 30.0369 36.3792 30.0703 36.3981C30.1109 36.4162 30.1507 36.4379 30.1886 36.4613C30.2409 36.4902 30.2915 36.5218 30.3403 36.5561C30.3998 36.5958 30.4576 36.6392 30.5127 36.6861C30.5759 36.7385 30.6364 36.7945 30.6933 36.8531C30.8269 36.9895 30.9442 37.1411 31.0426 37.3045C31.1401 37.4688 31.2178 37.6431 31.2737 37.8255C31.2981 37.9049 31.3171 37.9852 31.3315 38.0674C31.346 38.1378 31.3559 38.2091 31.3613 38.2814C31.3676 38.341 31.3703 38.4014 31.3694 38.4619C31.3722 38.5071 31.3722 38.5513 31.3694 38.5964C31.3694 38.6335 31.3658 38.6696 31.3586 38.7057C31.3487 38.7057 31.3649 38.5423 31.3369 38.2823C31.3288 38.2109 31.3171 38.1405 31.3017 38.071C31.2864 37.9907 31.2665 37.9121 31.2412 37.8345C31.1284 37.4761 30.9334 37.1493 30.6707 36.8802C30.6093 36.8188 30.5515 36.7611 30.4901 36.7123C30.4287 36.6636 30.3746 36.622 30.3222 36.5796C30.11 36.4279 29.9611 36.3584 29.9647 36.3521Z" fill="#263238"/>
<path d="M35.6803 20.4817H27.0098V27.2419H35.6803V20.4817Z" fill="#F5F5F5"/>
<path d="M35.6803 27.2401C35.6803 27.2401 35.6803 27.1977 35.6803 27.1155C35.6803 27.0334 35.6803 26.9133 35.6803 26.7544C35.6803 26.4384 35.6803 25.9762 35.6803 25.3858C35.6803 24.2067 35.6803 22.5176 35.674 20.479L35.6867 20.4926H27.0198L27.036 20.4763C27.036 22.9139 27.036 25.2187 27.036 27.2365L27.0216 27.222L33.2834 27.2293H35.0583H35.5296H35.0619H33.2897L27.0189 27.2365H27.0053V27.2401C27.0053 25.2223 27.0053 22.9175 27.0053 20.4799V20.4691H27.0216H35.6885H35.6921V20.4818C35.6921 22.5239 35.6867 24.2157 35.6848 25.3966C35.6848 25.9852 35.6848 26.4474 35.6848 26.7625C35.6848 26.9187 35.6848 27.0388 35.6848 27.1236C35.6848 27.2085 35.6803 27.2401 35.6803 27.2401Z" fill="#263238"/>
<path d="M26.8555 20.0854L26.1504 22.3785H36.2988L35.7255 20.0854H26.8555Z" fill="#FDB812"/>
<path d="M26.1504 22.3785C26.1631 22.6855 26.4222 22.9247 26.7291 22.913C27.0189 22.9012 27.2519 22.6692 27.2636 22.3785H26.1504Z" fill="#FDB812"/>
<path d="M27.2799 22.3785C27.2925 22.6855 27.5516 22.9247 27.8586 22.913C28.1484 22.9012 28.3813 22.6692 28.393 22.3785H27.2799Z" fill="#FDB812"/>
<path d="M28.4091 22.3785C28.4217 22.6855 28.6808 22.9247 28.9878 22.913C29.2776 22.9012 29.5105 22.6692 29.5223 22.3785H28.4091Z" fill="#FDB812"/>
<path d="M29.5386 22.3785C29.5512 22.6855 29.8103 22.9247 30.1172 22.913C30.407 22.9012 30.64 22.6692 30.6517 22.3785H29.5386Z" fill="#FDB812"/>
<path d="M30.668 22.3785C30.6806 22.6855 30.9397 22.9247 31.2467 22.913C31.5365 22.9012 31.7694 22.6692 31.7812 22.3785H30.668Z" fill="#FDB812"/>
<path d="M31.7975 22.3785C31.8101 22.6855 32.0692 22.9247 32.3762 22.913C32.6659 22.9012 32.8989 22.6692 32.9106 22.3785H31.7975Z" fill="#FDB812"/>
<path d="M32.9269 22.3785C32.9395 22.6855 33.1987 22.9247 33.5056 22.913C33.7954 22.9012 34.0283 22.6692 34.0401 22.3785H32.9269Z" fill="#FDB812"/>
<path d="M34.0561 22.3785C34.0688 22.6855 34.3279 22.9247 34.6348 22.913C34.9246 22.9012 35.1575 22.6692 35.1693 22.3785H34.0561Z" fill="#FDB812"/>
<path d="M35.1856 22.3785C35.1982 22.6855 35.4573 22.9247 35.7643 22.913C36.0541 22.9012 36.287 22.6692 36.2987 22.3785H35.1856Z" fill="#FDB812"/>
<path d="M36.2943 22.383C36.2943 22.3921 34.0255 22.3993 31.2278 22.3993C28.43 22.3993 26.1594 22.3921 26.1594 22.383C26.1594 22.374 28.4282 22.3677 31.2278 22.3677C34.0273 22.3677 36.2943 22.3749 36.2943 22.383Z" fill="#263238"/>
<path d="M34.7036 23.3301H32.8737V27.2419H34.7036V23.3301Z" fill="white"/>
<path d="M34.7035 23.3301C34.7035 23.3364 34.7035 23.3418 34.7035 23.3482C34.7035 23.3617 34.7035 23.3798 34.7035 23.4032C34.7035 23.4529 34.7035 23.5251 34.7035 23.6172C34.7035 23.8068 34.7035 24.0812 34.708 24.4297C34.708 25.1258 34.7125 26.1053 34.7152 27.2455V27.2609H32.8744C32.8419 27.2293 32.8654 27.251 32.8582 27.2437V26.1342C32.8582 25.7731 32.8582 25.4291 32.8582 25.0987C32.8582 24.4369 32.8582 23.8348 32.8582 23.3301V23.3184H32.8699L34.2124 23.3247H34.5735H34.6638H34.5681H34.2024L32.8672 23.331L32.8789 23.3193C32.8789 23.8275 32.8789 24.4261 32.8789 25.0879C32.8789 25.4183 32.8789 25.765 32.8789 26.1234V27.2401C32.8717 27.2338 32.8943 27.2573 32.8636 27.2257H34.6927L34.6782 27.241C34.6782 26.1044 34.6827 25.1285 34.6845 24.4351C34.6845 24.0894 34.6845 23.814 34.689 23.6226C34.689 23.5323 34.689 23.4556 34.689 23.405V23.3482C34.6936 23.3418 34.6981 23.3355 34.7035 23.3301Z" fill="#263238"/>
<path d="M33.3004 24.8902H33.0567V25.681H33.3004V24.8902Z" fill="#E0E0E0"/>
<path d="M33.4775 26.0872C33.705 25.7387 33.9506 25.402 34.2133 25.0797C34.1041 25.2566 33.9858 25.4282 33.8585 25.5925C33.6554 25.8705 33.4847 26.0917 33.4775 26.0872Z" fill="#263238"/>
<path d="M33.8195 26.0015C33.8132 25.9952 33.9405 25.8561 34.0814 25.6711C34.2222 25.486 34.3242 25.328 34.3314 25.3325C34.3179 25.3722 34.2989 25.4093 34.2755 25.4436C34.2231 25.5293 34.1671 25.6115 34.1057 25.6909C34.0452 25.7704 33.9802 25.8462 33.9116 25.9184C33.8584 25.9762 33.8232 26.0051 33.8195 26.0015Z" fill="#263238"/>
<path d="M28.1231 23.6984H27.2799V24.0262H28.1231V23.6984Z" fill="#FAFAFA"/>
<path d="M27.7166 24.0261H27.0251V24.3538H27.7166V24.0261Z" fill="#E0E0E0"/>
<path d="M30.1832 26.0899H29.34V26.4176H30.1832V26.0899Z" fill="#FAFAFA"/>
<path d="M32.4708 25.2558H32.0673V25.5835H32.4708V25.2558Z" fill="#E0E0E0"/>
<path d="M35.507 24.9398H34.718V25.2675H35.507V24.9398Z" fill="#E0E0E0"/>
<path d="M32.1621 26.5621H31.3559V26.8899H32.1621V26.5621Z" fill="#E0E0E0"/>
<path d="M27.9893 26.2533H27.1831V26.5811H27.9893V26.2533Z" fill="#FAFAFA"/>
<path d="M32.8538 23.4998H32.4123V23.8276H32.8538V23.4998Z" fill="#FAFAFA"/>
<path d="M29.7291 26.4167H28.8967V26.7445H29.7291V26.4167Z" fill="#E0E0E0"/>
<path d="M32.0674 23.3301H28.123V26.09H32.0674V23.3301Z" fill="white"/>
<path d="M32.0673 26.09C32.0673 26.09 32.0673 26.0719 32.0673 26.0385C32.0673 26.0051 32.0673 25.9554 32.0673 25.8913C32.0673 25.7622 32.0673 25.5745 32.0673 25.3352C32.0673 24.8549 32.0673 24.1661 32.061 23.3301L32.0736 23.3427H28.1293L28.1447 23.3274C28.1447 24.3142 28.1447 25.2504 28.1447 26.0872L28.1302 26.0728L30.9713 26.0791L31.7838 26.0836H31.9996H31.7865H30.974L28.1239 26.0909H28.1085V26.0764C28.1085 25.2395 28.1085 24.3033 28.1085 23.3166V23.3003H28.1248H32.0691H32.0809V23.3129C32.0809 24.1525 32.0763 24.8432 32.0745 25.3262C32.0745 25.5645 32.0745 25.7514 32.0745 25.8796C32.0745 25.9419 32.0745 25.9906 32.0745 26.0241C32.0745 26.0575 32.0673 26.09 32.0673 26.09Z" fill="#263238"/>
<path d="M30.0721 25.3523C30.083 25.3325 30.0956 25.3144 30.111 25.2982C30.1371 25.2657 30.176 25.2178 30.2256 25.16C30.324 25.0445 30.4631 24.8892 30.621 24.7159C30.779 24.5425 30.9244 24.3936 31.0318 24.2852C31.0851 24.232 31.1293 24.1886 31.16 24.1597C31.1907 24.1308 31.2088 24.1146 31.2106 24.1164C31.1988 24.1354 31.1853 24.1525 31.169 24.1679L31.0472 24.3015L30.6436 24.7375L30.2428 25.1745L30.12 25.3063C30.1056 25.3234 30.0902 25.3388 30.0721 25.3523Z" fill="#263238"/>
<path d="M29.5142 25.3036C29.5079 25.2973 29.7281 25.0698 30.0053 24.7953C30.2825 24.5209 30.5127 24.3033 30.519 24.3096C30.5253 24.3159 30.305 24.5434 30.0279 24.8179C29.7507 25.0923 29.5205 25.3099 29.5142 25.3036Z" fill="#263238"/>
<path d="M29.3815 24.7953C29.4528 24.696 29.5323 24.603 29.6181 24.5163C29.6975 24.4243 29.7842 24.3385 29.8781 24.2609C29.8076 24.3602 29.7282 24.4541 29.6415 24.5398C29.563 24.6328 29.4754 24.7177 29.3815 24.7953Z" fill="#263238"/>
<path d="M27.2635 22.3785C27.2545 22.3785 27.3457 21.8621 27.4666 21.2293C27.5876 20.5964 27.6923 20.0836 27.7014 20.0854C27.7104 20.0872 27.6192 20.6009 27.4982 21.2347C27.3773 21.8684 27.2716 22.3803 27.2635 22.3785Z" fill="#263238"/>
<path d="M28.403 22.3785C28.3939 22.3785 28.4851 21.8621 28.6061 21.2293C28.7271 20.5964 28.8318 20.0836 28.8408 20.0854C28.8499 20.0872 28.7587 20.6009 28.6377 21.2347C28.5167 21.8684 28.4111 22.3803 28.403 22.3785Z" fill="#263238"/>
<path d="M29.5422 22.3785C29.5331 22.3785 29.6243 21.8621 29.7453 21.2293C29.8663 20.5964 29.971 20.0836 29.98 20.0854C29.9891 20.0872 29.897 20.6009 29.776 21.2347C29.655 21.8684 29.553 22.3803 29.5422 22.3785Z" fill="#263238"/>
<path d="M30.6816 22.3785C30.6726 22.3785 30.7331 21.8684 30.8162 21.241C30.8992 20.6136 30.9742 20.108 30.9832 20.108C30.9922 20.108 30.9308 20.6181 30.8478 21.2455C30.7647 21.873 30.6898 22.3794 30.6816 22.3785Z" fill="#263238"/>
<path d="M31.8199 22.3785C31.8117 22.3785 31.8596 21.8684 31.9282 21.2419C31.9968 20.6154 32.0582 20.108 32.0672 20.108C32.0763 20.108 32.0275 20.6181 31.9598 21.2446C31.8921 21.8711 31.8289 22.3794 31.8199 22.3785Z" fill="#263238"/>
<path d="M32.9594 22.3785C32.9513 22.3785 32.9775 21.8693 33.0181 21.2419C33.0587 20.6145 33.0993 20.1071 33.1084 20.108C33.1174 20.1089 33.0912 20.6172 33.0497 21.2446C33.0081 21.8721 32.9684 22.3794 32.9594 22.3785Z" fill="#263238"/>
<path d="M34.0986 22.3786C34.0905 22.3786 34.0553 21.8721 34.0219 21.2465C33.9885 20.6208 33.9677 20.1135 33.9767 20.1125C33.9857 20.1116 34.02 20.619 34.0535 21.2447C34.0869 21.8703 34.1076 22.3786 34.0986 22.3786Z" fill="#263238"/>
<path d="M35.2407 22.3786C35.2325 22.3786 35.1341 21.8739 35.0222 21.2483C34.9102 20.6226 34.8254 20.1144 34.8344 20.1126C34.8434 20.1107 34.9409 20.6172 35.0529 21.2429C35.1648 21.8685 35.247 22.3768 35.2407 22.3786Z" fill="#263238"/>
<path d="M34.1012 18.2636H28.3071V20.0854H34.1012V18.2636Z" fill="#455A64"/>
<path d="M29.0115 19.2558C29.0097 18.9958 29.22 18.7836 29.48 18.7818C29.4909 18.7818 29.5026 18.7818 29.5134 18.7827C29.6633 18.7755 29.8086 18.8387 29.9052 18.9542L29.7409 19.1023C29.6895 19.0355 29.61 18.9958 29.5261 18.9958C29.3825 19.0039 29.2724 19.1276 29.2805 19.2711C29.2886 19.4029 29.3934 19.5086 29.5261 19.5167C29.61 19.5167 29.6895 19.477 29.7409 19.4102L29.9052 19.5582C29.8086 19.6738 29.6633 19.737 29.5134 19.7297C29.2534 19.7469 29.0295 19.5501 29.0124 19.2901C29.0115 19.2783 29.0115 19.2675 29.0115 19.2558Z" fill="white"/>
<path d="M29.9394 19.3578C29.9394 19.1456 30.1073 18.9967 30.3375 18.9967C30.5677 18.9967 30.7365 19.1474 30.7365 19.3578C30.7365 19.5681 30.5713 19.7234 30.3375 19.7234C30.1335 19.7388 29.9556 19.5862 29.9403 19.3822C29.9394 19.374 29.9394 19.3659 29.9394 19.3578ZM30.4865 19.3578C30.4756 19.2756 30.4007 19.2178 30.3185 19.2278C30.2364 19.2377 30.1786 19.3135 30.1885 19.3957C30.1985 19.4706 30.2617 19.5266 30.3366 19.5266C30.4188 19.5275 30.4865 19.4616 30.4865 19.3785C30.4883 19.3722 30.4874 19.365 30.4865 19.3578Z" fill="white"/>
<path d="M31.1203 19.0318H31.2883V19.2124H31.1276V19.7071H30.8802V19.2124H30.7773V19.0318H30.8802V19.0138C30.8712 18.8684 30.9813 18.742 31.1276 18.733C31.1429 18.7321 31.1583 18.7321 31.1736 18.7339C31.2305 18.7321 31.2874 18.7448 31.3379 18.7709L31.2765 18.9452C31.254 18.9325 31.2287 18.9253 31.2025 18.9244C31.1501 18.9244 31.1203 18.9542 31.1203 19.0147V19.0318Z" fill="white"/>
<path d="M31.6493 19.0318H31.8173V19.2124H31.6557V19.7071H31.4083V19.2124H31.3054V19.0318H31.4083V19.0138C31.3993 18.8675 31.5112 18.742 31.6575 18.733C31.6728 18.7321 31.6882 18.7321 31.7026 18.7339C31.7595 18.7321 31.8164 18.7448 31.8669 18.7709L31.8055 18.9452C31.7829 18.9325 31.7577 18.9253 31.7315 18.9244C31.6791 18.9244 31.6493 18.9542 31.6493 19.0147V19.0318Z" fill="white"/>
<path d="M32.6225 19.4219H32.1098C32.1332 19.4959 32.2055 19.5429 32.2831 19.5347C32.3418 19.5365 32.3987 19.5158 32.442 19.4761L32.572 19.6115C32.4934 19.6918 32.3833 19.7343 32.2714 19.7261C32.0204 19.7261 31.857 19.5717 31.857 19.3605C31.8561 19.161 32.0177 18.9985 32.2172 18.9985C32.2262 18.9985 32.2361 18.9985 32.2452 18.9994C32.4393 18.9858 32.6081 19.1321 32.6216 19.3271C32.6225 19.3397 32.6225 19.3524 32.6225 19.365C32.6225 19.3786 32.6225 19.402 32.6225 19.4219ZM32.1007 19.2955H32.3905C32.3761 19.2151 32.3002 19.1619 32.2199 19.1763C32.1594 19.1872 32.1116 19.235 32.1007 19.2955Z" fill="white"/>
<path d="M33.4541 19.4219H32.9413C32.9648 19.4959 33.037 19.5429 33.1146 19.5348C33.1751 19.5366 33.2329 19.5149 33.2771 19.4734L33.4071 19.6088C33.3286 19.6891 33.2185 19.7316 33.1065 19.7234C32.8555 19.7234 32.6921 19.5691 32.6921 19.3578C32.6912 19.1583 32.8528 18.9958 33.0523 18.9958C33.0614 18.9958 33.0713 18.9958 33.0803 18.9967C33.2744 18.9831 33.4432 19.1294 33.4568 19.3244C33.4577 19.337 33.4577 19.3497 33.4577 19.3623C33.4577 19.3786 33.455 19.402 33.4541 19.4219ZM32.9368 19.2955H33.2266C33.2121 19.2152 33.1363 19.1619 33.0559 19.1763C32.9955 19.1872 32.9476 19.235 32.9368 19.2955Z" fill="white"/>
<path d="M38.9828 27.2582C38.9828 27.2708 35.3969 27.2816 30.9731 27.2816C26.5494 27.2816 22.9626 27.2708 22.9626 27.2582C22.9626 27.2455 26.5485 27.2347 30.9731 27.2347C35.3978 27.2347 38.9828 27.2446 38.9828 27.2582Z" fill="#263238"/>
<path d="M13.4833 30.7863L3.2564 30.78C2.02769 30.7836 1.0283 29.7896 1.02468 28.5609C1.02468 28.56 1.02468 28.5591 1.02468 28.5582L1.0301 2.99097C1.03281 1.76226 2.0313 0.767373 3.26001 0.770081L13.4878 0.776401C14.7156 0.775498 15.7123 1.77038 15.7141 2.99819L15.7087 28.5654C15.706 29.7923 14.7102 30.7863 13.4833 30.7863Z" fill="#455A64"/>
<path d="M13.5511 1.53835L11.5649 1.52932C11.2923 1.53384 11.0756 1.75954 11.0801 2.03218V2.3933C11.0856 2.66595 10.868 2.89074 10.5953 2.89616H10.5944L6.71241 2.8781C6.43976 2.87088 6.22399 2.64428 6.23122 2.37163V2.37073V2.00961C6.23844 1.73697 6.02357 1.51037 5.75093 1.50224H5.05036L3.30886 1.49141C2.44398 1.4878 1.7398 2.18476 1.73618 3.04964V3.05054L1.63056 28.1637C1.62695 29.0277 2.32391 29.7318 3.18788 29.7355C3.18879 29.7355 3.19059 29.7355 3.19149 29.7355L13.4337 29.7833C14.2986 29.7869 15.0028 29.0899 15.0064 28.2251V28.2242L15.1084 3.11103C15.112 2.24705 14.4151 1.54377 13.5511 1.53835Z" fill="white"/>
<path d="M5.67852 5.60368V5.79778H5.52595V5.60187L5.3192 5.25701H5.48081L5.609 5.47187L5.7372 5.25701H5.88526L5.67852 5.60368Z" fill="#FDB812"/>
<path d="M5.87271 5.52695C5.86187 5.36084 5.98736 5.21729 6.15348 5.20646C6.31959 5.19563 6.46314 5.32112 6.47397 5.48723C6.4848 5.65335 6.35931 5.79689 6.1932 5.80773C6.18598 5.80863 6.17785 5.80863 6.17063 5.80863C6.01444 5.81675 5.88083 5.69668 5.87271 5.53959C5.87271 5.53598 5.87271 5.53147 5.87271 5.52695ZM6.3241 5.52695C6.31869 5.44661 6.24917 5.38522 6.16882 5.39063C6.08847 5.39605 6.02708 5.46556 6.0325 5.54591C6.03701 5.61994 6.0966 5.67862 6.17063 5.68314C6.25098 5.68494 6.31779 5.62175 6.31959 5.5414C6.31959 5.53689 6.31959 5.53237 6.31959 5.52786H6.3241V5.52695Z" fill="#FDB812"/>
<path d="M6.54993 5.55674V5.25701H6.7034V5.55222C6.7034 5.6425 6.74132 5.68222 6.80542 5.68222C6.86952 5.68222 6.90743 5.64431 6.90743 5.55222V5.25701H7.0582V5.55674C7.05008 5.69667 6.9291 5.8041 6.78917 5.79598C6.66007 5.78785 6.55715 5.68584 6.54993 5.55674Z" fill="#FDB812"/>
<path d="M7.39851 5.6542H7.31455V5.79775H7.16379V5.25607H7.41115C7.55831 5.25607 7.6513 5.33281 7.6513 5.45559C7.65401 5.52871 7.61248 5.59642 7.54567 5.62712L7.66213 5.79684H7.49782L7.39851 5.6542ZM7.39851 5.37704H7.31365V5.53594H7.39851C7.46261 5.53594 7.49421 5.50614 7.49421 5.45649C7.49421 5.40684 7.46351 5.37704 7.39942 5.37704H7.39851Z" fill="#FDB812"/>
<path d="M7.93008 5.52695C7.91924 5.36084 8.04473 5.21729 8.21085 5.20646C8.37696 5.19563 8.52051 5.32112 8.53134 5.48723C8.54217 5.65335 8.41668 5.79689 8.25057 5.80773C8.24425 5.80773 8.23703 5.80863 8.23071 5.80863C8.07452 5.81856 7.94091 5.70029 7.93098 5.54501C7.93008 5.53869 7.93008 5.53327 7.93008 5.52695ZM8.38147 5.52695C8.37606 5.44661 8.30745 5.38522 8.22619 5.38973C8.14584 5.39515 8.08445 5.46376 8.08897 5.54501C8.09348 5.62175 8.15758 5.68224 8.23432 5.68224C8.31467 5.68043 8.37786 5.61362 8.37606 5.53327C8.37606 5.53147 8.37606 5.52876 8.37606 5.52695H8.38147Z" fill="#FDB812"/>
<path d="M8.84844 5.6542H8.76448V5.79775H8.6083V5.25607H8.85566C9.00282 5.25607 9.09581 5.33281 9.09581 5.45559C9.09851 5.52871 9.05699 5.59642 8.99018 5.62712L9.10664 5.79684H8.94233L8.84844 5.6542ZM8.84844 5.37704H8.76358V5.53594H8.84844C8.91254 5.53594 8.94414 5.50614 8.94414 5.45649C8.94414 5.40684 8.91344 5.37704 8.84844 5.37704Z" fill="#FDB812"/>
<path d="M9.18315 5.25701H9.43864C9.6192 5.25701 9.74108 5.36083 9.74108 5.52785C9.74108 5.69486 9.6183 5.79869 9.43864 5.79869H9.18315V5.25701ZM9.43232 5.6759C9.51448 5.68222 9.5858 5.62083 9.59212 5.53868C9.59844 5.45652 9.53705 5.3852 9.45489 5.37888C9.44677 5.37798 9.43954 5.37798 9.43142 5.37888H9.33482V5.6759H9.43232Z" fill="#FDB812"/>
<path d="M10.2558 5.67948V5.79775H9.82151V5.25607H10.2458V5.37433H9.97499V5.46461H10.216V5.57837H9.97499V5.67767L10.2558 5.67948Z" fill="#FDB812"/>
<path d="M10.5771 5.6542H10.4932V5.79775H10.3406V5.25607H10.5871C10.7351 5.25607 10.8281 5.33281 10.8281 5.45559C10.8308 5.52871 10.7884 5.59733 10.7216 5.62712L10.839 5.79684H10.6746L10.5771 5.6542ZM10.5771 5.37704H10.4923V5.53594H10.5771C10.6403 5.53594 10.6728 5.50614 10.6728 5.45649C10.6728 5.40684 10.6412 5.37704 10.578 5.37704H10.5771Z" fill="#FDB812"/>
<path d="M5.09175 16.0454H4.92563V15.9235H5.40953V16.0454H5.24432V16.4643H5.09175V16.0454Z" fill="#263238"/>
<path d="M5.43124 16.1926C5.4195 16.0265 5.54499 15.882 5.7111 15.8712C5.87722 15.8594 6.02167 15.9849 6.0325 16.151C6.04424 16.3172 5.91875 16.4616 5.75263 16.4724C5.74541 16.4733 5.73909 16.4733 5.73187 16.4733C5.57568 16.4833 5.44207 16.365 5.43214 16.2097C5.43124 16.2034 5.43124 16.198 5.43124 16.1926ZM5.88263 16.1926C5.87812 16.1122 5.80951 16.0499 5.72826 16.0544C5.64791 16.059 5.58561 16.1276 5.59013 16.2088C5.59464 16.2865 5.65874 16.3469 5.73548 16.3469C5.81492 16.346 5.87902 16.2801 5.87722 16.1998C5.87722 16.1971 5.87722 16.1944 5.87722 16.1926H5.88263Z" fill="#263238"/>
<path d="M6.2202 16.0454H6.05409V15.9235H6.53799V16.0454H6.37277V16.4643H6.2202V16.0454Z" fill="#263238"/>
<path d="M6.93069 16.3578H6.70228L6.65985 16.4625H6.50367L6.74201 15.9209H6.89277L7.13292 16.4625H6.97312L6.93069 16.3578ZM6.88555 16.245L6.81604 16.0716L6.74652 16.245H6.88555Z" fill="#263238"/>
<path d="M7.17554 15.9217H7.32901V16.3415H7.58721V16.4625H7.17554V15.9217Z" fill="#263238"/>
<path d="M7.62862 16.124C7.62862 16.0743 7.66925 16.0337 7.7189 16.0337C7.76855 16.0337 7.80918 16.0743 7.80918 16.124C7.80918 16.1736 7.76855 16.2142 7.7189 16.2142C7.66925 16.2142 7.62862 16.1736 7.62862 16.124ZM7.62862 16.3822C7.62862 16.3325 7.66925 16.2919 7.7189 16.2919C7.76855 16.2919 7.80918 16.3325 7.80918 16.3822C7.80918 16.4318 7.76855 16.4725 7.7189 16.4725C7.66925 16.4725 7.62862 16.4318 7.62862 16.3822Z" fill="#263238"/>
<path d="M12.2916 16.6575V16.8056H12.1291V16.6629C12.0099 16.6584 11.8944 16.6232 11.7924 16.5618L11.8826 16.3677C11.9747 16.4255 12.0813 16.4571 12.1896 16.458C12.2988 16.458 12.3413 16.4273 12.3413 16.3822C12.3413 16.235 11.8122 16.3424 11.8122 15.9967C11.8122 15.8504 11.917 15.7258 12.1327 15.7005V15.5543H12.2916V15.6978C12.3864 15.7033 12.4794 15.7303 12.5625 15.7764L12.4812 15.9714C12.4027 15.9262 12.3142 15.9019 12.2239 15.8992C12.1138 15.8992 12.0731 15.9371 12.0731 15.9831C12.0731 16.1258 12.6013 16.0192 12.6013 16.3623C12.6004 16.5049 12.4993 16.6268 12.2916 16.6575Z" fill="#263238"/>
<path d="M13.1519 16.6575V16.8056H12.993V16.6629C12.8738 16.6584 12.7583 16.6232 12.6563 16.5618L12.7466 16.3677C12.8386 16.4255 12.9452 16.4571 13.0535 16.458C13.1627 16.458 13.2052 16.4273 13.2052 16.3822C13.2052 16.235 12.6761 16.3424 12.6761 15.9967C12.6761 15.8504 12.7809 15.7258 12.9966 15.7005V15.5543H13.1555V15.6978C13.2503 15.7033 13.3433 15.7303 13.4264 15.7764L13.3451 15.9714C13.2666 15.9262 13.1781 15.9019 13.0878 15.8992C12.9777 15.8992 12.937 15.9371 12.937 15.9831C12.937 16.1258 13.4652 16.0192 13.4652 16.3623C13.4607 16.5049 13.3596 16.6268 13.1519 16.6575Z" fill="#263238"/>
<path d="M3.6139 6.50918C4.18231 6.50918 4.64309 6.04839 4.64309 5.47999C4.64309 4.91158 4.18231 4.4508 3.6139 4.4508C3.0455 4.4508 2.58471 4.91158 2.58471 5.47999C2.58471 6.04839 3.0455 6.50918 3.6139 6.50918Z" fill="#FDB812"/>
<path d="M3.6139 14.2804C4.18231 14.2804 4.64309 13.8197 4.64309 13.2513C4.64309 12.6829 4.18231 12.2221 3.6139 12.2221C3.0455 12.2221 2.58471 12.6829 2.58471 13.2513C2.58471 13.8197 3.0455 14.2804 3.6139 14.2804Z" fill="#FDB812"/>
<path d="M5.87623 13.1149C5.87623 13.2377 5.78595 13.3144 5.63608 13.3144H5.53858V13.4562H5.38872V12.9145H5.63608C5.78324 12.9145 5.87623 12.9912 5.87623 13.1149ZM5.72185 13.1149C5.72185 13.0653 5.69025 13.0355 5.63157 13.0355H5.53858V13.1935H5.62886C5.69025 13.1935 5.71914 13.1646 5.71914 13.1149H5.72185Z" fill="#FDB812"/>
<path d="M6.28623 13.3506H6.05692L6.01449 13.4562H5.8583L6.09754 12.9145H6.24831L6.48755 13.4562H6.32866L6.28623 13.3506ZM6.24109 13.2377L6.17067 13.0662L6.10115 13.2386L6.24109 13.2377Z" fill="#FDB812"/>
<path d="M6.78622 13.2621V13.4562H6.63364V13.2594L6.4269 12.9145H6.5885L6.7167 13.1294L6.8449 12.9145H6.99296L6.78622 13.2621Z" fill="#FDB812"/>
<path d="M9.43519 23.8537H4.71085V27.5371H9.43519V23.8537Z" fill="#EBEBEB"/>
<path d="M9.43516 27.5363C9.43516 27.5363 9.43516 27.5137 9.43516 27.4685C9.43516 27.4234 9.43516 27.3584 9.43516 27.2726C9.43516 27.1002 9.43516 26.8483 9.43516 26.5269C9.43516 25.8841 9.43516 24.9642 9.43516 23.8537L9.44238 23.861H4.71082L4.71984 23.8528C4.71984 25.18 4.71984 26.4357 4.71984 27.5354L4.71172 27.5281H8.12339H9.09029H9.34849H9.0939H8.12791H4.71172H4.70359V27.52C4.70359 26.4204 4.70359 25.1646 4.70359 23.8375V23.8285H4.71262H9.43696H9.44419V23.8357C9.44419 24.9479 9.44419 25.8697 9.44419 26.5134C9.44419 26.8339 9.44419 27.0858 9.44419 27.2573C9.44419 27.3422 9.44419 27.4081 9.44419 27.4523C9.44419 27.4965 9.43516 27.5363 9.43516 27.5363Z" fill="#263238"/>
<path d="M4.62685 23.6371L4.24226 24.8865H9.7719L9.45953 23.6371H4.62685Z" fill="#FDB812"/>
<path d="M4.24226 24.8865C4.24226 25.0544 4.37768 25.1899 4.5456 25.1899C4.71352 25.1899 4.84894 25.0544 4.84894 24.8865H4.24226Z" fill="#FDB812"/>
<path d="M4.85787 24.8865C4.8669 25.0535 5.01044 25.1817 5.17746 25.1727C5.33184 25.1646 5.45552 25.0409 5.46365 24.8865H4.85787Z" fill="#FDB812"/>
<path d="M5.47273 24.8865C5.47273 25.0544 5.60815 25.1899 5.77607 25.1899C5.94399 25.1899 6.07941 25.0544 6.07941 24.8865H5.47273Z" fill="#FDB812"/>
<path d="M6.08859 24.8865C6.08859 25.0544 6.22401 25.1899 6.39193 25.1899C6.55985 25.1899 6.69527 25.0544 6.69527 24.8865H6.08859Z" fill="#FDB812"/>
<path d="M6.7042 24.8865C6.71323 25.0535 6.85678 25.1817 7.02379 25.1727C7.17817 25.1646 7.30186 25.0409 7.30998 24.8865H6.7042Z" fill="#FDB812"/>
<path d="M7.31906 24.8865C7.31906 25.0544 7.45448 25.1899 7.6224 25.1899C7.79032 25.1899 7.92574 25.0544 7.92574 24.8865H7.31906Z" fill="#FDB812"/>
<path d="M7.93467 24.8865C7.9437 25.0535 8.08725 25.1817 8.25426 25.1727C8.40864 25.1646 8.53233 25.0409 8.54045 24.8865H7.93467Z" fill="#FDB812"/>
<path d="M8.54953 24.8865C8.54953 25.0544 8.68586 25.1899 8.85287 25.1899C9.01989 25.1899 9.15531 25.0544 9.15622 24.8865H8.54953Z" fill="#FDB812"/>
<path d="M9.16515 24.8865C9.16515 25.0544 9.30056 25.1899 9.46849 25.1899C9.63641 25.1899 9.77183 25.0544 9.77183 24.8865H9.16515Z" fill="#FDB812"/>
<path d="M9.76927 24.8928C9.76927 24.8974 8.53334 24.9019 7.00852 24.9019C5.48369 24.9019 4.24776 24.8928 4.24776 24.8928C4.24776 24.8928 5.48369 24.8847 7.00852 24.8847C8.53334 24.8847 9.76927 24.8847 9.76927 24.8928Z" fill="#263238"/>
<path d="M8.90261 25.4047H7.90592V27.5363H8.90261V25.4047Z" fill="white"/>
<path d="M8.90238 25.4048C8.90238 25.4084 8.90238 25.4111 8.90238 25.4147V25.4445C8.90238 25.4725 8.90238 25.5113 8.90238 25.5618C8.90238 25.6648 8.90238 25.8146 8.90238 26.0024C8.90238 26.3816 8.90238 26.9151 8.90238 27.5372V27.5462H7.9057L7.89667 27.5372V26.9332C7.89667 26.7373 7.89667 26.5486 7.89667 26.3689C7.89667 26.0078 7.89667 25.6819 7.89667 25.4048V25.3984H7.90299H8.63425H8.83197H8.63335H7.9057L7.91201 25.3921C7.91201 25.6693 7.91201 25.9961 7.91201 26.3563V27.5218L7.90389 27.5137H8.89697L8.88884 27.5218C8.88884 26.9034 8.88884 26.3717 8.88884 25.9934C8.88884 25.8047 8.88884 25.6548 8.88884 25.551C8.88884 25.4996 8.88884 25.4607 8.88884 25.4327C8.88884 25.4192 8.88884 25.4093 8.88884 25.4011L8.90238 25.4048Z" fill="#263238"/>
<path d="M8.1379 26.2551H8.00519V26.6858H8.1379V26.2551Z" fill="#E0E0E0"/>
<path d="M8.23448 26.907C8.23448 26.907 8.31754 26.7797 8.42768 26.628C8.53782 26.4763 8.63171 26.3572 8.63532 26.3572C8.57664 26.4538 8.51164 26.5477 8.44212 26.637C8.33108 26.7887 8.23809 26.9097 8.23448 26.907Z" fill="#263238"/>
<path d="M8.42126 26.861C8.42126 26.861 8.48626 26.7815 8.563 26.6804C8.63974 26.5793 8.69571 26.4935 8.70023 26.4998C8.693 26.5215 8.68217 26.5414 8.66953 26.5603C8.64154 26.6064 8.61175 26.6515 8.57925 26.6948C8.54043 26.7454 8.50161 26.7851 8.47272 26.8194C8.45737 26.8357 8.44022 26.8492 8.42126 26.861Z" fill="#263238"/>
<path d="M5.3174 25.606H4.85787V25.7848H5.3174V25.606Z" fill="#F5F5F5"/>
<path d="M5.09531 25.7839H4.71885V25.9627H5.09531V25.7839Z" fill="#E0E0E0"/>
<path d="M6.4396 26.9088H5.98007V27.0875H6.4396V26.9088Z" fill="#F5F5F5"/>
<path d="M7.68547 26.4547H7.46609V26.6334H7.68547V26.4547Z" fill="#E0E0E0"/>
<path d="M9.34033 26.2823H8.9106V26.461H9.34033V26.2823Z" fill="#E0E0E0"/>
<path d="M7.51843 27.1661H7.07877V27.3449H7.51843V27.1661Z" fill="#E0E0E0"/>
<path d="M5.24427 26.9982H4.80461V27.1769H5.24427V26.9982Z" fill="#F5F5F5"/>
<path d="M7.89402 25.4977H7.65387V25.6765H7.89402V25.4977Z" fill="#F5F5F5"/>
<path d="M6.19223 27.0875H5.73903V27.2663H6.19223V27.0875Z" fill="#E0E0E0"/>
<path d="M7.46627 25.4047H5.3167V26.9079H7.46627V25.4047Z" fill="white"/>
<path d="M7.46607 26.9088C7.46607 26.9088 7.46607 26.8989 7.46607 26.8808C7.46607 26.8627 7.46607 26.8357 7.46607 26.8014C7.46607 26.7309 7.46607 26.628 7.46607 26.498C7.46607 26.2362 7.46607 25.8606 7.46607 25.4047L7.47329 25.4119H5.32463L5.33366 25.4029C5.33366 25.9446 5.33366 26.4511 5.33366 26.907L5.32554 26.8989H6.87384H7.31621H6.87564L5.32193 26.9034H5.3147V26.8952C5.3147 26.4393 5.3147 25.9292 5.3147 25.3912V25.3831H5.32373H7.47239H7.47961V25.3894C7.47961 25.8471 7.47961 26.2236 7.47961 26.4863C7.47961 26.6163 7.47961 26.7183 7.47961 26.7887C7.47961 26.8221 7.47961 26.8483 7.47961 26.8673C7.47961 26.8862 7.46607 26.9088 7.46607 26.9088Z" fill="#263238"/>
<path d="M6.37914 26.5071C6.38456 26.4962 6.39178 26.4872 6.39991 26.4782C6.41435 26.4592 6.43602 26.4339 6.4631 26.4023C6.51637 26.3391 6.59221 26.2534 6.67797 26.1604C6.76374 26.0674 6.84318 25.9798 6.90186 25.9257L6.97228 25.857C6.98041 25.848 6.98944 25.8399 6.99937 25.8336C6.99305 25.8435 6.98582 25.8534 6.9768 25.8616L6.91089 25.9347C6.85131 25.9979 6.77547 26.0809 6.69061 26.1721L6.47213 26.4105L6.40533 26.4818C6.3981 26.4917 6.38908 26.4998 6.37914 26.5071Z" fill="#263238"/>
<path d="M6.07484 26.4809C6.07484 26.4809 6.1913 26.3536 6.34568 26.2037C6.50006 26.0539 6.62194 25.9329 6.62464 25.9392C6.62735 25.9455 6.50818 26.0665 6.3538 26.2164C6.19943 26.3662 6.08026 26.4836 6.07484 26.4809Z" fill="#263238"/>
<path d="M6.00283 26.2037C6.04165 26.1496 6.08498 26.099 6.13193 26.052C6.17526 26.0015 6.22221 25.9545 6.27367 25.9112C6.19242 26.0168 6.10123 26.1143 6.00283 26.2037Z" fill="#263238"/>
<path d="M4.84887 24.8865C4.84887 24.8865 4.89401 24.6058 4.95991 24.26C5.02582 23.9142 5.08269 23.6362 5.08721 23.6371C5.09172 23.638 5.04207 23.9187 4.97616 24.2636C4.91026 24.6085 4.85338 24.8874 4.84887 24.8865Z" fill="#263238"/>
<path d="M5.46923 24.8865C5.46923 24.8865 5.51437 24.6058 5.58028 24.26C5.64618 23.9142 5.70306 23.6362 5.70847 23.6371C5.71389 23.638 5.66333 23.9187 5.59743 24.2636C5.53152 24.6085 5.47465 24.8874 5.46923 24.8865Z" fill="#263238"/>
<path d="M6.09034 24.8865C6.09034 24.8865 6.13548 24.6058 6.20139 24.26C6.26729 23.9142 6.32417 23.6362 6.32868 23.6371C6.3332 23.638 6.28354 23.9187 6.21764 24.2636C6.15173 24.6085 6.09486 24.8874 6.09034 24.8865Z" fill="#263238"/>
<path d="M6.71228 24.8865C6.70686 24.8865 6.74027 24.6085 6.78541 24.2672C6.83055 23.9259 6.87569 23.6488 6.87569 23.6497C6.87569 23.6506 6.8477 23.9277 6.80256 24.269C6.75742 24.6103 6.71228 24.8874 6.71228 24.8865Z" fill="#263238"/>
<path d="M7.33157 24.8865C7.33157 24.8865 7.35323 24.6085 7.39025 24.2672C7.42726 23.9259 7.46157 23.6488 7.46608 23.6497C7.4706 23.6506 7.44442 23.9277 7.4074 24.269C7.37039 24.6103 7.33608 24.8874 7.33157 24.8865Z" fill="#263238"/>
<path d="M7.95282 24.8865C7.9474 24.8865 7.96185 24.6094 7.98442 24.2672C8.00699 23.925 8.02865 23.6488 8.03317 23.6497C8.03768 23.6506 8.02414 23.9268 8.00157 24.269C7.979 24.6112 7.95733 24.8874 7.95282 24.8865Z" fill="#263238"/>
<path d="M8.57305 24.8865C8.57305 24.8865 8.54958 24.6111 8.53152 24.2699C8.51347 23.9286 8.50173 23.6524 8.50625 23.6524C8.51076 23.6524 8.52972 23.9277 8.54868 24.269C8.56764 24.6102 8.57757 24.8865 8.57305 24.8865Z" fill="#263238"/>
<path d="M9.194 24.8865C9.18948 24.8865 9.13532 24.6157 9.07483 24.2708C9.01434 23.9259 8.9674 23.6533 8.97191 23.6524C8.97642 23.6515 9.03059 23.9232 9.09108 24.2681C9.15157 24.613 9.19851 24.8856 9.194 24.8865Z" fill="#263238"/>
<path d="M8.57381 22.6449H5.41672V23.6371H8.57381V22.6449Z" fill="#455A64"/>
<path d="M5.80055 23.1857C5.79964 23.0439 5.9134 22.9284 6.05514 22.9275C6.06055 22.9275 6.06597 22.9275 6.07139 22.9275C6.15264 22.9229 6.23208 22.9563 6.28535 23.0177L6.19507 23.099C6.16708 23.062 6.12375 23.0412 6.07771 23.0412C5.99916 23.0412 5.93597 23.1044 5.93597 23.1829C5.93597 23.2615 5.99916 23.3247 6.07771 23.3247C6.12375 23.3247 6.16708 23.303 6.19507 23.266L6.28535 23.3473C6.23208 23.4086 6.15264 23.4421 6.07139 23.4375C5.92965 23.4457 5.80867 23.3373 5.80055 23.1956C5.80055 23.1929 5.80055 23.1893 5.80055 23.1857Z" fill="white"/>
<path d="M6.30689 23.2407C6.29695 23.1207 6.38633 23.0159 6.5055 23.006C6.62467 22.9961 6.7303 23.0855 6.74023 23.2046C6.75016 23.3247 6.66078 23.4294 6.54161 23.4394C6.5362 23.4403 6.52988 23.4403 6.52446 23.4403C6.41432 23.4493 6.31682 23.368 6.30779 23.2579C6.30689 23.2525 6.30689 23.2462 6.30689 23.2407ZM6.60481 23.2407C6.60932 23.1965 6.57682 23.1559 6.53259 23.1514C6.48835 23.1468 6.44772 23.1793 6.44321 23.2236C6.44231 23.229 6.44231 23.2353 6.44321 23.2407C6.43869 23.285 6.47119 23.3256 6.51543 23.3301C6.55967 23.3346 6.6003 23.3021 6.60481 23.2579C6.60571 23.2525 6.60571 23.2462 6.60481 23.2407Z" fill="white"/>
<path d="M6.95061 23.0638H7.04089V23.164H6.95061V23.4348H6.81519V23.164H6.75921V23.0638H6.81519V23.0538C6.80977 22.9744 6.87026 22.9058 6.95061 22.9004C6.95873 22.8995 6.96776 22.9004 6.97588 22.9013C7.00748 22.9004 7.03818 22.9067 7.06616 22.9211L7.03276 23.0114C7.02012 23.0042 7.00658 23.0006 6.99213 22.9997C6.96415 22.9997 6.9479 23.0159 6.9479 23.0502L6.95061 23.0638Z" fill="white"/>
<path d="M7.23866 23.0638H7.32894V23.164H7.23866V23.4348H7.10414V23.164H7.04726V23.0638H7.10414V23.0538C7.09872 22.9744 7.15831 22.9058 7.23776 22.9004C7.24678 22.8995 7.25581 22.9004 7.26394 22.9013C7.29553 22.9004 7.32623 22.9067 7.35422 22.9211L7.32081 23.0114C7.30817 23.0042 7.29463 23.0006 7.28019 22.9997C7.2522 22.9997 7.23595 23.0159 7.23595 23.0502L7.23866 23.0638Z" fill="white"/>
<path d="M7.76681 23.276H7.48695C7.49959 23.3148 7.5366 23.3391 7.57723 23.3373C7.61063 23.3391 7.64313 23.3265 7.66751 23.3039L7.73792 23.378C7.69549 23.4213 7.63591 23.4448 7.57452 23.4403C7.46257 23.452 7.36236 23.3707 7.34972 23.2588C7.34882 23.2525 7.34882 23.2462 7.34882 23.2407C7.34882 23.1306 7.4382 23.0421 7.54834 23.043C7.55195 23.043 7.55646 23.043 7.56007 23.043C7.6657 23.0358 7.75779 23.1153 7.76591 23.2209C7.76681 23.2281 7.76681 23.2353 7.76591 23.2425C7.76862 23.2525 7.76681 23.2678 7.76681 23.276ZM7.48514 23.2046H7.64223C7.63591 23.1613 7.59528 23.1315 7.55195 23.1378C7.51764 23.1432 7.49056 23.1703 7.48514 23.2046Z" fill="white"/>
<path d="M8.22174 23.276H7.94278C7.95542 23.3148 7.99243 23.3392 8.03306 23.3374C8.06646 23.3392 8.09896 23.3265 8.12334 23.3039L8.19466 23.378C8.15133 23.4213 8.09174 23.4448 8.03035 23.4403C7.9184 23.452 7.81819 23.3708 7.80555 23.2588C7.80465 23.2525 7.80465 23.2462 7.80465 23.2408C7.80465 23.1306 7.89403 23.0421 8.00327 23.0421C8.00778 23.0421 8.01229 23.0421 8.01681 23.043C8.12334 23.0358 8.21542 23.1162 8.22265 23.2227C8.22265 23.229 8.22355 23.2353 8.22265 23.2426C8.22445 23.2525 8.22265 23.2678 8.22174 23.276ZM7.94007 23.2046H8.09806C8.08994 23.1613 8.04841 23.1324 8.00417 23.1405C7.97167 23.1469 7.94639 23.1721 7.94007 23.2046Z" fill="white"/>
<path d="M5.37164 21.0469C5.37164 21.1697 5.28136 21.2464 5.13149 21.2464H5.04121V21.3882H4.88413V20.8465H5.13149C5.27865 20.8465 5.37164 20.9205 5.37164 21.0469ZM5.21726 21.0469C5.21726 20.9964 5.18566 20.9675 5.12698 20.9675H5.0367V21.1255H5.12698C5.18566 21.1255 5.21726 21.1011 5.21726 21.0469Z" fill="#E0E0E0"/>
<path d="M5.44848 20.8465H5.60105V21.3882H5.44848V20.8465Z" fill="#E0E0E0"/>
<path d="M5.67952 21.1173C5.67862 20.962 5.80411 20.8356 5.95849 20.8347C5.96481 20.8347 5.97113 20.8347 5.97745 20.8356C6.06682 20.832 6.15169 20.8699 6.20947 20.9377L6.11287 21.0279C6.08217 20.9882 6.03523 20.9647 5.98467 20.9647C5.89981 20.9647 5.83029 21.0343 5.83029 21.1191C5.83029 21.204 5.89981 21.2735 5.98467 21.2735C6.03523 21.2735 6.08217 21.25 6.11287 21.2103L6.20947 21.3006C6.15169 21.3683 6.06682 21.4062 5.97745 21.4026C5.82307 21.4125 5.68945 21.2943 5.68043 21.1399C5.67952 21.1318 5.67952 21.1245 5.67952 21.1173Z" fill="#E0E0E0"/>
<path d="M6.48658 21.1914L6.4288 21.2528V21.3882H6.27713V20.8465H6.4288V21.0713L6.63825 20.8465H6.80707L6.58588 21.0866L6.81881 21.3882H6.63825L6.48658 21.1914Z" fill="#E0E0E0"/>
<path d="M7.07877 21.1462V20.8465H7.23134V21.1417C7.23134 21.232 7.27016 21.2717 7.33426 21.2717C7.39836 21.2717 7.43628 21.2347 7.43628 21.1417V20.8465H7.58705V21.1462C7.57892 21.2862 7.45795 21.3936 7.31801 21.3855C7.18891 21.3773 7.08599 21.2753 7.07877 21.1462Z" fill="#E0E0E0"/>
<path d="M8.17843 21.0469C8.17843 21.1697 8.08815 21.2464 7.93739 21.2464H7.84711V21.3882H7.69363V20.8465H7.941C8.08545 20.8465 8.17843 20.9205 8.17843 21.0469ZM8.02315 21.0469C8.02315 20.9964 7.99155 20.9675 7.93287 20.9675H7.84801V21.1255H7.93287C7.99155 21.1255 8.02315 21.1011 8.02315 21.0469Z" fill="#E0E0E0"/>
<path d="M8.48452 20.8465H8.6371V21.3882H8.48452V20.8465Z" fill="#E0E0E0"/>
<path d="M9.26092 20.8465V21.3882H9.13543L8.89618 21.0993V21.3882H8.74632V20.8465H8.87271L9.11105 21.1354V20.8465H9.26092Z" fill="#E0E0E0"/>
<path d="M9.33593 21.0487C9.33593 20.9991 9.37655 20.9584 9.42621 20.9584C9.47586 20.9584 9.51649 20.9991 9.51649 21.0487C9.51649 21.0984 9.47586 21.139 9.42621 21.139C9.37926 21.1417 9.33863 21.1065 9.33593 21.0596C9.33593 21.056 9.33593 21.0523 9.33593 21.0487ZM9.33593 21.3069C9.34676 21.2582 9.39551 21.2275 9.44426 21.2392C9.47766 21.2473 9.50475 21.2735 9.51197 21.3069C9.50114 21.3557 9.45239 21.3864 9.40364 21.3746C9.37023 21.3674 9.34405 21.3403 9.33593 21.3069Z" fill="#E0E0E0"/>
<path d="M13.2568 24.4017C13.2568 24.4144 12.5905 24.4252 11.7681 24.4252C10.9456 24.4252 10.2793 24.4144 10.2793 24.4017C10.2793 24.3891 10.9456 24.3783 11.7681 24.3783C12.5905 24.3783 13.2568 24.3882 13.2568 24.4017Z" fill="#263238"/>
<path d="M13.2568 25.0779C13.2568 25.0905 12.5905 25.1014 11.7681 25.1014C10.9456 25.1014 10.2793 25.0905 10.2793 25.0779C10.2793 25.0653 10.9456 25.0544 11.7681 25.0544C12.5905 25.0544 13.2568 25.0644 13.2568 25.0779Z" fill="#263238"/>
<path d="M12.0317 25.7541C11.7401 25.7776 11.4485 25.7848 11.156 25.7776C10.8635 25.7848 10.5709 25.7776 10.2793 25.7541C10.5709 25.7306 10.8635 25.7225 11.156 25.7306C11.4485 25.7225 11.7401 25.7306 12.0317 25.7541Z" fill="#263238"/>
<path d="M10.9131 7.70898C10.9131 7.72162 10.3714 7.73245 9.70691 7.73245C9.04245 7.73245 8.50078 7.72162 8.50078 7.70898C8.50078 7.69634 9.04245 7.6855 9.70691 7.6855C10.3714 7.6855 10.9131 7.69544 10.9131 7.70898Z" fill="#263238"/>
<path d="M10.4048 8.36078C10.4048 8.37342 9.97866 8.38425 9.45323 8.38425C8.9278 8.38425 8.50078 8.37342 8.50078 8.36078C8.81766 8.33731 9.13544 8.32918 9.45323 8.33731C9.77101 8.32918 10.0879 8.33731 10.4048 8.36078Z" fill="#263238"/>
<path d="M12.2916 8.62713V8.77519H12.1291V8.63255C12.0099 8.62804 11.8944 8.59283 11.7924 8.53144L11.8826 8.33733C11.9747 8.39511 12.0813 8.42671 12.1896 8.42761C12.2988 8.42761 12.3413 8.39692 12.3413 8.35178C12.3413 8.20462 11.8122 8.31206 11.8122 7.96628C11.8122 7.82003 11.917 7.69544 12.1327 7.67017V7.52391H12.2916V7.66746C12.3864 7.67288 12.4794 7.69996 12.5625 7.746L12.4812 7.94101C12.4027 7.89587 12.3142 7.87149 12.2239 7.86878C12.1138 7.86878 12.0731 7.9067 12.0731 7.95274C12.0731 8.09538 12.6013 7.98885 12.6013 8.33192C12.6004 8.47456 12.4993 8.59644 12.2916 8.62713Z" fill="#263238"/>
<path d="M13.1519 8.62713V8.77519H12.993V8.63255C12.8738 8.62804 12.7583 8.59283 12.6563 8.53144L12.7466 8.33733C12.8386 8.39511 12.9452 8.42671 13.0535 8.42761C13.1627 8.42761 13.2052 8.39692 13.2052 8.35178C13.2052 8.20462 12.6761 8.31206 12.6761 7.96628C12.6761 7.82003 12.7809 7.69544 12.9966 7.67017V7.52391H13.1555V7.66746C13.2503 7.67288 13.3433 7.69996 13.4264 7.746L13.3451 7.94101C13.2666 7.89587 13.1781 7.87149 13.0878 7.86878C12.9777 7.86878 12.937 7.9067 12.937 7.95274C12.937 8.09538 13.4652 7.98885 13.4652 8.33192C13.4607 8.47456 13.3596 8.59644 13.1519 8.62713Z" fill="#263238"/>
<path d="M5.88988 7.11678H7.43818C7.6693 7.11678 7.85708 7.30456 7.85708 7.53568V9.08397C7.85708 9.31509 7.6693 9.50287 7.43818 9.50287H5.88988C5.65876 9.50287 5.47098 9.31509 5.47098 9.08397V7.53568C5.47098 7.30456 5.65876 7.11678 5.88988 7.11678Z" fill="#FDB812"/>
<path d="M6.93519 8.9422H6.38809C6.36642 8.9422 6.34746 8.92686 6.34295 8.90519L6.18586 8.06739C6.18135 8.04302 6.1976 8.01954 6.22198 8.01503C6.22468 8.01413 6.22739 8.01413 6.2301 8.01413H7.09227C7.11755 8.01413 7.13741 8.03489 7.13741 8.05927C7.13741 8.06197 7.13741 8.06468 7.13651 8.06739L6.98303 8.90519C6.97852 8.92776 6.95776 8.94311 6.93519 8.9422ZM6.4251 8.85192H6.89727L7.0381 8.10441H6.28517L6.4251 8.85192Z" fill="white"/>
<path d="M7.22054 8.08003H6.06947C6.0451 8.07912 6.02523 8.05926 6.02433 8.03489C6.02433 8.00961 6.04419 7.98975 6.06947 7.98975H7.22054C7.24582 7.98975 7.26568 8.00961 7.26568 8.03489C7.26568 8.06016 7.24582 8.08003 7.22054 8.08003Z" fill="white"/>
<path d="M6.19222 8.08006C6.1868 8.08096 6.18139 8.08096 6.17597 8.08006C6.1534 8.07193 6.14076 8.04666 6.14979 8.02318V8.02228L6.26806 7.71172C6.27618 7.69186 6.29604 7.68012 6.31771 7.68283L7.00384 7.78755C7.01919 7.79026 7.03273 7.80019 7.03905 7.81464L7.11759 7.9952C7.12752 8.01777 7.11759 8.04485 7.09412 8.05478C7.07155 8.06471 7.04446 8.05478 7.03453 8.03131L6.96592 7.87242L6.33938 7.77672L6.23465 8.05388C6.22653 8.07013 6.21028 8.08006 6.19222 8.08006Z" fill="white"/>
<path d="M6.79096 8.38065C6.7729 8.34905 6.73498 8.3346 6.70068 8.34724C6.66908 8.35808 6.64019 8.37613 6.61672 8.40051C6.59144 8.42398 6.57699 8.45648 6.57519 8.49079C6.57248 8.52419 6.59144 8.55669 6.62123 8.57204C6.66276 8.58558 6.7088 8.57385 6.7395 8.54315C6.76387 8.52509 6.78373 8.49982 6.79457 8.47093C6.80991 8.44204 6.80811 8.40773 6.79096 8.38065Z" fill="white"/>
<path d="M6.59144 8.57298C6.58873 8.57388 6.58602 8.57388 6.58332 8.57298C6.5788 8.56847 6.5788 8.56124 6.58332 8.55673C6.62755 8.50978 6.6754 8.46465 6.72506 8.42312C6.72957 8.41951 6.73679 8.4195 6.74131 8.42402C6.74582 8.42853 6.74492 8.43576 6.7404 8.44027C6.69165 8.4818 6.64471 8.53055 6.60047 8.57208C6.59686 8.57298 6.59415 8.57388 6.59144 8.57298Z" fill="#FDB812"/>
<path d="M3.67344 5.47998H3.49288V18.9046H3.67344V5.47998Z" fill="#FDB812"/>
<path d="M3.5326 5.85193L3.11099 5.49894C3.10557 5.49352 3.10557 5.4854 3.11009 5.47998L3.11099 5.47908L3.22203 5.34637C3.22745 5.34095 3.23558 5.34095 3.24099 5.34546L3.2419 5.34637L3.51274 5.57658C3.51815 5.582 3.52718 5.582 3.5326 5.57658L3.96775 5.11254C3.97407 5.10713 3.98219 5.10713 3.98851 5.11254L4.114 5.23081C4.11942 5.23623 4.11942 5.24435 4.1149 5.24977L4.114 5.25067L3.55246 5.85013C3.54704 5.85555 3.53892 5.85645 3.5326 5.85193Z" fill="white"/>
<path d="M3.5326 13.6223L3.11099 13.2702C3.10557 13.2648 3.10557 13.2567 3.11009 13.2513L3.11099 13.2504L3.22203 13.1176C3.22745 13.1122 3.23558 13.1122 3.24099 13.1167L3.2419 13.1176L3.51274 13.3479C3.51815 13.3533 3.52718 13.3533 3.5326 13.3479L3.97045 12.8856C3.97677 12.8802 3.9849 12.8802 3.99122 12.8856L4.11671 13.0039C4.12212 13.0093 4.12212 13.0174 4.11761 13.0229L4.11671 13.0238L3.55246 13.6214C3.54885 13.6268 3.54072 13.6286 3.5344 13.6241C3.5344 13.6241 3.5335 13.6232 3.5326 13.6223Z" fill="white"/>
<path d="M3.67344 18.4821H3.49288V21.2419H3.67344V18.4821Z" fill="#E0E0E0"/>
<path d="M4.12665 21.0154C4.12665 21.3142 3.8838 21.557 3.58498 21.557C3.28615 21.557 3.0433 21.3142 3.0433 21.0154C3.0433 20.7165 3.28615 20.4737 3.58498 20.4737C3.8838 20.4737 4.12665 20.7165 4.12665 21.0154Z" fill="#E0E0E0"/>
<path d="M29.5531 9.22475C28.1294 10.318 27.8621 12.3593 28.9563 13.7821C29.4953 14.4844 30.2979 14.9358 31.1781 15.0324L31.7523 15.9551L32.3066 14.962C34.049 14.5314 35.1125 12.7691 34.6819 11.0267C34.2512 9.28433 32.489 8.22083 30.7466 8.65147C30.3141 8.7589 29.9079 8.95391 29.5531 9.22475Z" fill="white"/>
<path d="M29.5531 9.22477L29.5974 9.19137L29.7337 9.09386L29.8321 9.02525L29.9594 8.95393L30.1065 8.87087L30.2871 8.79323C30.427 8.73365 30.5697 8.68309 30.7159 8.64156L30.9696 8.58649C31.0148 8.57656 31.0599 8.56934 31.1059 8.56573L31.2486 8.54948C32.5513 8.42308 33.8026 9.09025 34.4237 10.2431C34.4634 10.3099 34.4978 10.3794 34.5275 10.4508C34.5573 10.5221 34.5889 10.5943 34.6178 10.6665C34.6711 10.8173 34.7144 10.9717 34.7469 11.1288C34.8869 11.7977 34.8155 12.4929 34.5438 13.1194C34.2432 13.7902 33.7286 14.3427 33.0813 14.6912C32.8384 14.8203 32.5793 14.9187 32.3121 14.9828L32.3274 14.972L31.7722 15.9651L31.7532 15.9994L31.7325 15.966C31.5366 15.6491 31.3443 15.3403 31.1583 15.0406L31.1755 15.0514C30.3738 14.9639 29.6335 14.5811 29.099 13.9771C29.0169 13.8868 28.941 13.7911 28.8733 13.6891L28.7704 13.541C28.7379 13.4914 28.7126 13.4381 28.6801 13.3867C28.4662 13.0021 28.3334 12.5769 28.2892 12.139C28.2513 11.7625 28.2784 11.3825 28.3687 11.015C28.3921 10.932 28.4147 10.8516 28.4373 10.7731L28.523 10.551C28.5492 10.4815 28.579 10.4138 28.6133 10.3479C28.6476 10.2847 28.6747 10.2197 28.7117 10.1673C28.8291 9.97048 28.9654 9.78541 29.1207 9.61658L29.294 9.43602L29.4331 9.31956L29.5179 9.24914L29.5477 9.22657L29.5206 9.25276L29.4376 9.32588L29.3021 9.44415L29.1315 9.62471C28.9826 9.79534 28.8517 9.98041 28.7406 10.1772C28.7045 10.2332 28.6783 10.2982 28.6449 10.3578C28.6106 10.4228 28.5799 10.4905 28.5546 10.56L28.4707 10.7803C28.449 10.8579 28.4273 10.9383 28.4048 11.0204C28.3172 11.3852 28.2919 11.7625 28.3307 12.1354C28.3759 12.5696 28.5104 12.9903 28.7244 13.3713C28.7532 13.421 28.7785 13.4742 28.8146 13.523L28.9158 13.6683C28.9835 13.7686 29.0584 13.8642 29.1396 13.9536C29.3076 14.1405 29.4953 14.3066 29.7012 14.4511C30.1399 14.7562 30.6473 14.9476 31.1782 15.0099H31.189L31.1953 15.0198L31.7704 15.9443H31.7307L32.2841 14.9512L32.2895 14.9422H32.2994C33.9976 14.5332 35.0611 12.8468 34.6991 11.1387C34.6666 10.9843 34.625 10.8318 34.5727 10.6828L34.4824 10.4697C34.4544 10.3984 34.4201 10.3298 34.3804 10.2648C33.9868 9.53082 33.325 8.97831 32.5324 8.72191C32.1162 8.5892 31.6774 8.54045 31.2414 8.57746L31.1005 8.59281C31.0545 8.59552 31.0093 8.60274 30.9651 8.61267L30.7123 8.66504C30.567 8.70476 30.4243 8.75351 30.2853 8.81129L30.1047 8.88712L29.9567 8.96747L29.8294 9.03699L29.7301 9.10379L29.5947 9.19407L29.5531 9.22477Z" fill="#263238"/>
<path d="M31.6179 13.7992C30.5734 13.727 29.7852 12.8215 29.8575 11.777C29.9225 10.8326 30.6745 10.0815 31.6179 10.0165C32.1343 10.0147 32.629 10.2278 32.9838 10.6033C33.0181 10.6394 33.0172 10.6963 32.9802 10.7315C32.9432 10.7667 32.8872 10.7649 32.852 10.7279C32.5315 10.3875 32.0847 10.1953 31.617 10.1971C30.6736 10.1953 29.908 10.959 29.9062 11.9024C29.9044 12.8459 30.6682 13.6114 31.6116 13.6132C32.555 13.6151 33.3206 12.8513 33.3224 11.9079C33.3224 11.7219 33.2926 11.5368 33.233 11.3599C33.2168 11.3129 33.2429 11.2615 33.2899 11.2452C33.3368 11.229 33.3883 11.2551 33.4045 11.3021C33.7368 12.2952 33.2005 13.3695 32.2074 13.7017C32.0178 13.7649 31.8192 13.7983 31.6179 13.7992Z" fill="#455A64"/>
<path d="M33.5714 11.3382C33.5714 11.4881 33.4504 11.609 33.3005 11.609C33.1507 11.609 33.0297 11.4881 33.0297 11.3382C33.0297 11.1883 33.1507 11.0674 33.3005 11.0674C33.3023 11.0674 33.3032 11.0674 33.305 11.0674C33.4531 11.0701 33.5714 11.1901 33.5714 11.3382Z" fill="#455A64"/>
<path d="M31.5393 12.5769L30.7827 11.9449C30.7728 11.935 30.7728 11.9187 30.7827 11.9088L30.9822 11.6705C30.9922 11.6605 31.0084 11.6605 31.0184 11.6705L31.5131 12.0857C31.523 12.0957 31.5384 12.0957 31.5483 12.0857L32.3301 11.2507C32.34 11.2407 32.3563 11.2407 32.3662 11.2507L32.5928 11.4637C32.6028 11.4745 32.6028 11.4899 32.5928 11.5007L31.5772 12.5841C31.5654 12.5931 31.5492 12.5904 31.5402 12.5787C31.5402 12.5778 31.5393 12.5778 31.5393 12.5769Z" fill="#455A64"/>
<path d="M14.6733 33.2284C14.6264 33.3683 16.0112 38.9765 16.0112 38.9765H19.3805L19.5132 33.65L14.6733 33.2284Z" fill="#AE7461"/>
<path d="M20.796 33.65C20.8429 33.9299 22.6251 38.9765 22.6251 38.9765L26.3906 38.9711L25.3226 33.2311L20.796 33.65Z" fill="#AE7461"/>
<path d="M15.4387 22.1321C14.8212 22.7975 14.4068 23.6262 14.2452 24.5191C14.1549 24.9967 13.8227 26.0042 13.8462 27.8315C13.8841 30.799 14.0105 35.0674 14.0105 35.0674C18.0397 35.2949 22.0788 35.2949 26.108 35.0674C26.108 35.0674 23.8988 24.2889 22.9978 22.9211L22.6114 21.9768L15.4387 22.1321Z" fill="#263238"/>
<path d="M15.4389 22.1321L15.5635 22.1276L15.9327 22.1168L17.3555 22.0816L22.6152 21.9597H22.627L22.6315 21.9705L23.0179 22.9139C23.1271 23.1035 23.2201 23.3012 23.2941 23.5071L23.4088 23.8213C23.444 23.9278 23.4801 24.0352 23.5162 24.1427C23.6562 24.5769 23.7871 25.0283 23.9153 25.4923C24.1717 26.4213 24.4172 27.4054 24.6646 28.4328C25.1557 30.4893 25.6486 32.721 26.1361 35.0647L26.1416 35.0918H26.1145C25.376 35.1333 24.5915 35.1703 23.7979 35.1983C20.2842 35.3211 16.9502 35.2579 14.0098 35.09H13.9908V35.0701C13.9475 33.1038 13.9077 31.2901 13.8725 29.6759C13.8635 29.2724 13.8545 28.8814 13.8463 28.5023C13.8391 28.1249 13.8265 27.7602 13.8346 27.4081C13.8436 26.7626 13.9077 26.1198 14.0251 25.4851C14.0793 25.198 14.1443 24.9281 14.2057 24.6726L14.2869 24.3025C14.3131 24.1824 14.3492 24.0695 14.3772 23.9594C14.4955 23.592 14.6544 23.239 14.8512 22.9067C14.9757 22.7009 15.1148 22.5041 15.2692 22.319C15.3224 22.2558 15.3784 22.1953 15.4389 22.1384L15.3955 22.1854C15.3685 22.2161 15.3269 22.2621 15.2746 22.3253C15.1229 22.5122 14.9857 22.709 14.8629 22.9158C14.6679 23.2489 14.5108 23.6037 14.3943 23.972C14.3637 24.0813 14.3284 24.1941 14.3041 24.3133C14.2797 24.4325 14.2517 24.5561 14.2246 24.6834C14.1668 24.938 14.1018 25.2071 14.0495 25.496C13.9357 26.1288 13.8752 26.7707 13.8689 27.4144C13.8617 27.7647 13.8752 28.1294 13.8834 28.5077C13.8915 28.886 13.9014 29.276 13.9113 29.6813C13.9493 31.2955 13.9908 33.112 14.0368 35.0755L14.017 35.0548C16.9565 35.2191 20.2887 35.2814 23.8006 35.1586C24.5942 35.1306 25.3778 35.0936 26.1163 35.053L26.0946 35.081C25.608 32.7337 25.116 30.5056 24.6267 28.4499C24.3811 27.4216 24.1355 26.4376 23.8809 25.5095C23.7528 25.0446 23.6237 24.5941 23.4846 24.1607C23.4485 24.0533 23.4133 23.9458 23.3781 23.8393C23.3429 23.7328 23.3023 23.6299 23.2643 23.526C23.1912 23.3229 23.1009 23.1261 22.9935 22.9392C22.8581 22.6088 22.7272 22.2865 22.608 21.9949L22.6243 22.0057L17.3655 22.0996L15.9408 22.1267L15.5698 22.1321H15.4389Z" fill="#455A64"/>
<path d="M20.3761 34.1827C20.3661 34.161 20.3571 34.1384 20.3499 34.1158L20.2849 33.9217C20.2289 33.752 20.1468 33.5083 20.042 33.2076C19.8326 32.6064 19.5229 31.783 19.1347 30.8929C18.7465 30.0027 18.3511 29.2164 18.0514 28.6539C17.9024 28.3731 17.7805 28.1465 17.6903 27.9913L17.5918 27.8107C17.5792 27.7908 17.5693 27.7692 17.5612 27.7466C17.5756 27.7656 17.5882 27.7854 17.6 27.8062C17.6271 27.8504 17.6623 27.9082 17.7056 27.9867C17.7959 28.1393 17.925 28.3632 18.0776 28.6431C18.3845 29.2019 18.7835 29.9874 19.1726 30.8793C19.5618 31.7713 19.8669 32.5946 20.0691 33.2013C20.1702 33.5037 20.2497 33.7493 20.2975 33.9236C20.321 34.0057 20.3409 34.0707 20.3544 34.1204C20.3634 34.1402 20.3707 34.161 20.3761 34.1827Z" fill="#455A64"/>
<path d="M20.5993 27.1571C20.611 27.1625 20.4187 27.6085 20.1705 28.1583C19.9222 28.7081 19.7127 29.1451 19.6992 29.136C19.6857 29.127 19.8798 28.6846 20.128 28.1357C20.3763 27.5868 20.5876 27.1499 20.5993 27.1571Z" fill="#455A64"/>
<path d="M15.8081 6.02983C15.3242 6.50741 15.1048 7.19173 15.2213 7.86161C15.2791 8.1812 15.4063 8.53871 15.2213 8.80594C15.0362 9.07316 14.6317 9.10567 14.4593 9.3765C14.2562 9.69519 14.4972 10.1132 14.4512 10.4888C14.3943 10.8508 14.0837 11.1189 13.7172 11.1207C14.1659 11.4141 14.6859 11.5793 15.2222 11.5965L15.5716 11.0377C15.437 11.2345 15.5075 11.5188 15.6754 11.6886C15.8433 11.8583 16.0807 11.935 16.3137 11.9838C17.4485 12.2086 18.623 11.8899 19.4897 11.1243" fill="#263238"/>
<path d="M22.1501 8.24527C22.0445 8.00693 21.8856 7.79387 21.8043 7.5447C21.6319 7.01114 21.8341 6.37106 21.5181 5.90702C21.2942 5.5766 20.8753 5.4475 20.4835 5.36534C20.0917 5.28319 19.671 5.23083 19.3632 4.98165C19.1348 4.80109 18.9876 4.53026 18.7592 4.3497C18.4351 4.08788 17.9891 4.03462 17.5729 4.05177C17.1567 4.06893 16.7098 4.15559 16.3469 4.3831C15.984 4.6106 15.7032 4.9952 15.6779 5.42312C15.6662 5.63167 15.714 5.84383 15.6698 6.04786C15.6211 6.27266 15.4676 6.45863 15.3836 6.6726C15.2121 7.14295 15.38 7.66928 15.7926 7.95367L19.1013 11.4213C19.7387 11.5892 21.1958 11.1559 21.6229 10.6539C22.0499 10.152 22.4209 8.84744 22.1501 8.24527Z" fill="#263238"/>
<path d="M15.819 7.46884C15.8506 6.60125 16.3968 5.5215 17.2635 5.59011L19.9836 6.1995C20.2463 6.22027 20.4503 6.43965 20.4521 6.70327L20.6517 13.0572C20.6688 13.0472 20.6896 13.0526 20.6995 13.0698C20.7058 13.0806 20.7058 13.0951 20.6995 13.1059C20.4287 13.5961 19.1512 15.7502 17.5551 15.2988C17.1939 15.1977 17.4648 14.0791 17.3835 13.6837L17.323 12.6572C17.3032 12.1327 17.2978 11.9169 17.2969 11.9214C17.296 11.926 16.1846 11.7671 15.9174 10.328C15.7793 9.61208 15.7838 8.43303 15.819 7.46884Z" fill="#AE7461"/>
<path d="M16.3262 8.69756C16.3262 8.79687 16.4074 8.87812 16.5067 8.87812C16.6051 8.88173 16.6891 8.80499 16.6936 8.70659C16.6909 8.60818 16.6115 8.52874 16.5131 8.52603C16.4147 8.52242 16.3307 8.59915 16.3262 8.69756Z" fill="#263238"/>
<path d="M18.148 8.75807C18.148 8.85738 18.2293 8.93863 18.3286 8.93863C18.427 8.94224 18.5109 8.8655 18.5154 8.7671C18.5154 8.66779 18.4342 8.58654 18.3349 8.58654C18.2365 8.58293 18.1525 8.65967 18.148 8.75807Z" fill="#263238"/>
<path d="M16.0166 8.10083C16.0401 8.13243 16.1972 8.00604 16.4166 8.01055C16.636 8.01507 16.7867 8.15229 16.812 8.1225C16.8246 8.10896 16.8021 8.05299 16.7353 7.99069C16.6486 7.91305 16.5376 7.86791 16.4211 7.8634C16.3046 7.85979 16.1909 7.8977 16.0997 7.96993C16.0302 8.03222 16.0049 8.08729 16.0166 8.10083Z" fill="#263238"/>
<path d="M17.9494 8.12702C17.9783 8.15501 18.1299 8.01598 18.3647 8.00153C18.5994 7.98709 18.7736 8.10084 18.7962 8.06924C18.8079 8.0548 18.7782 8.00244 18.7005 7.94917C18.5976 7.88236 18.4757 7.84986 18.3529 7.85889C18.2311 7.86702 18.1155 7.91486 18.0243 7.99612C17.9566 8.05841 17.9358 8.11438 17.9494 8.12702Z" fill="#263238"/>
<path d="M17.3653 9.55791C17.2588 9.52812 17.1496 9.51187 17.0394 9.50825C16.9889 9.50825 16.9401 9.49562 16.9302 9.46131C16.9248 9.40895 16.9356 9.35568 16.9609 9.30874L17.1035 8.91331C17.2985 8.35628 17.4376 7.89766 17.415 7.89044C17.3924 7.88322 17.2164 8.3283 17.0223 8.88352C16.9753 9.02074 16.932 9.15436 16.8878 9.27714C16.858 9.33943 16.8508 9.41075 16.867 9.47846C16.8842 9.51548 16.9176 9.54256 16.9573 9.55069C16.9871 9.55791 17.0169 9.56062 17.0476 9.55971C17.1532 9.57235 17.2597 9.57145 17.3653 9.55791Z" fill="#263238"/>
<path d="M17.2924 11.9215C17.9731 11.9125 18.6384 11.7156 19.2144 11.3509C19.2144 11.3509 18.7549 12.3774 17.305 12.2808L17.2924 11.9215Z" fill="#6F4439"/>
<path d="M18.0316 10.0734C18.0036 10.0274 17.9639 9.98949 17.917 9.96331C17.861 9.94345 17.8005 9.94345 17.7445 9.96331C17.6606 9.98497 17.5865 10.0337 17.5315 10.1005C17.4782 10.17 17.4665 10.263 17.4999 10.3434C17.5306 10.4237 17.6588 10.4562 17.7445 10.4626C17.8312 10.4653 17.9161 10.4373 17.9856 10.3849C18.0506 10.3479 18.0921 10.2793 18.0948 10.2044C18.0867 10.1556 18.0641 10.1105 18.0316 10.0734Z" fill="#6F4439"/>
<path d="M17.9621 9.79899C17.9296 9.79899 17.9351 10.0139 17.7536 10.1727C17.5721 10.3316 17.341 10.3136 17.3401 10.3443C17.3401 10.3578 17.3925 10.3849 17.49 10.3849C17.6173 10.3831 17.7391 10.3371 17.8357 10.254C17.9278 10.1746 17.9856 10.0617 17.9964 9.94073C18.0019 9.85045 17.9766 9.79719 17.9621 9.79899Z" fill="#263238"/>
<path d="M17.9069 7.59076C17.9277 7.64493 18.1263 7.61333 18.3583 7.6359C18.5904 7.65847 18.7836 7.71625 18.8097 7.6666C18.8233 7.64312 18.789 7.59347 18.7113 7.54291C18.6084 7.47972 18.492 7.4427 18.3719 7.43367C18.2518 7.42284 18.1299 7.43999 18.018 7.48423C17.9358 7.52124 17.8943 7.56548 17.9069 7.59076Z" fill="#263238"/>
<path d="M16.1384 7.2883C16.1799 7.33254 16.3352 7.28108 16.5239 7.27386C16.7126 7.26663 16.8733 7.29552 16.9094 7.24677C16.9247 7.2233 16.8985 7.17906 16.8272 7.13753C16.6286 7.03732 16.393 7.04996 16.2061 7.17094C16.1411 7.21427 16.1203 7.26212 16.1384 7.2883Z" fill="#263238"/>
<path d="M20.5802 6.34581C20.4268 6.15622 20.1785 6.07497 19.9429 6.01177C18.9254 5.73551 17.8782 5.58114 16.8237 5.55225C16.7163 5.77885 16.8661 6.05691 17.0774 6.19233C17.2886 6.32775 17.5459 6.36206 17.7888 6.42525C18.0316 6.48845 18.2853 6.59859 18.4054 6.81887C18.5327 7.0527 18.4767 7.35152 18.5923 7.59257C18.7918 8.00605 19.4048 8.08189 19.6025 8.49537C19.7515 8.80954 19.6025 9.17518 19.5872 9.52185C19.5628 10.2062 20.0981 10.7813 20.7825 10.8056C20.8357 10.8074 20.8881 10.8056 20.9414 10.8011C20.8845 9.56157 20.8285 8.32203 20.7716 7.08159C20.7617 6.82429 20.7427 6.54713 20.5802 6.34581Z" fill="#263238"/>
<path d="M23.3862 9.20226C23.1732 9.04788 22.9141 8.9224 22.8102 8.68045C22.6595 8.32926 22.9078 7.86793 22.6848 7.56007C22.4825 7.27569 21.9788 7.3434 21.7874 7.0509C21.6375 6.82339 21.7585 6.59498 21.6899 6.38824C21.6213 6.1815 21.3008 6.02712 21.0877 6.07497L19.6577 8.69309C19.5864 9.52727 19.4771 9.97957 19.6992 10.44C19.8229 10.6928 19.9746 10.9356 20.0414 11.2092C20.1082 11.4827 20.0694 11.8032 19.8608 11.991C20.8756 11.9657 21.7639 11.341 22.5827 10.7415L23.4494 10.1096C23.5451 10.0509 23.6246 9.96964 23.6805 9.87214C23.7916 9.62748 23.5948 9.35664 23.3862 9.20226Z" fill="#263238"/>
<path d="M22.5809 10.4878C22.5475 10.5022 22.5123 10.5131 22.4762 10.5194C22.3724 10.5411 22.2659 10.5447 22.1602 10.5302C21.9923 10.5077 21.8334 10.4418 21.6989 10.3397C21.5201 10.2007 21.3965 10.003 21.3495 9.78091C21.3215 9.65271 21.3197 9.52091 21.3432 9.39181C21.3748 9.25458 21.4245 9.12187 21.4913 8.99819C21.5617 8.87089 21.6131 8.73276 21.6438 8.59012C21.6763 8.44206 21.6402 8.28768 21.5454 8.16942C21.4416 8.05657 21.2683 8.04393 21.104 7.99698C21.0155 7.97532 20.9342 7.92747 20.8728 7.85976C20.8151 7.78663 20.7808 7.69635 20.7762 7.60336C20.7591 7.4228 20.8205 7.24224 20.8367 7.0671C20.8476 6.98043 20.8385 6.89286 20.8115 6.8098C20.7808 6.72945 20.7212 6.66174 20.6453 6.62112C20.4892 6.53084 20.3023 6.53084 20.1217 6.53806C19.9384 6.5507 19.7543 6.51639 19.5873 6.43875C19.4266 6.36111 19.2902 6.24104 19.1927 6.09118C19.1088 5.94492 19.0474 5.78693 19.0122 5.62172C18.9788 5.47005 18.93 5.32199 18.8668 5.18025C18.8018 5.05115 18.7088 4.9383 18.596 4.84802C18.2078 4.54197 17.6661 4.52211 17.2571 4.79927C17.119 4.88865 16.998 5.0024 16.9005 5.13421C16.8184 5.24887 16.7498 5.37255 16.6965 5.50255C16.6974 5.49352 16.6992 5.4845 16.7028 5.47547C16.7091 5.45741 16.7164 5.43123 16.7308 5.39783C16.7687 5.30033 16.8175 5.20734 16.878 5.12157C16.9764 4.98435 17.0982 4.86608 17.2391 4.77219C17.4242 4.64489 17.6417 4.57267 17.8665 4.56364C18.1401 4.55732 18.4082 4.64399 18.6258 4.81011C18.7468 4.90309 18.8461 5.02226 18.9156 5.15768C18.9824 5.30213 19.0329 5.4538 19.0681 5.60908C19.1025 5.76797 19.162 5.92055 19.2433 6.06048C19.3354 6.20132 19.4645 6.31326 19.6161 6.38639C19.7759 6.45861 19.9511 6.49021 20.1253 6.47667C20.3059 6.47667 20.5027 6.46855 20.6778 6.56695C20.7663 6.6148 20.834 6.69244 20.8701 6.78633C20.9008 6.87751 20.9108 6.97411 20.8981 7.06981C20.8801 7.25037 20.8214 7.43093 20.8376 7.59524C20.8412 7.67649 20.8701 7.75503 20.9198 7.82003C20.9749 7.87962 21.0453 7.92115 21.1238 7.94011C21.2024 7.96358 21.2854 7.97712 21.3667 8.0024C21.4506 8.02407 21.5274 8.0674 21.5888 8.12969C21.6944 8.2606 21.7341 8.43213 21.698 8.59554C21.6664 8.7436 21.6122 8.88534 21.5382 9.01714C21.4732 9.13722 21.4235 9.26541 21.391 9.39813C21.3667 9.52091 21.3667 9.6473 21.391 9.77008C21.4335 9.98314 21.549 10.1754 21.7188 10.3118C21.8479 10.4138 22.0013 10.4806 22.1638 10.505C22.3029 10.5257 22.4446 10.5203 22.5809 10.4878Z" fill="#455A64"/>
<path d="M23.7435 8.61448C23.7634 8.63705 23.7779 8.66414 23.786 8.69303C23.8113 8.77699 23.8049 8.86817 23.7679 8.94762C23.7426 9.0063 23.7038 9.05685 23.6533 9.09567C23.5928 9.14172 23.5206 9.1697 23.4447 9.17602C23.256 9.19227 23.0746 9.10109 22.9744 8.9413C22.9175 8.85102 22.8823 8.749 22.8723 8.64247C22.8633 8.52781 22.876 8.41226 22.9085 8.30211C22.9653 8.07642 23.089 7.85072 23.0655 7.59432C23.0628 7.46703 23.0078 7.34605 22.913 7.26029C22.8019 7.18716 22.6665 7.15917 22.5356 7.18355C22.3903 7.21063 22.2404 7.21063 22.095 7.18355C22.0174 7.16098 21.9497 7.11494 21.9 7.05174C21.8522 6.98764 21.8197 6.91451 21.8034 6.83687C21.7809 6.68701 21.7782 6.53534 21.7935 6.38547C21.8007 6.24554 21.7782 6.1047 21.7276 5.9738C21.6283 5.72372 21.4378 5.5215 21.1949 5.40774C20.9638 5.29851 20.7101 5.31024 20.4808 5.31746C20.2642 5.34003 20.0457 5.3292 19.8335 5.28316C19.5266 5.20371 19.2575 5.01864 19.0725 4.76044C19.0039 4.66835 18.9524 4.56363 18.9199 4.45349C18.9677 4.55641 19.0255 4.65481 19.0914 4.7469C19.2774 4.99426 19.5428 5.17121 19.8426 5.24795C20.0502 5.28948 20.2642 5.29851 20.4745 5.27413C20.7038 5.26239 20.9665 5.24705 21.2139 5.36441C21.4712 5.48268 21.6725 5.69574 21.7773 5.95845C21.8314 6.09658 21.8558 6.24554 21.8486 6.3936C21.8332 6.53895 21.8368 6.68611 21.8576 6.83055C21.8775 6.97049 21.9741 7.08785 22.1077 7.13389C22.2467 7.15737 22.3875 7.15737 22.5266 7.13389C22.6719 7.10771 22.8227 7.14021 22.9446 7.22417C23.0511 7.31987 23.1125 7.45529 23.1161 7.59793C23.1233 7.72794 23.1053 7.85884 23.0628 7.98252C23.0258 8.10169 22.9825 8.21274 22.9518 8.32288C22.9193 8.4276 22.9067 8.53684 22.9139 8.64608C22.922 8.74539 22.9527 8.84108 23.0042 8.92685C23.0953 9.07581 23.2624 9.16248 23.4366 9.15074C23.507 9.14623 23.5738 9.12276 23.6316 9.08213C23.6785 9.04602 23.7165 8.99907 23.7417 8.94581C23.7779 8.87088 23.7878 8.78601 23.7688 8.70476C23.7625 8.67407 23.7535 8.64428 23.7435 8.61448Z" fill="#263238"/>
<path d="M13.2 10.3145C13.181 10.4029 13.1918 10.4959 13.2307 10.5772C13.2749 10.672 13.3598 10.7424 13.4618 10.7677C13.599 10.7939 13.7389 10.7397 13.8229 10.6286C13.8698 10.5655 13.8924 10.4869 13.8879 10.4084C13.8816 10.3217 13.859 10.2368 13.8229 10.1574C13.7516 9.99308 13.6234 9.81884 13.6171 9.59495C13.608 9.36473 13.6974 9.14264 13.8626 8.98195C13.9484 8.89799 14.0495 8.83118 14.1596 8.78423C14.2725 8.73819 14.3917 8.7084 14.5126 8.69395C14.6291 8.68041 14.7447 8.65604 14.8566 8.62083C14.9622 8.58742 15.0516 8.51791 15.1103 8.42492C15.1608 8.33103 15.1843 8.2236 15.1771 8.11707C15.1717 8.01234 15.1527 7.90852 15.1193 7.80921C15.057 7.6124 14.9767 7.42281 14.9676 7.22961C14.9586 7.05176 15.0038 6.87481 15.0967 6.72224C15.1762 6.60036 15.2773 6.49474 15.3965 6.41168C15.4822 6.34848 15.5635 6.27897 15.6393 6.20313C15.7016 6.13723 15.7504 6.05869 15.7829 5.97382C15.7829 5.97382 15.7829 5.98014 15.7829 5.99188C15.7793 6.00903 15.7738 6.02709 15.7675 6.04334C15.7431 6.10834 15.7061 6.16702 15.6592 6.21848C15.5852 6.29793 15.5057 6.37015 15.4199 6.43696C15.3071 6.52092 15.2105 6.62474 15.1356 6.74391C15.0498 6.89016 15.0101 7.05808 15.0191 7.22691C15.029 7.40747 15.1094 7.58803 15.1735 7.79296C15.2096 7.89678 15.2304 8.00512 15.2358 8.11526C15.2439 8.23262 15.2186 8.34999 15.1626 8.45381C15.0976 8.55944 14.9974 8.63798 14.8792 8.6759C14.7636 8.71201 14.6444 8.73729 14.5244 8.75173C14.4079 8.76527 14.2942 8.79416 14.1849 8.83659C14.082 8.87903 13.9872 8.94042 13.906 9.01715C13.7516 9.16612 13.6676 9.37376 13.6739 9.58772C13.6739 9.79266 13.7967 9.95968 13.8698 10.1294C13.9087 10.2143 13.9312 10.3063 13.9357 10.4002C13.9394 10.4887 13.9123 10.5763 13.859 10.6467C13.7642 10.7677 13.6089 10.8237 13.4591 10.7921C13.3489 10.7623 13.2595 10.6846 13.2144 10.5799C13.1855 10.5158 13.1747 10.4454 13.1837 10.3759C13.1864 10.3551 13.1918 10.3343 13.2 10.3145Z" fill="#263238"/>
<path d="M22.7668 12.9832L20.6606 12.5643C20.6606 12.5643 19.7966 13.8164 18.4505 13.7081C17.6651 13.6449 17.3329 12.8956 17.3329 12.8956L15.1147 13.5203L15.0831 18.009L15.5905 20.4466L14.2453 24.5092C14.2453 24.5092 17.8511 26.8023 23.6958 24.4397L22.6747 21.9768L22.9519 20.5179C22.9519 20.5179 23.322 17.7635 23.1758 16.9067C23.0295 16.05 22.7623 15.0388 22.7623 15.0388L22.7668 12.9832Z" fill="#FDB812"/>
<path d="M16.914 20.0855C16.9574 20.1252 17.0043 20.1613 17.0549 20.1911C17.1452 20.2552 17.286 20.3428 17.4611 20.4439C18.3784 20.9702 19.3877 21.316 20.4349 21.4622C20.6354 21.4884 20.7961 21.5047 20.9116 21.5101C20.9703 21.5164 21.029 21.5164 21.0877 21.5101C21.0308 21.4947 20.973 21.4857 20.9143 21.4812C20.8024 21.4677 20.6435 21.4451 20.4422 21.4126C19.9258 21.3268 19.4166 21.1995 18.9201 21.0316C18.4244 20.8601 17.9432 20.6488 17.4819 20.3997C17.3013 20.304 17.1632 20.2236 17.0657 20.1658C17.0179 20.1342 16.9673 20.1071 16.914 20.0855Z" fill="#263238"/>
<g opacity="0.3">
<path d="M15.0389 22.1213C15.3576 22.1809 15.6835 22.059 15.8858 21.8053C16.0663 21.5624 16.1485 21.2636 16.2243 20.9675C16.3995 20.2949 16.5737 19.6223 16.7479 18.9488C17.7618 18.3837 18.9399 18.1887 20.082 18.3972C20.2562 18.4189 20.4232 18.4812 20.5704 18.5778C20.7636 18.7249 20.8557 18.9669 20.9369 19.1953C21.1337 19.7523 21.3233 20.3211 21.6637 20.8032C22.004 21.2853 22.1431 21.641 22.7326 21.6717L23.2255 19.2991L21.5517 17.201L17.3366 17.3473L15.8018 18.3467L15.2791 21.372L15.0389 22.1213Z" fill="black"/>
</g>
<path d="M22.5212 12.9759C22.5212 12.9759 23.4998 12.8676 24.1598 14.0458C24.6446 14.9106 25.2549 16.644 25.2549 16.644L22.932 17.2895L22.43 15.0217L22.5212 12.9759Z" fill="#FDB812"/>
<path d="M15.1147 13.5248C15.1147 13.5248 14.4006 13.6548 13.9988 14.2543C13.5971 14.8537 12.8938 16.9627 12.8938 16.9627L15.3314 17.2272L15.558 14.8077L15.1147 13.5248Z" fill="#FDB812"/>
<path d="M23.1659 15.3376C23.1361 15.4333 23.1162 15.5317 23.1081 15.631C23.0756 15.8387 23.0386 16.0824 22.998 16.3415C22.9574 16.6006 22.9149 16.8444 22.8806 17.052C22.858 17.1495 22.8454 17.2489 22.8436 17.3491C22.8824 17.257 22.9113 17.1604 22.9276 17.0611C22.9691 16.8805 23.0178 16.6313 23.0648 16.3524C23.1117 16.0734 23.1388 15.8206 23.1551 15.6365C23.1695 15.5371 23.1731 15.4369 23.1659 15.3376Z" fill="#263238"/>
<path d="M15.2276 15.3548C15.2096 15.3548 15.1708 15.8694 15.1428 16.5068C15.1148 17.1442 15.1058 17.6606 15.1238 17.6606C15.1419 17.6606 15.1807 17.146 15.2141 16.5095C15.2475 15.873 15.2466 15.3557 15.2276 15.3548Z" fill="#263238"/>
<path d="M19.6071 13.0662L20.0459 16.5438C20.0585 16.6639 19.9727 16.7722 19.8527 16.7876L17.6255 17.1063C17.5045 17.1261 17.3907 17.0458 17.3682 16.9257L16.7823 13.2974C16.7651 13.1773 16.8482 13.0653 16.9682 13.0473C16.9755 13.0464 16.9827 13.0455 16.9899 13.0455L19.3652 12.8758C19.4834 12.8649 19.5891 12.9489 19.6071 13.0662Z" fill="#263238"/>
<path d="M18.6608 14.9675C18.7213 14.9675 20.0547 15.1435 20.0547 15.1435L21.9696 16.0184L22.9311 17.2823L22.0599 19.0084L21.492 17.5739C21.2194 17.675 20.9305 17.7274 20.6389 17.7265C20.2335 17.7057 18.9506 17.6633 18.9506 17.6633L18.2771 17.3382C18.2771 17.3382 18.0514 17.0141 18.0478 16.9212C18.0424 16.839 18.1047 16.7668 18.1878 16.7614C18.2175 16.7596 18.2482 16.7668 18.2735 16.7821C18.4107 16.8507 19.3352 16.8318 19.5618 16.7298C19.5618 16.7298 18.2121 16.6909 18.0271 16.486C17.842 16.2811 17.8971 16.1113 18.1083 16.1023C18.3196 16.0933 19.0942 16.1745 19.3235 16.1466C19.5528 16.1186 19.8426 16.1068 19.8958 15.9931C19.9491 15.8793 19.7722 15.7945 19.7722 15.7945L19.5149 15.6193C19.5149 15.6193 18.5263 15.492 18.4604 15.2907C18.4135 15.167 18.4757 15.0289 18.5985 14.9819C18.6184 14.9747 18.6401 14.9693 18.6608 14.9675Z" fill="#AE7461"/>
<path d="M18.2085 14.9206C18.2085 14.9206 17.0944 15.1426 17.0222 15.2131C16.95 15.2835 15.6048 17.0123 15.6048 17.0123L15.2735 17.3419L16.2079 18.4622L16.383 18.3503L17.6226 17.638C17.7499 17.5775 17.8835 17.5305 18.0207 17.4962C18.0207 17.4962 19.2918 17.2507 19.3686 17.099C19.4453 16.9473 19.3966 16.9184 19.3009 16.8968C19.2052 16.8751 18.4432 16.9925 18.2744 17.0295C18.1056 17.0521 17.9349 17.0593 17.7652 17.0503C17.7652 17.0503 18.2915 16.9094 18.4098 16.8643C18.5281 16.8191 19.7071 16.5149 19.68 16.3109C19.653 16.1068 19.4995 16.04 18.7646 16.2612C18.3602 16.3912 17.9413 16.4734 17.5178 16.5068L19.1429 15.8874C19.1429 15.8874 19.7983 15.6554 19.5771 15.4812C19.3559 15.3069 17.9521 15.7412 17.9521 15.7412L17.3337 15.9949L17.4962 15.6229C17.4962 15.6229 18.3791 15.3322 18.4893 15.241C18.6265 15.1291 18.6418 15.0298 18.5317 14.9467C18.4215 14.8637 18.2085 14.9206 18.2085 14.9206Z" fill="#AE7461"/>
<path d="M13.1033 16.987L15.0894 17.2055V17.6569L15.3801 17.2353L16.2062 18.4631C16.2062 18.4631 15.9624 19.3334 15.8315 19.8173C15.4848 21.1011 14.8908 22.5456 14.09 22.5086C13.1285 22.4607 12.6257 21.4821 12.6139 20.7743C12.6031 20.1306 13.1033 16.987 13.1033 16.987Z" fill="#AE7461"/>
<path d="M25.1177 16.6774L23.4439 17.1568L22.932 17.285L22.4354 16.625L21.7276 18.1011C21.7276 18.1011 22.0382 18.9498 22.2061 19.4192C22.6575 20.675 23.3599 22.0734 24.1553 21.9705C25.1095 21.8477 25.7668 20.7274 25.7234 20.0205C25.6837 19.3786 25.1177 16.6774 25.1177 16.6774Z" fill="#AE7461"/>
<path d="M15.6041 17.0069C15.6041 17.0069 15.6149 16.9898 15.6402 16.9573L15.7494 16.8128C15.8487 16.6855 15.9923 16.4996 16.1755 16.2621L16.8535 15.3972L16.9555 15.2699L17.0088 15.204C17.0341 15.1851 17.0621 15.1715 17.0919 15.1625C17.2038 15.1255 17.3203 15.0975 17.4412 15.0722C17.6823 15.0144 17.9378 14.9603 18.2068 14.9061C18.2745 14.8881 18.3449 14.8817 18.4154 14.8881C18.4524 14.8917 18.4876 14.9016 18.521 14.9188C18.5535 14.9377 18.5815 14.963 18.6022 14.9946C18.6239 15.028 18.6302 15.0695 18.6185 15.1074C18.6059 15.1426 18.586 15.176 18.5598 15.2031C18.5336 15.232 18.5029 15.2564 18.4695 15.2763C18.437 15.2943 18.4027 15.3097 18.3693 15.325C18.0985 15.4406 17.8024 15.5399 17.499 15.6419L17.5117 15.6311L17.3483 16.003L17.3212 15.9768L17.9396 15.7231C18.2059 15.6428 18.4813 15.5688 18.7656 15.5074C18.9092 15.4749 19.0554 15.4496 19.2017 15.4324C19.2766 15.4243 19.3525 15.4207 19.4283 15.4234C19.468 15.4252 19.5078 15.4324 19.5448 15.446C19.5863 15.4613 19.6197 15.4947 19.635 15.5363C19.6459 15.5796 19.6323 15.6256 19.6007 15.6572C19.5737 15.687 19.5439 15.7132 19.5105 15.7349C19.4464 15.7773 19.3786 15.8143 19.3082 15.8459C19.1674 15.91 19.0211 15.9588 18.8767 16.0157L17.9974 16.3497L17.5189 16.5302L17.5099 16.4878C17.9017 16.4553 18.289 16.3822 18.6663 16.2702C18.8496 16.2125 19.0356 16.1646 19.2243 16.1267C19.3191 16.1068 19.4166 16.1023 19.5132 16.115C19.5646 16.1222 19.6116 16.1475 19.6459 16.1863C19.6757 16.226 19.6928 16.2739 19.6955 16.3235C19.6937 16.3515 19.682 16.3777 19.6621 16.3966C19.6459 16.4147 19.6269 16.4309 19.6071 16.4445C19.5691 16.4707 19.5285 16.4941 19.487 16.5149C19.4048 16.5564 19.3209 16.5898 19.2369 16.6223C19.0681 16.6855 18.8993 16.7397 18.7322 16.7903L18.484 16.8643C18.4036 16.8878 18.3224 16.9184 18.2411 16.9401C18.0795 16.9871 17.9197 17.0304 17.7626 17.0719V17.0349C17.9477 17.0485 18.1337 17.0385 18.317 17.006C18.4975 16.9735 18.6781 16.9473 18.8487 16.9239C18.939 16.913 19.0211 16.9022 19.106 16.8941C19.1484 16.8896 19.1909 16.8859 19.2333 16.8841C19.2559 16.8823 19.2784 16.8823 19.301 16.8841C19.3227 16.8878 19.3443 16.8941 19.3642 16.9031C19.3877 16.9121 19.4057 16.9302 19.4148 16.9537C19.4211 16.9762 19.4211 16.9988 19.4148 17.0214C19.4093 17.0412 19.403 17.0611 19.394 17.0801L19.3814 17.1071C19.3759 17.1171 19.3687 17.1261 19.3597 17.1342C19.2929 17.1803 19.2189 17.2164 19.1412 17.2389C18.8632 17.3256 18.5806 17.3978 18.2953 17.4547L18.1012 17.4944C18.0398 17.5053 17.9802 17.5197 17.9206 17.5387C17.8078 17.5667 17.6985 17.61 17.5965 17.666L16.6991 18.1733L16.4626 18.3024L16.4021 18.3358L16.3805 18.3467C16.3868 18.3413 16.3931 18.3367 16.4003 18.3331L16.4599 18.297L16.6946 18.1598C16.9014 18.0397 17.2029 17.8646 17.5866 17.6434C17.7816 17.5287 18.0308 17.4782 18.2935 17.4249C18.577 17.3662 18.8577 17.2931 19.134 17.2055C19.2071 17.1839 19.2766 17.1505 19.3398 17.1071C19.3461 17.1017 19.3507 17.0963 19.3543 17.0891L19.366 17.0629C19.3732 17.0457 19.3805 17.0286 19.385 17.0105C19.3985 16.9798 19.3841 16.9428 19.3534 16.9293H19.3525C19.3344 16.9221 19.3164 16.9166 19.2974 16.913C19.2793 16.913 19.2595 16.913 19.2387 16.913L19.1132 16.9239C19.0293 16.932 18.9435 16.9428 18.8577 16.9546C18.6853 16.978 18.5074 17.0051 18.3278 17.0376C18.1418 17.071 17.9522 17.0819 17.7635 17.0683C17.7527 17.0683 17.7446 17.0602 17.7446 17.0494V17.0485C17.7455 17.0403 17.7509 17.0331 17.759 17.0304C17.9161 16.9889 18.075 16.9446 18.2366 16.8977C18.3179 16.876 18.3955 16.8462 18.4786 16.8209L18.7268 16.7469C18.8929 16.6964 19.0609 16.6422 19.2279 16.579C19.3109 16.5474 19.394 16.5131 19.4743 16.4734C19.5141 16.4535 19.552 16.4309 19.5881 16.4057C19.6215 16.3813 19.6594 16.3488 19.6585 16.3154C19.6567 16.2757 19.6423 16.2368 19.6188 16.2043C19.5908 16.1736 19.5529 16.1538 19.5123 16.1493C19.422 16.1384 19.3308 16.142 19.2414 16.161C19.0545 16.1989 18.8695 16.2468 18.688 16.3045C18.3079 16.4183 17.9161 16.4914 17.5207 16.5239C17.5081 16.5248 17.4972 16.5158 17.4963 16.5032C17.4954 16.4932 17.5017 16.4851 17.5108 16.4815L17.9883 16.3009L18.8686 15.9669C19.013 15.91 19.1602 15.8613 19.2965 15.7999C19.3651 15.7692 19.4301 15.7331 19.4924 15.6915C19.5213 15.6717 19.5484 15.6491 19.5718 15.6229C19.5935 15.6022 19.6034 15.5715 19.598 15.5417C19.5773 15.4857 19.5014 15.4658 19.4301 15.4631C19.357 15.4604 19.2839 15.4631 19.2116 15.4722C19.0663 15.4893 18.9227 15.5137 18.7801 15.5453C18.4975 15.6058 18.2231 15.6798 17.9585 15.7584L17.3392 16.0102C17.3293 16.0147 17.3167 16.0102 17.3121 16.0003C17.3103 15.9949 17.3103 15.9895 17.3121 15.9841L17.4756 15.613C17.4783 15.6076 17.4828 15.604 17.4882 15.6022C17.7906 15.5011 18.084 15.4027 18.3549 15.2889C18.3883 15.2745 18.4208 15.2591 18.4524 15.242C18.4813 15.2239 18.5074 15.2022 18.53 15.177C18.577 15.1282 18.6059 15.0623 18.5688 15.0108C18.5327 14.9576 18.474 14.9233 18.409 14.9206C18.344 14.9151 18.2781 14.9206 18.2149 14.9368C17.9441 14.9901 17.6904 15.0433 17.4503 15.0984C17.3302 15.1273 17.2128 15.1553 17.1036 15.1887C17.0783 15.1959 17.0539 15.2076 17.0323 15.2221L16.9799 15.2862L16.877 15.4126C16.6116 15.7475 16.3814 16.0355 16.1936 16.2729C16.0058 16.5104 15.8604 16.6918 15.7593 16.8146L15.6456 16.9564C15.6185 16.9916 15.6041 17.0069 15.6041 17.0069Z" fill="#6F4439"/>
<path d="M15.325 17.3157C15.3385 17.3256 14.7833 18.0496 14.0845 18.9335C13.3858 19.8173 12.8071 20.5251 12.7935 20.5143C12.78 20.5034 13.3352 19.7803 14.0349 18.8974C14.7346 18.0144 15.3114 17.3093 15.325 17.3157Z" fill="#6F4439"/>
<path d="M24.631 19.5014C24.6211 19.5014 24.5489 19.3497 24.4017 19.115C24.2049 18.8107 23.9882 18.5191 23.7535 18.2438C23.4827 17.9178 23.2191 17.6317 23.0385 17.4177C22.9482 17.3112 22.8769 17.2227 22.829 17.1604C22.802 17.1306 22.7794 17.0963 22.7613 17.0602C22.7947 17.0864 22.8254 17.1171 22.8516 17.1505L23.0746 17.3951C23.2633 17.6028 23.526 17.8844 23.8032 18.2122C24.0415 18.4884 24.2546 18.7845 24.4423 19.0978C24.4956 19.1908 24.5444 19.2874 24.5877 19.3858C24.6067 19.4219 24.6211 19.4607 24.631 19.5014Z" fill="#6F4439"/>
</g>
<defs>
<clipPath id="clip0_1_9287">
<rect width="38.0623" height="38.0791" fill="white" transform="scale(1.02418)"/>
</clipPath>
</defs>
</svg>
