<svg width="16" height="16" viewBox="0 0 16 16" fill="none" xmlns="http://www.w3.org/2000/svg">
<rect x="0.25" y="0.25" width="15.5" height="15.5" rx="0.75" stroke="#FDB812" stroke-width="0.5"/>
<path d="M11.8335 5.16739C11.8332 5.16739 11.833 5.16779 11.8332 5.16803C12.0558 5.39127 12.0556 5.75325 11.8326 5.97623L7.26169 10.5471C7.0385 10.7703 6.67604 10.7703 6.45285 10.5471L4.16739 8.26169C3.9442 8.0385 3.9442 7.67604 4.16739 7.45285C4.39058 7.22966 4.75304 7.22966 4.97623 7.45285C6.0158 8.49144 7.7003 8.49122 8.73961 7.45236L11.0256 5.16739C11.2485 4.94441 11.6105 4.9442 11.8338 5.16676C11.834 5.16699 11.8338 5.16739 11.8335 5.16739Z" fill="#FDB812"/>
</svg>
