<svg width="15" height="16" viewBox="0 0 15 16" fill="none" xmlns="http://www.w3.org/2000/svg">
<path fill-rule="evenodd" clip-rule="evenodd" d="M12.4458 6.18449L13.9143 7.59839L11.6769 9.94828L9.87928 10.4304C9.81479 10.443 9.78929 10.4172 9.79979 10.3566L10.2072 8.53439L12.4458 6.18449ZM8.87099 10.4271C9.09059 10.4211 9.27419 10.5948 9.28019 10.8144C9.28619 11.034 9.11249 11.2173 8.89289 11.2233C8.48999 11.2344 8.20949 11.4441 8.09189 11.6919C8.04419 11.7924 8.02409 11.8986 8.03489 11.9955C8.04419 12.0777 8.07839 12.1548 8.13989 12.2157C8.31779 12.3927 8.70389 12.4701 9.35639 12.312C9.45959 12.2868 9.66779 12.2172 9.92879 12.1299C11.1675 11.7156 13.4433 10.9545 13.7979 12.012C13.8672 12.2202 13.755 12.4464 13.5465 12.516C13.3383 12.5856 13.1121 12.4731 13.0428 12.2649C12.9414 11.9622 11.1543 12.5598 10.1814 12.885C9.90268 12.9783 9.68009 13.053 9.54359 13.086C8.57699 13.3203 7.93379 13.1349 7.57799 12.7806C7.38059 12.5841 7.27079 12.3402 7.24199 12.0828C7.21439 11.8401 7.25969 11.5857 7.37069 11.352C7.60379 10.8606 8.13149 10.4475 8.87099 10.4271ZM3.1071 6.77549C2.895 6.77549 2.7231 6.60359 2.7231 6.39149C2.7231 6.17969 2.895 6.00779 3.1071 6.00779H7.94219C8.15429 6.00779 8.32619 6.17969 8.32619 6.39149C8.32619 6.60359 8.15429 6.77549 7.94219 6.77549H3.1071ZM3.1071 9.25619C2.895 9.25619 2.7231 9.08459 2.7231 8.87249C2.7231 8.66039 2.895 8.48849 3.1071 8.48849H7.52879C7.74089 8.48849 7.91249 8.66039 7.91249 8.87249C7.91249 9.08459 7.74089 9.25619 7.52879 9.25619H3.1071ZM3.1071 11.7372C2.895 11.7372 2.7231 11.5653 2.7231 11.3532C2.7231 11.1414 2.895 10.9695 3.1071 10.9695H5.73239C5.94419 10.9695 6.11609 11.1414 6.11609 11.3532C6.11609 11.5653 5.94419 11.7372 5.73239 11.7372H3.1071ZM7.38029 1.1019V2.3991C7.41029 2.7915 7.54709 3.0999 7.78709 3.3051C8.03639 3.51779 8.40839 3.63719 8.90099 3.64589L10.0191 3.64469L7.38029 1.1019ZM10.2816 4.41209L8.89499 4.41059C8.21219 4.39979 7.67489 4.21619 7.28939 3.88709C6.88799 3.5439 6.66179 3.0567 6.61589 2.4537L6.61259 2.4009V0.767699H1.9083C1.2801 0.767699 0.767699 1.2801 0.767699 1.9083V13.458C0.767699 14.0835 1.2825 14.5986 1.9083 14.5986H9.14159C9.61259 14.5986 10.0425 14.2992 10.209 13.8591C10.2831 13.6614 10.5045 13.5615 10.7022 13.6356C10.8999 13.71 10.9998 13.9311 10.9254 14.1288C10.6458 14.8665 9.93209 15.3666 9.14159 15.3666H1.9083C0.860699 15.3666 0 14.5053 0 13.458V1.9083C0 0.860099 0.860099 0 1.9083 0H7.18649C7.30019 0 7.40279 0.0494999 7.47269 0.1284L10.9308 3.4602C11.0088 3.53519 11.0481 3.63569 11.0481 3.73619L11.0493 5.95619C11.0493 6.16829 10.8774 6.34019 10.6656 6.34019C10.4535 6.34019 10.2816 6.16829 10.2816 5.95619V4.41209ZM13.9077 5.14709C13.8396 5.08169 13.7601 5.05109 13.6689 5.05229C13.578 5.05379 13.5003 5.08949 13.4358 5.15669L12.912 5.70209L14.382 7.12109L14.9112 6.57029C14.9745 6.50639 15.0009 6.42329 15 6.33179C14.9985 6.24179 14.9661 6.16019 14.9022 6.09839L13.9077 5.14709ZM11.2104 9.86308L10.1079 10.1586C10.068 10.1664 10.0524 10.1508 10.0593 10.1136L10.3089 8.99579L11.2104 9.86308Z" fill="#FDB812"/>
</svg>
