<svg width="24" height="20" viewBox="0 0 24 20" fill="none" xmlns="http://www.w3.org/2000/svg">
<path d="M9.01727 9.44418C7.73727 9.44418 6.69727 8.54796 6.69727 7.44493C6.69727 6.34189 7.73993 5.44568 9.01727 5.44568C10.2946 5.44568 11.3373 6.34419 11.3373 7.44493C11.3399 8.54796 10.2973 9.44418 9.01727 9.44418ZM9.01727 6.36258C8.3266 6.36258 7.76127 6.84745 7.76127 7.44263C7.76127 8.04011 8.32393 8.52498 9.01727 8.52498C9.7106 8.52498 10.2733 8.04011 10.2733 7.44263C10.2733 6.84745 9.7106 6.36258 9.01727 6.36258Z" fill="#FDB812"/>
<path d="M7.75026 14.3617C7.62226 14.3617 7.49159 14.3226 7.39026 14.2399C7.17159 14.0675 7.15826 13.778 7.35826 13.5895L15.8596 5.59026C16.0596 5.40412 16.3956 5.39033 16.6143 5.56268C16.8303 5.73503 16.8463 6.02458 16.6463 6.21301L8.14492 14.2123C8.03826 14.3111 7.89426 14.3617 7.75026 14.3617Z" fill="#FDB812"/>
<path d="M15.2465 14.3617C13.9665 14.3617 12.9238 13.4655 12.9238 12.3602C12.9238 11.2549 13.9638 10.3586 15.2465 10.3586C16.5292 10.3586 17.5692 11.2549 17.5692 12.3602C17.5692 13.4655 16.5265 14.3617 15.2465 14.3617ZM15.2465 11.2801C14.5532 11.2801 13.9905 11.765 13.9905 12.3625C13.9905 12.96 14.5532 13.4448 15.2465 13.4448C15.9398 13.4448 16.5025 12.96 16.5025 12.3625C16.5025 11.765 15.9372 11.2801 15.2465 11.2801Z" fill="#FDB812"/>
<path d="M15.1933 19.808C14.9453 19.808 14.692 19.7598 14.452 19.6587L12.2707 18.7395C12.1 18.6682 11.9027 18.6682 11.732 18.7395L9.55067 19.6587C8.732 20.0034 7.756 19.7299 7.32933 19.0359L6.19067 17.1883C6.10267 17.0436 5.94267 16.9447 5.756 16.9149L3.364 16.5541C2.46533 16.4185 1.86267 15.7038 1.99067 14.9248L2.32933 12.8543C2.356 12.6935 2.29467 12.528 2.164 12.4131L0.476 10.9102C-0.158667 10.3472 -0.158667 9.4625 0.476 8.89719L2.164 7.39431C2.29733 7.27711 2.356 7.11625 2.32933 6.95309L1.988 4.88261C1.86 4.10589 2.46267 3.38892 3.36133 3.25334L5.75333 2.89255C5.94 2.86498 6.1 2.76386 6.19067 2.61909L7.32933 0.771511C7.756 0.0775186 8.732 -0.195942 9.55067 0.148756L11.732 1.06795C11.9027 1.13919 12.1 1.13919 12.2707 1.06795L14.452 0.148756C15.2707 -0.195942 16.2467 0.0775186 16.6733 0.771511L17.812 2.61909C17.9 2.76386 18.06 2.86268 18.2467 2.89255L20.6387 3.25334C21.5347 3.38892 22.14 4.10359 22.012 4.88261L21.6707 6.95539C21.644 7.11855 21.7053 7.27941 21.836 7.39661L23.524 8.89949C24.1587 9.46479 24.1587 10.3472 23.524 10.9125L21.836 12.4154C21.7027 12.5326 21.644 12.6935 21.6707 12.8566L22.012 14.9271C22.14 15.7038 21.5373 16.4208 20.6387 16.5564L18.2467 16.9172C18.0573 16.9447 17.9 17.0459 17.812 17.1906L16.6733 19.0405C16.372 19.5277 15.796 19.808 15.1933 19.808ZM12.0013 17.7674C12.252 17.7674 12.5053 17.8157 12.74 17.9145L14.9213 18.8337C15.22 18.9601 15.5773 18.859 15.732 18.6062L16.8707 16.7586C17.116 16.3611 17.5507 16.0899 18.0653 16.0118L20.4573 15.651C20.7853 15.6004 21.004 15.3407 20.9587 15.0558L20.6173 12.9853C20.5453 12.5395 20.7107 12.0983 21.0733 11.7766L22.7613 10.2737C22.9933 10.0669 22.9933 9.74515 22.7613 9.53833L21.0733 8.03545C20.7107 7.71143 20.5453 7.27252 20.6173 6.82671L20.9587 4.75622C21.0067 4.47127 20.7853 4.2116 20.4573 4.16104L18.0653 3.80026C17.5507 3.72213 17.116 3.45096 16.8707 3.05341L15.732 1.20583C15.5747 0.953052 15.22 0.85194 14.9213 0.978329L12.74 1.89752C12.2707 2.09515 11.7347 2.09515 11.2653 1.89752L9.084 0.978329C8.78533 0.85194 8.428 0.953052 8.27333 1.20583L7.13467 3.05341C6.88933 3.45096 6.45467 3.72213 5.94 3.80026L3.548 4.15645C3.22 4.207 2.99867 4.46667 3.04667 4.75162L3.38533 6.82211C3.45733 7.26792 3.292 7.70913 2.92933 8.03085L1.24133 9.53373C1.00933 9.74055 1.00933 10.0623 1.24133 10.2691L2.92933 11.772C3.292 12.096 3.45733 12.5349 3.38533 12.9807L3.04667 15.0512C2.99867 15.3362 3.22 15.5958 3.548 15.6464L5.94 16.0072C6.45467 16.0853 6.88933 16.3565 7.13467 16.754L8.27333 18.6016C8.428 18.8544 8.78533 18.9532 9.084 18.8291L11.2653 17.9099C11.4973 17.8157 11.7507 17.7674 12.0013 17.7674Z" fill="#FDB812"/>
</svg>
