<svg width="16" height="16" viewBox="0 0 16 16" fill="none" xmlns="http://www.w3.org/2000/svg">
<rect x="0.5" y="0.5" width="15" height="15" rx="1.5" fill="#FDB812" stroke="#FDB812"/>
<path d="M12.7919 5.20924C12.7915 5.20924 12.7913 5.20974 12.7916 5.21003C13.0697 5.48909 13.0695 5.94157 12.7908 6.22029L7.07711 11.9339C6.79813 12.2129 6.34505 12.2129 6.06606 11.9339L3.20924 9.07711C2.93025 8.79813 2.93025 8.34505 3.20924 8.06606C3.48823 7.78708 3.9413 7.78708 4.22029 8.06606C5.51975 9.3643 7.62538 9.36402 8.92451 8.06545L11.7819 5.20924C12.0607 4.93052 12.5131 4.93025 12.7922 5.20845C12.7925 5.20874 12.7923 5.20924 12.7919 5.20924Z" fill="white"/>
</svg>
