<svg width="10" height="9" viewBox="0 0 10 9" fill="none" xmlns="http://www.w3.org/2000/svg">
<path d="M5.68417 0.692308C5.68417 0.309375 5.34549 0 4.92628 0C4.50708 0 4.16839 0.309375 4.16839 0.692308V3.80769H0.75789C0.338682 3.80769 0 4.11707 0 4.5C0 4.88293 0.338682 5.19231 0.75789 5.19231H4.16839V8.30769C4.16839 8.69062 4.50708 9 4.92628 9C5.34549 9 5.68417 8.69062 5.68417 8.30769V5.19231H9.09468C9.51389 5.19231 9.85257 4.88293 9.85257 4.5C9.85257 4.11707 9.51389 3.80769 9.09468 3.80769H5.68417V0.692308Z" fill="white"/>
</svg>
