<svg width="16" height="19" viewBox="0 0 16 19" fill="none" xmlns="http://www.w3.org/2000/svg">
<path d="M6.90822 2.07382L7.10878 2.03336V1.82876V1.14297C7.10878 0.652409 7.51118 0.25 8.00175 0.25C8.49231 0.25 8.89472 0.652409 8.89472 1.14297V1.82876V2.03336L9.09528 2.07382C11.5867 2.57647 13.4666 4.78444 13.4666 7.42933V8.10368C13.4666 9.84505 14.1062 11.5268 15.255 12.8295L15.2553 12.8298L15.5181 13.127L15.5181 13.127L15.5224 13.1317C15.7594 13.3862 15.8155 13.7582 15.6712 14.0828C15.529 14.4029 15.2077 14.6087 14.8596 14.6087H1.14391C0.792209 14.6087 0.45192 14.3886 0.32216 14.0858C0.187328 13.7712 0.243428 13.3841 0.472825 13.1282L0.473928 13.127L0.736228 12.8304C0.73633 12.8303 0.736431 12.8302 0.736533 12.8301C1.89726 11.5271 2.53688 9.845 2.53688 8.10368V7.42933C2.53688 4.78444 4.41683 2.57647 6.90822 2.07382ZM6.55784 17.4502C6.23857 17.1223 6.03632 16.7001 5.98114 16.2516H8.00175H10.0224C9.96731 16.699 9.76591 17.1203 9.44796 17.4479C9.05992 17.8245 8.54037 18.0376 8.00175 18.0376C7.45713 18.0376 6.92946 17.8319 6.55784 17.4502Z" stroke="black" stroke-width="0.5"/>
</svg>
