<svg width="16" height="21" viewBox="0 0 16 21" fill="none" xmlns="http://www.w3.org/2000/svg">
<path d="M0.250001 8.00399L0.250001 8.00387C0.249233 6.47043 0.703384 4.97124 1.55498 3.69601C2.40657 2.42079 3.61733 1.42686 5.03403 0.840003C6.45072 0.253152 8.00967 0.0997614 9.51357 0.399244C11.0175 0.698728 12.3987 1.43762 13.4825 2.52242L13.483 2.52289C14.2044 3.24112 14.7763 4.09529 15.1654 5.03599C15.5545 5.97668 15.7532 6.98521 15.75 8.0032V8.00399C15.75 9.49792 15.2256 11.0448 14.4642 12.4993C13.7038 13.9517 12.7157 15.2957 11.8083 16.3794C10.6446 17.7684 9.37099 19.0614 7.99998 20.2459C6.62897 19.0614 5.35539 17.7684 4.19162 16.3794C3.2843 15.2957 2.29612 13.9517 1.53577 12.4993C0.774321 11.0448 0.250001 9.49792 0.250001 8.00399ZM7.99998 4.32543C7.02436 4.32543 6.08871 4.71299 5.39884 5.40285C4.70898 6.09272 4.32142 7.02838 4.32142 8.00399C4.32142 8.97961 4.70898 9.91527 5.39884 10.6051C6.08871 11.295 7.02436 11.6826 7.99998 11.6826C8.9756 11.6826 9.91125 11.295 10.6011 10.6051C11.291 9.91527 11.6785 8.97961 11.6785 8.00399C11.6785 7.02838 11.291 6.09272 10.6011 5.40285C9.91125 4.71299 8.9756 4.32543 7.99998 4.32543Z" stroke="black" stroke-width="0.5"/>
</svg>
