<svg width="52" height="39" viewBox="0 0 52 39" fill="none" xmlns="http://www.w3.org/2000/svg">
<g clip-path="url(#clip0_1_6653)">
<path d="M52.0001 34.0497H0V34.0757H52.0001V34.0497Z" fill="#EBEBEB"/>
<path d="M46.7896 35.723H43.3451V35.749H46.7896V35.723Z" fill="#EBEBEB"/>
<path d="M34.447 36.0059H33.5432V36.0319H34.447V36.0059Z" fill="#EBEBEB"/>
<path d="M43.2411 34.7579H41.2453V34.7839H43.2411V34.7579Z" fill="#EBEBEB"/>
<path d="M9.94772 34.9326H5.45595V34.9586H9.94772V34.9326Z" fill="#EBEBEB"/>
<path d="M11.5326 34.9326H10.8743V34.9586H11.5326V34.9326Z" fill="#EBEBEB"/>
<path d="M23.4157 35.3715H13.6729V35.3975H23.4157V35.3715Z" fill="#EBEBEB"/>
<path d="M24.648 29.4112H4.56662C4.23902 29.4102 3.97382 29.145 3.97382 28.8174V0.588641C3.97694 0.26312 4.2411 0.00104 4.56662 0H24.648C24.9756 0 25.2418 0.26624 25.2418 0.593841V28.8174C25.2418 29.145 24.9756 29.4112 24.648 29.4112ZM4.56662 0.0208C4.25358 0.02184 3.99982 0.2756 3.99982 0.588641V28.8174C3.99982 29.1304 4.25358 29.3842 4.56662 29.3852H24.648C24.961 29.3842 25.2148 29.1304 25.2158 28.8174V0.588641C25.2148 0.2756 24.961 0.02184 24.648 0.0208H4.56662Z" fill="#EBEBEB"/>
<path d="M47.1443 29.4112H27.0619C26.7342 29.4102 26.4691 29.145 26.468 28.8174V0.588641C26.4711 0.26312 26.7363 0.00104 27.0619 0H47.1443C47.4698 0.00104 47.7329 0.26312 47.736 0.588641V28.8174C47.736 29.145 47.4719 29.4102 47.1443 29.4112ZM27.0619 0.0208C26.7488 0.02184 26.4951 0.2756 26.494 0.588641V28.8174C26.4951 29.1304 26.7488 29.3842 27.0619 29.3852H47.1443C47.4573 29.3842 47.7111 29.1304 47.7121 28.8174V0.588641C47.7111 0.2756 47.4573 0.02184 47.1443 0.0208H27.0619Z" fill="#EBEBEB"/>
<path d="M39.2836 4.85386C39.5944 3.53732 38.779 2.21818 37.4624 1.90747C36.1459 1.59677 34.8267 2.41216 34.516 3.7287C34.2053 5.04524 35.0207 6.36438 36.3373 6.67509C37.6538 6.9858 38.9729 6.17041 39.2836 4.85386Z" fill="#E0E0E0"/>
<path d="M36.9045 6.37729C38.055 6.37729 38.9876 5.44464 38.9876 4.29416C38.9876 3.14369 38.055 2.21104 36.9045 2.21104C35.754 2.21104 34.8214 3.14369 34.8214 4.29416C34.8214 5.44464 35.754 6.37729 36.9045 6.37729Z" fill="#F0F0F0"/>
<path d="M36.8047 2.86416V4.32017L35.8396 3.77417" fill="#F0F0F0"/>
<path d="M36.8045 4.42416C36.7868 4.42416 36.7691 4.41896 36.7535 4.41064L35.7884 3.86464C35.7385 3.83552 35.7208 3.77208 35.7499 3.72216C35.7791 3.67224 35.8425 3.65456 35.8924 3.68368L36.7026 4.14232V2.86416C36.7026 2.80696 36.7494 2.76016 36.8066 2.76016C36.8638 2.76016 36.9106 2.80696 36.9106 2.86416V4.32016C36.9106 4.3576 36.8908 4.39192 36.8586 4.41064C36.8419 4.42 36.8232 4.42416 36.8045 4.42416Z" fill="#E0E0E0"/>
<path d="M9.11156 5.43608H25.6809C25.8025 5.43608 25.9013 5.53488 25.9013 5.65656V5.89265C25.9013 6.01433 25.8025 6.11313 25.6809 6.11313H9.11156C8.98988 6.11313 8.89108 6.01433 8.89108 5.89265V5.65656C8.89108 5.53488 8.98988 5.43608 9.11156 5.43608Z" fill="#E0E0E0"/>
<path d="M24.8904 5.9748H9.90087V19.2764H24.8904V5.9748Z" fill="#E6E6E6"/>
<path d="M24.4961 6.33986H10.2762V18.9187H24.4961V6.33986Z" fill="#F0F0F0"/>
<path d="M13.6135 6.33986L10.2762 18.8916V12.9938L12.0379 6.33986H13.6135Z" fill="white"/>
<path d="M14.795 6.33986L11.4285 18.9187H10.8919L14.2583 6.33986H14.795Z" fill="white"/>
<path d="M24.4961 14.2771V16.2874L23.8149 18.9187H23.2772L24.4961 14.2771Z" fill="white"/>
<path d="M15.2361 6.11313H14.9969V19.1995H15.2361V6.11313Z" fill="#E6E6E6"/>
<path d="M19.8776 6.11313H19.6384V19.1995H19.8776V6.11313Z" fill="#E6E6E6"/>
<path d="M22.4474 5.65242C22.4474 5.65242 22.7927 10.1525 24.776 12.4467C24.776 12.4467 23.3314 18.2375 23.3324 20.2572L26.0167 19.76L25.0495 12.48L25.5123 5.65242H22.4474Z" fill="#E0E0E0"/>
<path d="M12.3438 5.65242C12.3438 5.65242 11.9995 10.1525 10.0162 12.4467C10.0162 12.4467 11.4608 18.2375 11.4598 20.2572L8.77448 19.76L9.74272 12.48L9.27992 5.65242H12.3438Z" fill="#E0E0E0"/>
<path d="M43.8194 8.35641H29.3758V34.1776H43.8194V8.35641Z" fill="#E0E0E0"/>
<path d="M38.661 8.35641H29.3758V15.0592H38.661V8.35641Z" fill="#E6E6E6"/>
<path d="M38.661 15.6042H29.3758V34.1786H38.661V15.6042Z" fill="#E6E6E6"/>
<path d="M29.4123 8.65386H38.2086C38.3438 8.65386 38.453 8.76306 38.453 8.89826V14.7233C38.453 14.8585 38.3438 14.9677 38.2086 14.9677H29.4123C29.2771 14.9677 29.1679 14.8585 29.1679 14.7233V8.89826C29.1679 8.76306 29.2771 8.65386 29.4123 8.65386Z" fill="#F0F0F0"/>
<path d="M29.4123 15.729H38.2086C38.3438 15.729 38.453 15.8382 38.453 15.9734V33.7626C38.453 33.8978 38.3438 34.007 38.2086 34.007H29.4123C29.2771 34.007 29.1679 33.8978 29.1679 33.7626V15.9734C29.1679 15.8382 29.2771 15.729 29.4123 15.729Z" fill="#F0F0F0"/>
<path d="M30.6145 11.7073H30.1319C30.1319 11.7073 29.4528 12.7588 29.4528 14.7899H29.9728L30.6145 11.7073Z" fill="#EBEBEB"/>
<path d="M30.6145 14.7899V11.7073C30.6145 11.7073 30.1018 12.766 29.9697 14.7899H30.6145Z" fill="#E0E0E0"/>
<path d="M30.5354 12.7681V14.403H30.2982C30.2982 14.403 30.3211 13.104 30.5354 12.7681Z" fill="#E6E6E6"/>
<path d="M30.6145 19.0539H30.1319C30.1319 19.0539 29.4528 18.0024 29.4528 15.9713H29.9728L30.6145 19.0539Z" fill="#EBEBEB"/>
<path d="M30.6145 15.9713V19.0539C30.6145 19.0539 30.1018 17.9962 29.9697 15.9713H30.6145Z" fill="#E0E0E0"/>
<path d="M30.5354 17.992V16.3582H30.2982C30.2982 16.3582 30.3211 17.654 30.5354 17.992Z" fill="#E6E6E6"/>
<path d="M26 38.7463C37.1366 38.7463 46.1646 38.2192 46.1646 37.569C46.1646 36.9188 37.1366 36.3917 26 36.3917C14.8635 36.3917 5.83546 36.9188 5.83546 37.569C5.83546 38.2192 14.8635 38.7463 26 38.7463Z" fill="#F5F5F5"/>
<path d="M21.2068 7.26962L22.6336 7.2873C22.8458 7.28938 23.0153 7.4641 23.0132 7.67522L22.9956 9.1021C22.9935 9.31426 22.8188 9.48378 22.6076 9.4817L21.1808 9.46402C20.9686 9.46194 20.7991 9.28722 20.8012 9.0761L20.8188 7.64922C20.8209 7.43706 20.9946 7.26754 21.2068 7.26962Z" fill="#FDB812"/>
<path opacity="0.6" d="M22.5161 7.95187C22.3643 7.69915 22.0669 7.79171 21.9119 7.98515C21.7611 7.78859 21.4657 7.68771 21.3077 7.93731C21.0414 8.35851 21.5749 8.75891 21.8277 8.91595L21.8994 8.95963C21.9202 8.94923 21.9441 8.93467 21.9733 8.91699C22.2291 8.76619 22.7761 8.37931 22.5161 7.95187Z" fill="white"/>
<path d="M22.1314 9.30698C22.1314 9.30698 21.836 9.96218 21.1881 10.1598C21.1881 10.1598 21.5479 9.95802 21.5282 9.27266L22.1314 9.30698Z" fill="#FDB812"/>
<path d="M14.5778 19.135H15.0801L16.481 27.352H15.9776L14.5778 19.135Z" fill="#FDB812"/>
<path d="M16.4446 19.135H16.9469L18.3478 27.352H17.8444L16.4446 19.135Z" fill="#FDB812"/>
<path d="M18.3112 19.135H18.8146L20.2144 27.352H19.711L18.3112 19.135Z" fill="#FDB812"/>
<path opacity="0.4" d="M14.5778 19.135H15.0801L16.481 27.352H15.9776L14.5778 19.135Z" fill="white"/>
<path opacity="0.4" d="M16.4446 19.135H16.9469L18.3478 27.352H17.8444L16.4446 19.135Z" fill="white"/>
<path opacity="0.4" d="M18.3112 19.135H18.8146L20.2144 27.352H19.711L18.3112 19.135Z" fill="white"/>
<path d="M18.8749 27.5652L18.9175 29.3811L19.1089 37.5992H19.7402L19.9294 29.3811L19.9721 27.5652H18.8749Z" fill="#FDB812"/>
<path opacity="0.4" d="M18.8749 27.5652L18.9175 29.3811L19.1089 37.5992H19.7402L19.9294 29.3811L19.9721 27.5652H18.8749Z" fill="white"/>
<path opacity="0.2" d="M18.8749 27.5652L18.9175 29.432H19.9294L19.9721 27.5652H18.8749Z" fill="black" fill-opacity="0.25"/>
<path d="M15.4472 37.57L16.0306 27.6931H16.9843L16.1679 37.57H15.4472Z" fill="#FDB812"/>
<path opacity="0.4" d="M16.1689 37.57H15.4482L15.9775 28.5803L16.0295 27.6817H16.9832L16.9094 28.5803L16.1689 37.57Z" fill="white"/>
<path opacity="0.2" d="M16.9831 27.6817L16.9093 28.6146H15.9775L16.0295 27.6817H16.9831Z" fill="black" fill-opacity="0.25"/>
<path d="M22.6803 37.57L21.8639 27.6931H22.8176L23.4 37.57H22.6803Z" fill="#FDB812"/>
<path opacity="0.4" d="M22.6792 37.57L21.9377 28.5803L21.8649 27.6817H22.8175L22.8706 28.5803L23.3999 37.57H22.6792Z" fill="white"/>
<path opacity="0.2" d="M21.8649 27.6817L21.9377 28.6146H22.8706L22.8175 27.6817H21.8649Z" fill="black" fill-opacity="0.25"/>
<path d="M23.3283 28.0343H15.52V27.1908C15.52 26.9038 15.7529 26.6708 16.04 26.6708H22.8083C23.0953 26.6708 23.3283 26.9038 23.3283 27.1908V28.0343Z" fill="#FDB812"/>
<path d="M15.4461 20.0835C16.2563 19.5936 17.3805 19.5936 18.4538 20.0835C18.9967 20.3216 19.6394 20.3892 19.9233 20.0471C20.4079 19.5416 19.5583 18.0471 17.9275 17.5739C16.7596 17.2391 15.6042 17.2391 14.6172 17.5739C13.2423 18.0471 13.1997 19.5416 13.9568 20.0471C14.4269 20.3892 15.0322 20.3216 15.4461 20.0835Z" fill="#FDB812"/>
<path opacity="0.2" d="M23.3283 28.0343H15.52V27.1908C15.52 26.9038 15.7529 26.6708 16.04 26.6708H22.8083C23.0953 26.6708 23.3283 26.9038 23.3283 27.1908V28.0343Z" fill="black" fill-opacity="0.25"/>
<path opacity="0.2" d="M15.4461 20.0835C16.2563 19.5936 17.3805 19.5936 18.4538 20.0835C18.9967 20.3216 19.6394 20.3892 19.9233 20.0471C20.4079 19.5416 19.5583 18.0471 17.9275 17.5739C16.7596 17.2391 15.6042 17.2391 14.6172 17.5739C13.2423 18.0471 13.1997 19.5416 13.9568 20.0471C14.4269 20.3892 15.0322 20.3216 15.4461 20.0835Z" fill="black" fill-opacity="0.25"/>
<path d="M23.4937 28.0343H15.3547C15.2393 28.0343 15.1457 27.9407 15.1457 27.8252V27.5611C15.1457 27.4456 15.2393 27.352 15.3547 27.352H23.4937C23.6092 27.352 23.7028 27.4456 23.7028 27.5611V27.8252C23.7028 27.9407 23.6092 28.0343 23.4937 28.0343Z" fill="#FDB812"/>
<path opacity="0.6" d="M23.4937 28.0343H15.3547C15.2393 28.0343 15.1457 27.9407 15.1457 27.8252V27.5611C15.1457 27.4456 15.2393 27.352 15.3547 27.352H23.4937C23.6092 27.352 23.7028 27.4456 23.7028 27.5611V27.8252C23.7028 27.9407 23.6092 28.0343 23.4937 28.0343Z" fill="white"/>
<path d="M14.9218 17.9826C14.9218 17.9826 14.173 19.0227 14.6338 19.7507C15.0945 20.4787 15.8474 20.0533 16.6098 19.2203C17.3721 18.3872 14.9218 17.9826 14.9218 17.9826Z" fill="#E4897B"/>
<path d="M24.3713 15.5522L24.9017 15.6562L24.3713 14.4321L24.6583 13.7519C24.6583 13.7519 26.3224 15.0592 26.4555 16.224C26.5127 16.7045 25.5371 17.6915 23.8773 17.4034L24.3713 15.5522Z" fill="#E4897B"/>
<path d="M24.6864 15.5106L24.3359 17.5677C24.3359 17.5677 23.9802 17.6384 23.5538 17.6842C23.3614 17.706 23.1534 17.7227 22.959 17.7247C22.673 17.7247 22.414 17.705 22.2642 17.6207L20.3132 14.4685C20.3132 14.4685 21.8503 14.5246 22.4005 14.7014C22.9506 14.8782 24.6864 15.5106 24.6864 15.5106Z" fill="#FDB812"/>
<path d="M31.8052 36.5581H30.6934C30.656 36.5581 30.6237 36.5852 30.6154 36.6216L30.4355 37.44C30.4199 37.5118 30.4656 37.5825 30.5374 37.5981C30.5384 37.5981 30.5395 37.5981 30.5395 37.5992C30.5499 37.6002 30.5592 37.6002 30.5696 37.5992C30.9284 37.5992 31.1936 37.5711 31.6419 37.5711C31.9196 37.5711 32.7588 37.6002 33.1426 37.6002C33.5264 37.6002 33.5773 37.2216 33.4203 37.1842C32.7152 37.0303 32.1837 36.8181 31.958 36.6153C31.9164 36.5768 31.8613 36.5571 31.8052 36.5581Z" fill="#FDB812"/>
<path d="M28.9255 36.529H27.8138C27.7763 36.529 27.7441 36.556 27.7358 36.5924L27.56 37.4068C27.5444 37.4796 27.5912 37.5513 27.664 37.5669H27.6942C28.053 37.5617 28.3182 37.5388 28.7664 37.5388C29.0441 37.5388 29.8834 37.568 30.2671 37.568C30.6509 37.568 30.7008 37.1894 30.5438 37.152C29.8397 36.998 29.3083 36.7859 29.0878 36.5831C29.0431 36.5436 28.9848 36.5248 28.9255 36.529Z" fill="#FDB812"/>
<path d="M32.4699 36.6309L30.3036 36.6216L28.756 27.352C28.756 27.352 24.6439 27.9843 21.3346 27.1534C20.8749 27.0452 20.4308 26.884 20.0096 26.6708C17.1517 25.1514 17.0623 21.8005 17.0623 21.8005L23.5903 21.7412L24.0968 22.6647C24.0968 22.6647 29.4955 23.6704 31.1397 24.699C31.7096 25.0557 32.0445 26.598 32.238 28.4617C32.604 31.9748 32.4699 36.6309 32.4699 36.6309Z" fill="#263238"/>
<path opacity="0.2" d="M32.4697 36.6309L30.3034 36.6216L28.7558 27.352C28.7558 27.352 24.6437 27.9843 21.3344 27.1534C21.6578 25.8534 22.2028 24.6189 22.9453 23.504C22.9453 23.504 29.4734 23.9939 32.2378 28.4659C32.6038 31.9748 32.4697 36.6309 32.4697 36.6309Z" fill="black" fill-opacity="0.25"/>
<path d="M23.5082 21.2191H17.0623V21.8005L23.5903 21.7412L23.5082 21.2191Z" fill="black" fill-opacity="0.25"/>
<path d="M19.3637 20.9571H19.1338V21.9898H19.3637V20.9571Z" fill="#263238"/>
<path d="M22.625 20.9571H22.3952V21.9898H22.625V20.9571Z" fill="#263238"/>
<path d="M21.762 21.1172H20.5702V21.7682H21.762V21.1172Z" fill="white"/>
<path d="M23.504 21.216H17.056C17.0268 20.9383 17.004 20.4412 16.9873 19.8484C16.9811 19.5978 16.9748 19.3284 16.9696 19.0539C16.9613 18.6067 16.9561 18.1376 16.952 17.6863C16.9384 16.3498 16.9395 15.1726 16.9395 15.1726C16.9395 15.1726 17.7632 14.4238 19.7412 14.429C20.5545 14.4477 21.3522 14.6588 22.0698 15.0436C22.3912 15.8642 22.6678 16.7014 22.8966 17.5521C23.504 19.8079 23.504 21.216 23.504 21.216Z" fill="#FDB812"/>
<path d="M18.3092 14.743C18.563 15.4315 19.9171 15.4315 19.9171 15.4315C19.9171 15.4315 20.981 15.2162 20.8905 14.7254C20.5119 14.4321 20.4319 14.4061 20.3081 14.1856C20.2405 14.0535 20.2135 13.9038 20.2311 13.7561C20.2363 13.6739 20.2488 13.5928 20.2686 13.5138L18.3092 12.6578C18.5879 13.2673 18.9083 14.2646 18.3092 14.743Z" fill="#E4897B"/>
<path opacity="0.2" d="M18.7781 13.2361C18.8883 13.9953 19.843 14.1638 20.3079 14.1856C20.2403 14.0535 20.2133 13.9038 20.231 13.7561L18.7781 13.2361Z" fill="black" fill-opacity="0.25"/>
<path d="M19.8743 10.4198C19.8743 10.4198 21.0734 10.8597 20.3381 12.1774C19.9471 12.8783 19.1858 10.6382 19.1858 10.6382L19.8743 10.4198Z" fill="#263238"/>
<path d="M18.8239 13.6614C19.2128 13.9755 19.764 13.9911 20.1707 13.6989C20.4296 13.52 20.6106 13.2496 20.6771 12.9418C20.6865 12.8991 20.6938 12.8554 20.699 12.8118C20.7853 12.0026 20.4983 10.7203 19.5976 10.4832C18.957 10.3085 18.2945 10.686 18.1198 11.3277C18.1187 11.3308 18.1177 11.3339 18.1177 11.336C18.0667 11.518 18.0615 11.7104 18.1 11.8955C18.2643 12.7566 18.3195 13.2735 18.8239 13.6614Z" fill="#E4897B"/>
<path d="M20.5401 11.9787C20.8489 12.0952 21.0299 12.4155 20.9717 12.74C20.8417 13.6136 19.8349 14.2917 18.8199 13.6614C17.9109 13.0978 20.5401 11.9787 20.5401 11.9787Z" fill="#E4897B"/>
<path d="M20.0094 11.9288C20.1218 12.1347 20.2611 12.3251 20.4254 12.4925C20.335 12.5747 20.2122 12.6121 20.0916 12.5965L20.0094 11.9288Z" fill="#DE5753"/>
<path d="M20.4808 11.361C20.4652 11.3651 20.4496 11.361 20.4381 11.3495C20.3664 11.2694 20.2613 11.2289 20.1542 11.2393C20.1303 11.2403 20.1105 11.2216 20.1105 11.1977C20.1095 11.179 20.1219 11.1613 20.1396 11.1561C20.2738 11.1405 20.408 11.1904 20.4984 11.2913C20.5151 11.3079 20.5151 11.3339 20.4984 11.3506C20.4932 11.3547 20.487 11.3589 20.4808 11.361Z" fill="#263238"/>
<path d="M19.2076 11.5991C19.2003 11.6033 19.192 11.6064 19.1837 11.6054C19.1618 11.6012 19.1473 11.5794 19.1525 11.5575C19.1525 11.5565 19.1525 11.5565 19.1525 11.5555C19.1816 11.4223 19.2741 11.3131 19.4 11.2611C19.4218 11.2539 19.4457 11.2653 19.453 11.2871C19.4603 11.309 19.4489 11.3319 19.4281 11.3402C19.3324 11.3849 19.2627 11.4723 19.2398 11.5752C19.2336 11.5877 19.2211 11.5971 19.2076 11.5991Z" fill="#263238"/>
<path d="M18.6004 10.7193L18.7044 10.8701C18.4351 11.0147 18.5515 11.3371 18.6358 11.4775C18.8157 11.777 18.7231 12.3095 18.511 12.5507C18.511 12.5507 18.4787 12.4124 18.3675 12.4665C18.2562 12.5206 18.4174 13.2392 18.7086 13.545C18.7086 13.545 18.3061 13.2933 17.9743 12.5674C17.6686 11.8955 17.3992 11.2299 17.7393 10.7193H18.6004Z" fill="#263238"/>
<path d="M17.8109 12.6568C17.9336 12.8419 18.124 12.9709 18.3413 13.0156C18.6304 13.0728 18.7511 12.8076 18.6533 12.5486C18.5639 12.3178 18.306 12.0016 18.0293 12.065C17.7527 12.1285 17.6643 12.428 17.8109 12.6568Z" fill="#E4897B"/>
<path d="M20.0927 12.8482C19.7807 12.8482 19.7131 12.6163 19.7121 12.6142C19.7069 12.5934 19.7193 12.5715 19.7401 12.5663C19.7609 12.5611 19.7828 12.5736 19.788 12.5944C19.788 12.6027 19.84 12.7702 20.0927 12.7702H20.1031C20.1249 12.7733 20.1395 12.7941 20.1353 12.8159C20.1322 12.8326 20.1197 12.8461 20.1031 12.8482H20.0927Z" fill="#263238"/>
<path d="M19.5747 12.9043C19.5664 12.9033 19.5591 12.8991 19.5529 12.8939C19.5373 12.8794 19.5373 12.8544 19.5519 12.8398C19.5519 12.8398 19.5519 12.8398 19.5529 12.8388C19.8129 12.5736 19.6964 12.3614 19.6912 12.3531C19.6808 12.3344 19.6871 12.3115 19.7047 12.3001C19.7047 12.3001 19.7047 12.3001 19.7058 12.3001C19.7245 12.2886 19.7474 12.2949 19.7588 12.3136C19.7651 12.324 19.9117 12.584 19.608 12.8929C19.5997 12.9022 19.5872 12.9064 19.5747 12.9043Z" fill="#E4897B"/>
<g opacity="0.2">
<path d="M19.5747 12.9043C19.5664 12.9033 19.5591 12.8991 19.5529 12.8939C19.5373 12.8794 19.5373 12.8544 19.5519 12.8398C19.5519 12.8398 19.5519 12.8398 19.5529 12.8388C19.8129 12.5736 19.6964 12.3614 19.6912 12.3531C19.6808 12.3344 19.6871 12.3115 19.7047 12.3001C19.7047 12.3001 19.7047 12.3001 19.7058 12.3001C19.7245 12.2886 19.7474 12.2949 19.7588 12.3136C19.7651 12.324 19.9117 12.584 19.608 12.8929C19.5997 12.9022 19.5872 12.9064 19.5747 12.9043Z" fill="black" fill-opacity="0.25"/>
</g>
<path d="M19.4406 11.9891C19.4406 11.9891 19.4624 11.8799 19.53 11.8602C19.5976 11.8404 19.6558 11.9423 19.6558 11.9423C19.5945 11.8935 19.505 11.9039 19.4562 11.9652C19.4499 11.9725 19.4447 11.9808 19.4406 11.9891Z" fill="#263238"/>
<path d="M20.2196 11.856C20.2196 11.856 20.2415 11.7468 20.3091 11.7271C20.3767 11.7073 20.4349 11.8092 20.4349 11.8092C20.3735 11.7603 20.2841 11.7707 20.2352 11.8321C20.229 11.8394 20.2238 11.8477 20.2196 11.856Z" fill="#263238"/>
<path d="M17.7392 11.0157C17.7392 11.0157 17.396 10.685 18.1552 10.2513C18.9144 9.81761 19.995 10.0433 20.2695 10.4198C20.5441 10.7962 19.9097 11.0198 19.8806 10.971C19.8515 10.9221 19.9253 10.7931 19.9253 10.7931C19.9253 10.7931 19.5093 11.0739 19.3918 10.9782C19.2743 10.8826 19.4396 10.7796 19.4396 10.7796C19.4396 10.7796 18.435 11.2653 17.7392 11.0157Z" fill="#263238"/>
<path d="M17.0621 21.8005C17.0621 21.8005 16.3049 25.6485 18.3101 26.6708C20.3152 27.6932 23.6921 27.5652 23.6921 27.5652L27.4059 36.8264L29.3684 36.6184C29.3684 36.6184 28.0798 25.896 26.4501 24.6168C26.0092 24.2726 21.1659 23.244 21.1659 23.244L17.0621 21.8005Z" fill="#263238"/>
<path d="M24.7831 14.0452L24.3983 13.1404C24.3983 13.1404 23.5029 12.5591 23.4363 12.5403C23.3698 12.5216 23.1784 13.7727 23.2471 13.9079C23.3157 14.0431 23.8087 14.2761 24.0073 14.3447C24.1259 14.3853 24.2475 14.4155 24.3713 14.4321L24.7831 14.0452Z" fill="#E4897B"/>
<path d="M22.829 12.584C22.7489 12.5653 22.6689 12.6142 22.6481 12.6942C22.6356 12.7577 22.5992 12.7452 22.5805 12.7712C22.5617 12.7972 22.5805 12.8606 22.5805 12.869C22.5805 12.8773 22.5253 13.0125 22.62 13.0676C22.7146 13.1227 22.932 13.2184 23.0225 13.0458C23.1129 12.8731 22.9715 12.6069 22.829 12.584Z" fill="#FDB812"/>
<path opacity="0.4" d="M22.829 12.584C22.7489 12.5653 22.6689 12.6142 22.6481 12.6942C22.6356 12.7577 22.5992 12.7452 22.5805 12.7712C22.5617 12.7972 22.5805 12.8606 22.5805 12.869C22.5805 12.8773 22.5253 13.0125 22.62 13.0676C22.7146 13.1227 22.932 13.2184 23.0225 13.0458C23.1129 12.8731 22.9715 12.6069 22.829 12.584Z" fill="white"/>
<path d="M23.9647 13.3359C23.9647 13.3661 23.9616 13.3962 23.9554 13.4254C23.8794 13.7374 23.3834 13.8892 22.8488 13.7602C22.6314 13.7124 22.4286 13.6147 22.256 13.4753C22.2466 13.4483 22.2404 13.4202 22.2362 13.391C22.2446 13.3838 22.2518 13.3754 22.2591 13.3661C22.2945 13.3266 22.3101 13.2735 22.3007 13.2215C22.2799 13.1238 22.4162 13.0884 22.4162 13.0884C22.4151 13.0863 22.4151 13.0832 22.4162 13.0811C22.4172 13.0728 22.4203 13.0634 22.4245 13.0562C22.465 12.9834 22.6023 12.9823 22.6169 12.9823L22.7115 13.0416C22.8072 13.025 22.8706 12.9334 22.854 12.8378C22.854 12.8367 22.854 12.8346 22.853 12.8336C22.8498 12.817 22.8457 12.8014 22.8394 12.7858C22.8634 12.7639 22.8738 12.7317 22.8675 12.7005C22.8675 12.687 22.8654 12.6734 22.8613 12.6599C22.855 12.6329 22.8426 12.6069 22.8259 12.584C22.9247 12.5892 23.0235 12.6027 23.1192 12.6266C23.608 12.739 23.9595 13.0458 23.9647 13.3359Z" fill="#FDB812"/>
<g opacity="0.6">
<path d="M23.9647 13.3359C23.9647 13.3661 23.9616 13.3962 23.9554 13.4254C23.8794 13.7374 23.3834 13.8892 22.8488 13.7602C22.6314 13.7124 22.4286 13.6147 22.256 13.4753C22.2466 13.4483 22.2404 13.4202 22.2362 13.391C22.2446 13.3838 22.2518 13.3754 22.2591 13.3661C22.2945 13.3266 22.3101 13.2735 22.3007 13.2215C22.2799 13.1238 22.4162 13.0884 22.4162 13.0884C22.4151 13.0863 22.4151 13.0832 22.4162 13.0811C22.4172 13.0728 22.4203 13.0634 22.4245 13.0562C22.465 12.9834 22.6023 12.9823 22.6169 12.9823L22.7115 13.0416C22.8072 13.025 22.8706 12.9334 22.854 12.8378C22.854 12.8367 22.854 12.8346 22.853 12.8336C22.8498 12.817 22.8457 12.8014 22.8394 12.7858C22.8634 12.7639 22.8738 12.7317 22.8675 12.7005C22.8675 12.687 22.8654 12.6734 22.8613 12.6599C22.855 12.6329 22.8426 12.6069 22.8259 12.584C22.9247 12.5892 23.0235 12.6027 23.1192 12.6266C23.608 12.739 23.9595 13.0458 23.9647 13.3359Z" fill="white"/>
</g>
<path d="M23.9647 13.3359C23.8763 13.52 23.8107 13.623 23.7223 13.5127C23.6339 13.4025 23.5871 13.519 23.4634 13.651C23.3396 13.7831 23.1878 13.6833 23.0973 13.5907C23.0068 13.4982 22.7853 13.6656 22.6626 13.5782C22.5399 13.4909 22.5503 13.4316 22.362 13.4212C22.3204 13.4202 22.2819 13.3994 22.258 13.3661C22.2934 13.3266 22.309 13.2735 22.2996 13.2215C22.2788 13.1238 22.4151 13.0884 22.4151 13.0884C22.414 13.0863 22.414 13.0832 22.4151 13.0811C22.4161 13.0728 22.4192 13.0634 22.4234 13.0562C22.4639 12.9834 22.6012 12.9823 22.6158 12.9823L22.7104 13.0416C22.8061 13.025 22.8695 12.9334 22.8529 12.8378C22.8529 12.8367 22.8529 12.8346 22.8519 12.8336C22.8487 12.817 22.8446 12.8014 22.8383 12.7858C22.8623 12.7639 22.8727 12.7317 22.8664 12.7005C22.8664 12.687 22.8643 12.6734 22.8602 12.6599C22.8539 12.6329 22.8415 12.6069 22.8248 12.584C22.9236 12.5892 23.0224 12.6027 23.1181 12.6266C23.6079 12.739 23.9595 13.0458 23.9647 13.3359Z" fill="#FDB812"/>
<g opacity="0.2">
<path d="M22.62 12.9823L22.7146 13.0416C22.6813 13.025 22.6501 13.0052 22.62 12.9823Z" fill="black" fill-opacity="0.25"/>
<path d="M23.4716 13.1258C23.4716 13.1383 23.403 13.181 23.247 13.1768C23.1607 13.1737 23.0744 13.1622 22.9912 13.1404C22.9048 13.1206 22.8216 13.0926 22.7416 13.0551L22.7145 13.0416C22.8102 13.025 22.8736 12.9334 22.857 12.8378C22.857 12.8367 22.857 12.8346 22.856 12.8336C22.9256 12.8346 22.9964 12.843 23.064 12.8606C23.3656 12.9282 23.4737 13.0946 23.4716 13.1258Z" fill="black" fill-opacity="0.25"/>
</g>
<g opacity="0.2">
<path d="M23.2469 13.1768C23.1606 13.1737 23.0753 13.1622 22.9911 13.1414C22.9048 13.1217 22.8216 13.0926 22.7415 13.0551C22.8268 13.027 22.9173 13.0229 23.0046 13.0437C23.0951 13.0676 23.1783 13.1134 23.2469 13.1768Z" fill="black" fill-opacity="0.25"/>
</g>
<path d="M22.9163 12.7202C22.9132 12.7213 22.9101 12.7213 22.9069 12.7202C22.9038 12.7213 22.9007 12.7213 22.8976 12.7202L22.8705 12.6953C22.8705 12.6818 22.8685 12.6682 22.8643 12.6547L22.9153 12.7005C22.9215 12.7057 22.9215 12.714 22.9163 12.7202Z" fill="white"/>
<path d="M23.1524 12.767C23.1461 12.767 23.1409 12.7629 23.1399 12.7566C23.1378 12.7504 23.142 12.7431 23.1482 12.741C23.1482 12.741 23.1482 12.741 23.1492 12.741L23.2335 12.7202C23.2408 12.7182 23.247 12.7223 23.2491 12.7296C23.2512 12.7369 23.247 12.7431 23.2397 12.7452L23.1555 12.766L23.1524 12.767Z" fill="white"/>
<path d="M23.4238 12.9303C23.4186 12.9303 23.4134 12.9272 23.4113 12.922L23.3864 12.8648C23.3833 12.8596 23.3853 12.8523 23.3905 12.8492C23.3916 12.8492 23.3926 12.8482 23.3937 12.8482C23.3999 12.8451 23.4072 12.8482 23.4103 12.8544L23.4353 12.9116C23.4384 12.9179 23.4353 12.9262 23.429 12.9293L23.4238 12.9303Z" fill="white"/>
<path d="M22.7021 13.2319C22.699 13.233 22.6948 13.233 22.6917 13.2319L22.5825 13.0895C22.5773 13.0843 22.5773 13.0759 22.5825 13.0707C22.5877 13.0655 22.595 13.0655 22.6002 13.0707L22.7042 13.2132C22.7094 13.2184 22.7094 13.2267 22.7042 13.2319C22.7032 13.2319 22.7032 13.2319 22.7021 13.2319Z" fill="white"/>
<path d="M22.5035 13.104C22.5024 13.1092 22.4972 13.1134 22.492 13.1134H22.4868L22.4182 13.0874C22.4192 13.0791 22.4224 13.0697 22.4265 13.0624L22.4962 13.0884C22.5024 13.0915 22.5056 13.0978 22.5035 13.104Z" fill="white"/>
<path d="M22.9547 13.2351H22.8206C22.8133 13.234 22.8081 13.2288 22.8081 13.2215C22.8081 13.2143 22.8133 13.2091 22.8206 13.2091H22.8216H22.9547C22.962 13.2091 22.9683 13.2153 22.9683 13.2226C22.9683 13.2299 22.9631 13.2351 22.9558 13.2351H22.9547Z" fill="white"/>
<path d="M23.2439 13.363C23.2398 13.363 23.2356 13.3609 23.2325 13.3578L23.1826 13.2871C23.1784 13.2819 23.1784 13.2746 23.1826 13.2694C23.1878 13.2642 23.1961 13.2642 23.2013 13.2694L23.2512 13.3401C23.2554 13.3453 23.2554 13.3526 23.2512 13.3578C23.2491 13.3609 23.247 13.3619 23.2439 13.363Z" fill="white"/>
<path d="M23.3864 13.3391H23.3812C23.375 13.3359 23.3719 13.3276 23.375 13.3214L23.4083 13.2486C23.4114 13.2423 23.4197 13.2392 23.426 13.2423C23.4322 13.2455 23.4353 13.2527 23.4322 13.259L23.3989 13.3328C23.3958 13.337 23.3916 13.3391 23.3864 13.3391Z" fill="white"/>
<path d="M23.6006 13.234C23.5964 13.234 23.5923 13.2319 23.5902 13.2278L23.5465 13.1612C23.5413 13.156 23.5413 13.1477 23.5465 13.1425C23.5517 13.1373 23.559 13.1373 23.5642 13.1425L23.6089 13.2091C23.6131 13.2143 23.6131 13.2226 23.6089 13.2278L23.6006 13.234Z" fill="white"/>
<path d="M23.769 13.104H23.7638L23.6401 13.0458C23.6338 13.0416 23.6328 13.0333 23.6369 13.0271C23.6401 13.0229 23.6463 13.0208 23.6515 13.0219L23.7742 13.0801C23.7805 13.0822 23.7836 13.0895 23.7815 13.0967C23.7815 13.0967 23.7815 13.0978 23.7805 13.0978C23.7784 13.1019 23.7742 13.104 23.769 13.104Z" fill="white"/>
<path d="M23.712 13.1966C23.7058 13.1934 23.7016 13.1872 23.7027 13.1799L23.7141 13.1352C23.7152 13.129 23.7204 13.1248 23.7266 13.1248C23.7276 13.1248 23.7287 13.1248 23.7297 13.1258C23.736 13.1279 23.7401 13.1342 23.7391 13.1414L23.7287 13.1862C23.7266 13.1934 23.7193 13.1976 23.712 13.1966Z" fill="white"/>
<path d="M23.5716 12.9511C23.5674 12.9511 23.5633 12.9491 23.5601 12.9449C23.557 12.9387 23.5591 12.9303 23.5653 12.9272L23.5976 12.9085C23.6028 12.9043 23.6101 12.9043 23.6153 12.9085C23.6205 12.9137 23.6205 12.921 23.6153 12.9262L23.582 12.9449L23.5716 12.9511Z" fill="white"/>
<path d="M23.454 12.8045L23.35 12.7733C23.3437 12.7712 23.3396 12.765 23.3416 12.7577V12.7567C23.3437 12.7504 23.351 12.7463 23.3572 12.7483L23.4612 12.7795C23.4685 12.7816 23.4716 12.7889 23.4706 12.7962C23.4685 12.8024 23.4612 12.8066 23.454 12.8045Z" fill="white"/>
<path d="M23.0702 12.7057H23.065L22.9984 12.6755C22.9922 12.6734 22.988 12.6662 22.9901 12.6599C22.9901 12.6589 22.9901 12.6589 22.9911 12.6578C22.9943 12.6516 23.0026 12.6485 23.0088 12.6516L23.0754 12.6818C23.0816 12.6849 23.0847 12.6932 23.0816 12.6994C23.0795 12.7036 23.0754 12.7057 23.0702 12.7057Z" fill="white"/>
<path d="M22.9674 12.7535C22.9622 12.7535 22.958 12.7504 22.9549 12.7462C22.9518 12.74 22.9549 12.7317 22.9611 12.7286L23.0038 12.7078C23.009 12.7046 23.0162 12.7067 23.0194 12.7119C23.0194 12.713 23.0204 12.713 23.0204 12.714C23.0246 12.7192 23.0246 12.7254 23.0204 12.7306L22.9778 12.7514L22.9674 12.7535Z" fill="white"/>
<path d="M22.5295 13.2195L22.4151 13.2132C22.4078 13.2122 22.4026 13.2059 22.4026 13.1987C22.4036 13.1914 22.4088 13.1862 22.4161 13.1872L22.5316 13.1935C22.5388 13.1935 22.544 13.1987 22.544 13.2059V13.207C22.543 13.2143 22.5368 13.2205 22.5295 13.2195Z" fill="white"/>
<path d="M22.7333 13.3567H22.7271L22.6501 13.3099C22.6449 13.3047 22.6449 13.2974 22.6501 13.2922C22.6553 13.287 22.6626 13.287 22.6678 13.2922L22.7447 13.339C22.7499 13.3442 22.7499 13.3515 22.7447 13.3567C22.7416 13.3588 22.7364 13.3588 22.7333 13.3567Z" fill="white"/>
<path d="M23.0036 13.3858C22.9974 13.3858 22.9922 13.3817 22.9901 13.3754L22.9818 13.3307C22.9808 13.3234 22.9849 13.3172 22.9922 13.3162C22.9995 13.3151 23.0057 13.3193 23.0078 13.3266L23.0161 13.3702C23.0172 13.3775 23.013 13.3838 23.0057 13.3858H23.0036Z" fill="white"/>
<path d="M23.1306 13.4233C23.1274 13.4243 23.1243 13.4243 23.1212 13.4233C23.116 13.4181 23.116 13.4108 23.1212 13.4056L23.1628 13.3661C23.168 13.3609 23.1753 13.3609 23.1805 13.3661C23.1857 13.3713 23.1857 13.3796 23.1805 13.3848L23.1389 13.4243C23.1358 13.4254 23.1326 13.4243 23.1306 13.4233Z" fill="white"/>
<path d="M23.3999 13.4597L23.3063 13.4378C23.3001 13.4347 23.2959 13.4285 23.2969 13.4212C23.299 13.415 23.3063 13.4108 23.3125 13.4118L23.4061 13.4347C23.4134 13.4368 23.4176 13.443 23.4165 13.4503C23.4145 13.4576 23.4072 13.4607 23.3999 13.4597Z" fill="white"/>
<path d="M23.5039 13.3661C23.4976 13.3661 23.4935 13.3619 23.4914 13.3567C23.4893 13.3505 23.4935 13.3432 23.4997 13.3411C23.4997 13.3411 23.4997 13.3411 23.5008 13.3411L23.5746 13.3183C23.5819 13.3162 23.5892 13.3203 23.5912 13.3266C23.5933 13.3339 23.5892 13.3411 23.5819 13.3432L23.508 13.3661H23.5039Z" fill="white"/>
<path d="M23.712 13.312C23.7068 13.312 23.7016 13.3089 23.6995 13.3047C23.6964 13.2985 23.6995 13.2912 23.7058 13.2881L23.7817 13.2506C23.7879 13.2475 23.7963 13.2506 23.7994 13.2569C23.8015 13.2631 23.7994 13.2714 23.7931 13.2746L23.7172 13.311L23.712 13.312Z" fill="white"/>
<path d="M18.1906 14.6099C18.1906 14.6099 16.9593 14.6755 16.1564 15.7175C15.3535 16.7596 14.6827 18.2603 14.6827 18.2603L16.6088 19.3877L18.1345 17.9723C18.1345 17.9723 17.757 15.0197 18.1906 14.6099Z" fill="#FDB812"/>
<path opacity="0.6" d="M23.5039 21.216H17.0559C17.0279 20.9456 17.005 20.4683 16.9883 19.8963C16.9883 19.8807 16.9883 19.864 16.9883 19.8484C16.9821 19.5978 16.9759 19.3284 16.9707 19.0539C17.0747 18.6597 17.1787 18.2811 17.2899 17.9265C17.5759 16.9832 17.915 16.0566 18.3039 15.1507C20.0231 16.2417 21.0683 15.0561 21.0683 15.0561C22.1249 15.8247 22.7115 17.0945 22.8976 17.5521C23.5039 19.8079 23.5039 21.216 23.5039 21.216Z" fill="white"/>
<path d="M19.4479 16.0992C19.4479 16.4216 19.0007 16.6837 18.4506 16.6837C17.9472 16.6837 17.5302 16.4642 17.4626 16.1803C17.4553 16.1543 17.4522 16.1262 17.4522 16.0992C17.4522 15.7758 17.8994 15.5137 18.4506 15.5137C18.9487 15.5137 19.3637 15.729 19.4365 16.0098C19.4438 16.0389 19.4479 16.069 19.4479 16.0992Z" fill="#263238"/>
<path d="M19.4355 16.0098C19.3929 16.2094 19.3533 16.3218 19.241 16.2386C19.1287 16.1554 19.111 16.276 19.0216 16.4341C18.9321 16.5922 18.7616 16.5298 18.6513 16.4611C18.5411 16.3925 18.3705 16.6057 18.226 16.5506C18.0814 16.4954 18.0825 16.4341 17.8973 16.4684C17.7122 16.5027 17.6779 16.173 17.5333 16.2094C17.5053 16.2198 17.4741 16.2074 17.4616 16.1803C17.4543 16.1543 17.4512 16.1262 17.4512 16.0992C17.4512 15.7758 17.8984 15.5137 18.4496 15.5137C18.9477 15.5137 19.3627 15.729 19.4355 16.0098Z" fill="#263238"/>
<path opacity="0.2" d="M19.4355 16.0098C19.3929 16.2094 19.3533 16.3218 19.241 16.2386C19.1287 16.1554 19.111 16.276 19.0216 16.4341C18.9321 16.5922 18.7616 16.5298 18.6513 16.4611C18.5411 16.3925 18.3705 16.6057 18.226 16.5506C18.0814 16.4954 18.0825 16.4341 17.8973 16.4684C17.7122 16.5027 17.6779 16.173 17.5333 16.2094C17.5053 16.2198 17.4741 16.2074 17.4616 16.1803C17.4543 16.1543 17.4512 16.1262 17.4512 16.0992C17.4512 15.7758 17.8984 15.5137 18.4496 15.5137C18.9477 15.5137 19.3627 15.729 19.4355 16.0098Z" fill="white"/>
<path opacity="0.2" d="M18.9071 15.9214C18.9071 15.9339 18.853 15.9911 18.6991 16.0254C18.6149 16.0431 18.5285 16.0514 18.4422 16.0503C18.3538 16.0514 18.2654 16.0431 18.1791 16.0254C18.02 15.9921 17.9597 15.9339 17.9597 15.9214C17.9597 15.8902 18.1365 15.7539 18.4474 15.7539C18.7584 15.7539 18.9019 15.8902 18.9071 15.9214Z" fill="black" fill-opacity="0.25"/>
<path opacity="0.2" d="M18.7002 16.0233C18.616 16.041 18.5297 16.0493 18.4434 16.0483C18.355 16.0493 18.2666 16.041 18.1802 16.0233C18.2562 15.9755 18.3435 15.9505 18.433 15.9505C18.5266 15.9526 18.6181 15.9775 18.7002 16.0233Z" fill="black" fill-opacity="0.25"/>
<path d="M17.7839 15.963C17.7797 15.963 17.7755 15.9609 17.7735 15.9578L17.7048 15.8694C17.7007 15.8642 17.7007 15.8558 17.7048 15.8506C17.71 15.8454 17.7183 15.8454 17.7235 15.8506L17.7922 15.939C17.7963 15.9442 17.7963 15.9526 17.7922 15.9578L17.7839 15.963Z" fill="white"/>
<path d="M17.8693 15.7674H17.7944C17.7872 15.7674 17.7809 15.7612 17.7809 15.7539C17.7809 15.7466 17.7861 15.7414 17.7934 15.7414H17.7944H17.8693C17.8766 15.7404 17.8818 15.7456 17.8828 15.7529V15.7539C17.8828 15.7612 17.8766 15.7674 17.8693 15.7674Z" fill="white"/>
<path d="M17.9981 15.729H17.9919C17.9856 15.7259 17.9825 15.7175 17.9856 15.7113L18.0075 15.6603C18.0096 15.6541 18.0168 15.651 18.0231 15.653C18.0231 15.653 18.0231 15.653 18.0241 15.653C18.0304 15.6551 18.0345 15.6624 18.0324 15.6687C18.0324 15.6697 18.0324 15.6697 18.0314 15.6707L18.0096 15.7217C18.0075 15.7259 18.0033 15.729 17.9981 15.729Z" fill="white"/>
<path d="M18.2603 15.6634H18.2541L18.1948 15.6312C18.1896 15.626 18.1896 15.6187 18.1948 15.6135C18.1979 15.6073 18.2052 15.6052 18.2114 15.6083L18.2717 15.6406C18.278 15.6437 18.2801 15.651 18.278 15.6572C18.278 15.6572 18.278 15.6582 18.2769 15.6582C18.2749 15.6645 18.2676 15.6666 18.2624 15.6645C18.2613 15.6645 18.2613 15.6634 18.2603 15.6634Z" fill="white"/>
<path d="M18.512 15.6468C18.5068 15.6468 18.5026 15.6437 18.5006 15.6395C18.4974 15.6343 18.4995 15.627 18.5047 15.6239C18.5058 15.6239 18.5058 15.6229 18.5068 15.6229L18.5838 15.5823C18.59 15.5792 18.5973 15.5813 18.6004 15.5886C18.6035 15.5948 18.6014 15.6021 18.5952 15.6052L18.5182 15.6458L18.512 15.6468Z" fill="white"/>
<path d="M18.8105 15.7425C18.8064 15.7425 18.8032 15.7404 18.8001 15.7373L18.7627 15.6874C18.7575 15.6822 18.7575 15.6739 18.7627 15.6687C18.7679 15.6635 18.7752 15.6635 18.7804 15.6687L18.8178 15.7186C18.823 15.7238 18.823 15.7311 18.8178 15.7363C18.8168 15.7394 18.8136 15.7415 18.8105 15.7425Z" fill="white"/>
<path d="M18.1801 16.2053C18.177 16.2063 18.1749 16.2063 18.1718 16.2053L18.0324 16.0919C18.0272 16.0878 18.0262 16.0795 18.0314 16.0732C18.0366 16.067 18.0439 16.067 18.0501 16.0722L18.1895 16.1855C18.1947 16.1907 18.1947 16.198 18.1895 16.2032C18.1864 16.2043 18.1832 16.2053 18.1801 16.2053Z" fill="white"/>
<path d="M17.9473 16.1335L17.8433 16.1221C17.836 16.12 17.8319 16.1127 17.8339 16.1055C17.835 16.1013 17.8391 16.0971 17.8433 16.0961L17.9473 16.1086C17.9546 16.1086 17.9598 16.1148 17.9587 16.1221V16.1231C17.9577 16.1283 17.9525 16.1325 17.9473 16.1335Z" fill="white"/>
<path d="M17.7631 16.0607C17.761 16.0618 17.7579 16.0618 17.7558 16.0607L17.6841 16.0119C17.6789 16.0067 17.6789 15.9994 17.6841 15.9942C17.6893 15.99 17.6965 15.99 17.7017 15.9942L17.7735 16.0431C17.7777 16.0483 17.7777 16.0566 17.7735 16.0618C17.7704 16.0628 17.7662 16.0618 17.7631 16.0607Z" fill="white"/>
<path d="M18.2967 16.1793C18.2905 16.1793 18.2853 16.1751 18.2843 16.1689C18.2822 16.1627 18.2863 16.1554 18.2926 16.1533C18.2926 16.1533 18.2926 16.1533 18.2936 16.1533L18.4236 16.1231C18.4299 16.1211 18.4361 16.1242 18.4382 16.1294C18.4382 16.1304 18.4392 16.1315 18.4392 16.1325C18.4413 16.1387 18.4371 16.146 18.4309 16.1481C18.4309 16.1481 18.4309 16.1481 18.4299 16.1481L18.2999 16.1793H18.2967Z" fill="white"/>
<path d="M18.7375 16.2053C18.7344 16.2063 18.7313 16.2063 18.7281 16.2053L18.6637 16.1481C18.6585 16.1429 18.6585 16.1356 18.6637 16.1304C18.6689 16.1262 18.6772 16.1262 18.6824 16.1304L18.7479 16.1876C18.7531 16.1928 18.7531 16.2001 18.7479 16.2053C18.7448 16.2063 18.7406 16.2063 18.7375 16.2053Z" fill="white"/>
<path d="M18.8708 16.1481C18.8636 16.147 18.8594 16.1408 18.8604 16.1346C18.8604 16.1335 18.8604 16.1335 18.8604 16.1325L18.876 16.0545C18.8771 16.0472 18.8833 16.043 18.8906 16.0441C18.8979 16.0451 18.902 16.0514 18.901 16.0586L18.8854 16.1377C18.8844 16.145 18.8781 16.1491 18.8708 16.1481Z" fill="white"/>
<path d="M19.0539 15.9963C19.0507 15.9973 19.0487 15.9973 19.0455 15.9963L18.9873 15.9422C18.9831 15.9359 18.9842 15.9276 18.9904 15.9235C18.9946 15.9203 19.0008 15.9203 19.005 15.9224L19.0632 15.9775C19.0674 15.9827 19.0674 15.9911 19.0632 15.9963C19.0601 15.9973 19.057 15.9973 19.0539 15.9963Z" fill="white"/>
<path d="M19.1879 15.8309L19.0538 15.8038C19.0465 15.8038 19.0403 15.7976 19.0403 15.7903C19.0403 15.783 19.0465 15.7768 19.0538 15.7768C19.0559 15.7768 19.0569 15.7768 19.059 15.7778L19.1921 15.8059C19.1994 15.807 19.2035 15.8132 19.2025 15.8205C19.2015 15.8278 19.1952 15.8319 19.1879 15.8309Z" fill="white"/>
<path d="M19.1515 15.9339C19.1442 15.9339 19.139 15.9287 19.139 15.9214V15.8746C19.139 15.8673 19.1442 15.8621 19.1515 15.8621C19.1588 15.8611 19.164 15.8663 19.165 15.8735V15.8746V15.9214C19.165 15.9287 19.1598 15.9339 19.1525 15.9339H19.1515Z" fill="white"/>
<path d="M18.9602 15.729C18.9529 15.729 18.9467 15.7227 18.9467 15.7154C18.9467 15.7123 18.9477 15.7092 18.9508 15.7061L18.9789 15.6801C18.9841 15.6749 18.9924 15.6759 18.9966 15.6811C19.0018 15.6863 19.0008 15.6946 18.9966 15.6988L18.9685 15.7248C18.9664 15.7269 18.9633 15.729 18.9602 15.729Z" fill="white"/>
<path d="M18.8104 15.6135L18.7064 15.6063C18.6991 15.6063 18.6939 15.6011 18.6939 15.5938C18.6939 15.5865 18.6991 15.5813 18.7064 15.5813L18.8104 15.5875C18.8177 15.5855 18.825 15.5896 18.827 15.5969C18.8291 15.6042 18.825 15.6115 18.8177 15.6135C18.8156 15.6146 18.8125 15.6146 18.8104 15.6135Z" fill="white"/>
<path d="M18.4153 15.6063L18.3435 15.5927C18.3363 15.5907 18.3321 15.5844 18.3331 15.5771C18.3342 15.5709 18.3415 15.5657 18.3477 15.5678C18.3477 15.5678 18.3477 15.5678 18.3487 15.5678L18.4205 15.5813C18.4278 15.5823 18.4319 15.5886 18.4309 15.5959C18.4288 15.6031 18.4226 15.6073 18.4153 15.6063Z" fill="white"/>
<path d="M18.3257 15.677C18.3226 15.678 18.3184 15.678 18.3153 15.677C18.3111 15.6718 18.3111 15.6634 18.3153 15.6582L18.3517 15.6281C18.3569 15.6239 18.3652 15.6239 18.3704 15.6291C18.3756 15.6343 18.3746 15.6426 18.3694 15.6478L18.333 15.678C18.3299 15.678 18.3278 15.678 18.3257 15.677Z" fill="white"/>
<path d="M18.0097 15.7903C18.0045 15.7903 18.0003 15.7872 17.9982 15.7831C17.9951 15.7768 17.9962 15.7695 18.0024 15.7664C18.0024 15.7664 18.0034 15.7664 18.0034 15.7654L18.1137 15.704C18.121 15.7019 18.1282 15.7071 18.1303 15.7144C18.1314 15.7186 18.1303 15.7238 18.1262 15.7269L18.0159 15.7883L18.0097 15.7903Z" fill="white"/>
<path d="M17.6145 15.9255C17.6083 15.9235 17.6041 15.9162 17.6062 15.9089L17.628 15.834C17.6301 15.8267 17.6374 15.8226 17.6447 15.8247C17.6509 15.8267 17.6551 15.834 17.653 15.8413L17.6311 15.9162C17.6291 15.9235 17.6218 15.9276 17.6145 15.9255Z" fill="white"/>
<path d="M17.8962 16.2531C17.8899 16.2531 17.8847 16.249 17.8837 16.2427C17.8816 16.2365 17.8858 16.2292 17.892 16.2271C17.892 16.2271 17.8931 16.2271 17.8941 16.2271L18.0075 16.2063C18.0147 16.2053 18.021 16.2094 18.022 16.2167C18.0231 16.224 18.0189 16.2302 18.0116 16.2323L17.8983 16.2531H17.8962Z" fill="white"/>
<path d="M18.2395 16.3186L18.1532 16.2916C18.147 16.2885 18.1428 16.2822 18.1449 16.275C18.147 16.2687 18.1532 16.2646 18.1605 16.2666H18.1615L18.2468 16.2937C18.253 16.2958 18.2572 16.302 18.2551 16.3093V16.3103C18.253 16.3166 18.2458 16.3207 18.2395 16.3186Z" fill="white"/>
<path d="M18.5119 16.2843C18.5067 16.2843 18.5025 16.2812 18.5005 16.276L18.4817 16.2355C18.4786 16.2292 18.4817 16.2209 18.488 16.2178C18.4942 16.2147 18.5025 16.2178 18.5057 16.224L18.5244 16.2656C18.5275 16.2708 18.5254 16.2781 18.5202 16.2812C18.5192 16.2812 18.5181 16.2823 18.5171 16.2823L18.5119 16.2843Z" fill="white"/>
<path d="M18.6409 16.2906C18.6389 16.2916 18.6357 16.2916 18.6337 16.2906C18.6295 16.2854 18.6295 16.2781 18.6337 16.2729L18.6638 16.225C18.669 16.2198 18.6773 16.2198 18.6825 16.225C18.6867 16.2302 18.6867 16.2375 18.6825 16.2427L18.6524 16.2906C18.6482 16.2916 18.6451 16.2916 18.6409 16.2906Z" fill="white"/>
<path d="M18.9071 16.2635H18.8104C18.8031 16.2625 18.7979 16.2573 18.7979 16.25C18.7979 16.2427 18.8031 16.2375 18.8104 16.2375H18.9071C18.9144 16.2375 18.9196 16.2427 18.9196 16.25C18.9206 16.2573 18.9154 16.2625 18.9081 16.2635H18.9071Z" fill="white"/>
<path d="M18.9872 16.1481C18.9831 16.1481 18.9789 16.146 18.9758 16.1419C18.9716 16.1367 18.9716 16.1294 18.9758 16.1242L19.0423 16.0847C19.0486 16.0815 19.0569 16.0836 19.06 16.0899C19.0652 16.0951 19.0652 16.1023 19.06 16.1075L18.9935 16.1471L18.9872 16.1481Z" fill="white"/>
<path d="M19.1808 16.0493C19.1776 16.0503 19.1745 16.0503 19.1714 16.0493C19.1662 16.0441 19.1662 16.0358 19.1714 16.0306L19.2369 15.9765C19.2432 15.9734 19.2515 15.9755 19.2556 15.9817C19.2588 15.9869 19.2577 15.9931 19.2536 15.9973L19.188 16.0503C19.186 16.0503 19.1828 16.0503 19.1808 16.0493Z" fill="white"/>
<path d="M17.8879 16.0223C17.8816 16.0223 17.8764 16.0181 17.8754 16.0119C17.8744 16.0046 17.8785 15.9983 17.8858 15.9973L17.9472 15.9869C17.9534 15.9848 17.9607 15.989 17.9628 15.9952C17.9628 15.9952 17.9628 15.9963 17.9628 15.9973C17.9638 16.0046 17.9596 16.0108 17.9524 16.0119L17.89 16.0223H17.8879Z" fill="white"/>
<path d="M17.7277 16.2053C17.7225 16.2053 17.7173 16.2022 17.7152 16.197L17.6788 16.1003C17.6778 16.093 17.684 16.0867 17.6913 16.0857C17.6965 16.0857 17.7017 16.0878 17.7038 16.0919L17.7391 16.1876C17.7422 16.1939 17.7391 16.2011 17.7329 16.2043C17.7329 16.2043 17.7329 16.2043 17.7318 16.2043L17.7277 16.2053Z" fill="white"/>
<path d="M14.9759 18.433L16.773 17.211C16.773 17.211 16.877 16.3384 16.9467 16.2406C17.084 16.1054 17.2316 15.9806 17.3887 15.8673C17.3887 15.8673 18.0428 16.0628 18.1957 16.1543C18.3486 16.2458 18.1822 16.5038 18.125 16.9333C18.0543 17.3379 17.7173 17.6436 17.3076 17.6748C17.3076 17.6748 16.2239 19.6331 15.6529 20.0096C15.082 20.3861 13.8901 19.5 14.9759 18.433Z" fill="#E4897B"/>
<path opacity="0.2" d="M23.5487 17.68C23.3563 17.7019 23.1483 17.7185 22.9538 17.7206C22.8113 17.2661 22.6013 16.8355 22.3298 16.4435C22.3298 16.4435 23.4301 16.9926 23.5487 17.68Z" fill="black" fill-opacity="0.25"/>
<path opacity="0.2" d="M16.9945 19.8994C16.9945 19.8838 16.9945 19.8671 16.9945 19.8515C16.9883 19.6009 16.982 19.3315 16.9768 19.057C17.0808 18.6628 17.1848 18.2843 17.2961 17.9296C17.3044 17.9723 17.5759 19.2494 16.9945 19.8994Z" fill="black" fill-opacity="0.25"/>
<path d="M21.7691 17.6446C21.947 18.2177 21.6901 18.8074 21.1951 18.9602C20.7 19.1131 20.1551 18.773 19.9783 18.2C19.8015 17.627 20.0573 17.0373 20.5523 16.8844C21.0474 16.7315 21.5913 17.0716 21.7691 17.6446Z" fill="#FDB812"/>
<path opacity="0.2" d="M21.4687 17.7383C21.5727 18.0856 21.4208 18.4413 21.1213 18.5339C20.8218 18.6264 20.4921 18.4205 20.385 18.0742C20.2779 17.7279 20.4328 17.3701 20.7324 17.2775C21.0319 17.185 21.3616 17.3909 21.4687 17.7383Z" fill="black" fill-opacity="0.25"/>
<path d="M19.5882 16.9229C19.5622 16.9936 19.5445 17.0675 19.5352 17.1424C19.5268 17.1933 19.5227 17.2443 19.5206 17.2963C19.5123 17.522 19.6589 18.3051 19.6589 18.3051L19.791 18.2988C19.8524 18.5848 19.8971 18.8729 19.9252 19.1641C19.9273 19.1912 19.9501 19.213 19.9782 19.2109C20.0053 19.2109 20.0271 19.188 20.0261 19.161C20.0261 19.16 20.0261 19.16 20.0261 19.1589C19.9917 18.8729 19.8233 17.5573 19.5882 16.9229Z" fill="#FDB812"/>
<path d="M21.9522 17.3358C21.9792 17.3306 22.0021 17.315 22.0177 17.2931C22.0364 17.2661 22.0406 17.2318 22.0302 17.2006C21.9928 17.0862 21.7962 16.743 21.7785 16.7555C21.7608 16.7679 21.9189 17.1153 21.9564 17.2255C21.9595 17.2328 21.9595 17.2411 21.9564 17.2484C21.9522 17.2557 21.9439 17.2599 21.9356 17.2599H21.9283C21.8378 17.0019 21.6745 16.7482 21.6568 16.7617C21.6392 16.7752 21.7608 17.0165 21.8461 17.263C21.8066 17.2651 21.7702 17.2391 21.7588 17.2016C21.6912 16.9936 21.5456 16.7783 21.5268 16.7856C21.5081 16.7929 21.6194 17.0227 21.6839 17.2224C21.7068 17.2952 21.7754 17.3431 21.8513 17.3389H21.8732C22.0604 17.8797 22.1758 18.4434 22.2164 19.0143C22.2184 19.0351 22.2361 19.0518 22.2569 19.0507C22.2777 19.0497 22.2944 19.032 22.2933 19.0102V19.0091C22.2507 18.4392 22.1363 17.8766 21.9522 17.3358Z" fill="#FDB812"/>
<path d="M33.9853 37.5991H34.6997L34.8173 20.2384H33.8688L33.9853 37.5991Z" fill="#FDB812"/>
<path opacity="0.4" d="M33.8678 20.2675L33.8865 23.1525L33.9853 37.5991H34.6998L34.7986 23.1525L34.8163 20.2675H33.8678Z" fill="white"/>
<path opacity="0.2" d="M33.8678 20.2675L33.8865 23.1847H34.7986L34.8163 20.2675H33.8678Z" fill="black" fill-opacity="0.25"/>
<path d="M26.3965 37.5991H27.1109L28.3953 20.2384H27.4469L26.3965 37.5991Z" fill="#FDB812"/>
<path opacity="0.5" d="M26.3965 37.5991H27.1109L28.3329 21.1266L28.3964 20.2675H27.4469L27.3959 21.1266L26.3965 37.5991Z" fill="white"/>
<path opacity="0.2" d="M27.3959 21.0839H28.3329L28.3963 20.2675H27.4468L27.3959 21.0839Z" fill="black" fill-opacity="0.25"/>
<path d="M41.5741 37.5991H42.2896L41.2382 20.2384H40.2897L41.5741 37.5991Z" fill="#FDB812"/>
<path opacity="0.5" d="M40.2907 20.2675L40.3531 21.1266L41.5751 37.5991H42.2896L41.2902 21.1266L41.2392 20.2675H40.2907Z" fill="white"/>
<path opacity="0.2" d="M41.2392 20.2675H40.2907L40.3531 21.0839H41.2902L41.2392 20.2675Z" fill="black" fill-opacity="0.25"/>
<path d="M41.7656 20.6867H26.9207C26.7969 20.6867 26.696 20.5858 26.696 20.462V19.7912H41.9913V20.462C41.9913 20.5858 41.8904 20.6867 41.7667 20.6867H41.7656Z" fill="#FDB812"/>
<path opacity="0.6" d="M41.7656 20.6867H26.9207C26.7969 20.6867 26.696 20.5858 26.696 20.462V19.7912H41.9913V20.462C41.9913 20.5858 41.8904 20.6867 41.7667 20.6867H41.7656Z" fill="white"/>
<path opacity="0.2" d="M41.9913 19.7902H26.696V20.2384H41.9913V19.7902Z" fill="black" fill-opacity="0.25"/>
<path d="M26.2518 19.9077H42.4322C42.5715 19.9077 42.6849 19.7943 42.6849 19.655C42.6849 19.5156 42.5715 19.4022 42.4322 19.4022H26.2518C26.1125 19.4033 25.9991 19.5166 26.0001 19.656C26.0012 19.7943 26.1135 19.9066 26.2518 19.9077Z" fill="#FDB812"/>
<path opacity="0.6" d="M26.2518 19.9077H42.4322C42.5715 19.9077 42.6849 19.7943 42.6849 19.655C42.6849 19.5156 42.5715 19.4022 42.4322 19.4022H26.2518C26.1125 19.4033 25.9991 19.5166 26.0001 19.656C26.0012 19.7943 26.1135 19.9066 26.2518 19.9077Z" fill="white"/>
<path d="M41.6584 19.4022L39.2113 24.3038L35.357 19.4022H33.303L29.9958 24.3038L27.2929 19.4022H41.6584Z" fill="#FDB812"/>
<path d="M32.6687 18.3758H33.5205C33.6869 18.3758 33.8221 18.511 33.8221 18.6774V18.6784C33.8221 18.8448 33.6869 18.98 33.5205 18.98H32.6687C32.5023 18.98 32.3671 18.8448 32.3671 18.6784V18.6774C32.3671 18.511 32.5023 18.3758 32.6687 18.3758Z" fill="#FDB812"/>
<path d="M34.391 18.3758H35.2427C35.4091 18.3758 35.5443 18.511 35.5443 18.6774V18.6784C35.5443 18.8448 35.4091 18.98 35.2427 18.98H34.391C34.2246 18.98 34.0894 18.8448 34.0894 18.6784V18.6774C34.0894 18.511 34.2246 18.3758 34.391 18.3758Z" fill="#FDB812"/>
<path d="M40.5955 18.5578H31.821V19.4033H40.5955V18.5578Z" fill="#263238"/>
<path opacity="0.1" d="M40.5955 18.5578H31.821V19.4033H40.5955V18.5578Z" fill="white"/>
<path opacity="0.2" d="M35.8229 18.5578H31.821V19.4033H35.8229V18.5578Z" fill="white"/>
<path d="M42.6496 14.8065H37.877L35.823 18.5578H40.5956L42.6496 14.8065Z" fill="#263238"/>
<path d="M37.5234 16.224C37.5234 15.9869 37.642 15.6884 38.0694 15.6C38.4968 15.5116 38.5551 15.313 38.7475 15.158C38.9399 15.003 39.1822 14.9219 39.437 15.0457C39.6918 15.1694 39.8384 15.3327 40.269 15.1382C40.6996 14.9438 41.1374 14.9115 41.3402 15.0966C41.543 15.2818 41.4088 15.5126 41.5222 15.6624C41.6356 15.8122 41.7489 15.8132 41.7385 16.067C41.7281 16.3207 41.1239 16.7658 41.1374 16.9853C41.1509 17.2047 41.1 17.5854 40.4416 17.7403C39.7833 17.8953 39.7906 18.1927 39.438 18.2749C39.0855 18.3571 38.8952 18.0586 38.527 18.1407C38.1588 18.2229 38.0403 18.3487 37.695 18.2895C37.3497 18.2302 37.4038 17.9483 37.1875 17.8859C36.9712 17.8235 36.7871 17.3254 36.9795 17.1007C37.1719 16.8761 37.5276 16.5932 37.5234 16.224Z" fill="#FDB812"/>
<g opacity="0.4">
<path d="M39.8321 15.6C39.0292 15.6 38.0973 16.1117 37.752 16.744C37.4068 17.3763 37.778 17.888 38.5841 17.888C39.3901 17.888 40.3167 17.3763 40.6641 16.744C41.0114 16.1117 40.6381 15.6 39.8321 15.6ZM38.6059 16.744C38.7484 16.483 39.1321 16.2729 39.4639 16.2729C39.7957 16.2729 39.9475 16.4809 39.805 16.744C39.6625 17.0071 39.2788 17.2151 38.9481 17.2151C38.6173 17.2151 38.4665 16.9978 38.609 16.7378L38.6059 16.744Z" fill="black" fill-opacity="0.25"/>
</g>
<g opacity="0.4">
<path d="M40.5881 16.5911V16.5849C40.5434 16.5059 40.5882 16.3946 40.6651 16.2958C40.8097 16.119 40.6235 16.0753 40.5434 15.9786C40.4634 15.8819 40.5029 15.7519 40.2699 15.7706C40.2033 15.7831 40.1357 15.7851 40.0681 15.7779C40.0193 15.7633 40.0203 15.7248 39.9901 15.6988C39.9121 15.6323 39.5627 15.6416 39.414 15.7227C39.3204 15.7737 39.2621 15.8611 39.1529 15.8943C38.9886 15.9443 38.8108 15.8819 38.6475 15.9713C38.4842 16.0607 38.4863 16.2022 38.3355 16.2833C38.1473 16.3946 37.9413 16.4528 37.9268 16.6307C37.9278 16.7024 37.9133 16.7731 37.8831 16.8387C37.8124 16.9697 37.6241 17.1611 37.7302 17.2547C37.7874 17.289 37.8477 17.3171 37.9101 17.3399C38.0204 17.4003 37.8769 17.5667 37.9777 17.6374C38.063 17.6967 38.2169 17.6374 38.3376 17.6467C38.4936 17.6613 38.4832 17.8485 38.7203 17.7653C38.9002 17.7019 39.0448 17.653 39.1966 17.6956C39.31 17.706 39.4223 17.6634 39.5003 17.5791C39.6272 17.4575 39.7832 17.3701 39.9538 17.3264C40.0099 17.3212 40.0619 17.2973 40.1025 17.2578C40.1378 17.2193 40.1701 17.1777 40.1981 17.133C40.2564 17.03 40.3385 16.9416 40.4384 16.8771C40.532 16.8189 40.6464 16.744 40.635 16.6691C40.6246 16.64 40.6089 16.614 40.5881 16.5911ZM38.9512 17.2089C38.6194 17.2089 38.4665 17.0009 38.609 16.7378C38.7515 16.4747 39.1353 16.2667 39.467 16.2667C39.7988 16.2667 39.9506 16.4747 39.8081 16.7378C39.6657 17.0009 39.2819 17.2089 38.9512 17.2089Z" fill="white"/>
</g>
<path d="M38.1443 17.2297C38.1371 17.2297 38.1308 17.2297 38.1287 17.2224L38.083 17.1288C38.083 17.1205 38.0882 17.107 38.1027 17.1007C38.1173 17.0945 38.1339 17.0945 38.1381 17.1007L38.1828 17.1933C38.1828 17.2026 38.1828 17.2151 38.1631 17.2224C38.1579 17.2266 38.1506 17.2286 38.1443 17.2297Z" fill="#FDB812"/>
<path d="M38.3158 17.2744C38.3065 17.2744 38.3002 17.2744 38.2992 17.264C38.2981 17.2536 38.3085 17.2411 38.3241 17.2359L38.4468 17.1912C38.4624 17.186 38.477 17.1912 38.4781 17.1995C38.4791 17.2079 38.4687 17.2214 38.4531 17.2276L38.3304 17.2713L38.3158 17.2744Z" fill="#FDB812"/>
<path d="M38.3293 17.4866H38.3199L38.1951 17.4325C38.1837 17.4273 38.1847 17.4158 38.1951 17.4054C38.2055 17.395 38.2201 17.3919 38.2347 17.395L38.3605 17.4491C38.3709 17.4491 38.3699 17.4658 38.3605 17.4762C38.3511 17.4834 38.3407 17.4866 38.3293 17.4866Z" fill="#FDB812"/>
<path d="M38.5664 17.4595C38.5581 17.4595 38.5508 17.4595 38.5498 17.4502L38.5259 17.3368C38.5259 17.3274 38.5352 17.315 38.5508 17.3087C38.5664 17.3025 38.5799 17.3087 38.582 17.316L38.6059 17.4294C38.6059 17.4387 38.5966 17.4512 38.582 17.4574C38.5768 17.4595 38.5716 17.4595 38.5664 17.4595Z" fill="#FDB812"/>
<path d="M38.2951 17.0425H38.2878C38.2753 17.0425 38.2743 17.0279 38.2878 17.0165L38.3679 16.9333C38.3783 16.9229 38.3928 16.9177 38.4074 16.9198C38.4199 16.9198 38.4209 16.9354 38.4074 16.9458L38.3273 17.029C38.319 17.0373 38.3076 17.0425 38.2951 17.0425Z" fill="#FDB812"/>
<path d="M38.2139 16.9271H38.2087L38.0818 16.9031C38.0693 16.9031 38.0662 16.8896 38.0755 16.8782C38.0859 16.8667 38.1005 16.8615 38.1151 16.8626L38.2419 16.8875C38.2544 16.8875 38.2575 16.9 38.2482 16.9115C38.2399 16.9208 38.2274 16.9271 38.2139 16.9271Z" fill="#FDB812"/>
<path d="M38.2721 16.7357C38.2606 16.7357 38.2533 16.7294 38.2544 16.7211C38.2596 16.7076 38.271 16.6972 38.2856 16.6951L38.4801 16.6546C38.4946 16.6546 38.5061 16.6546 38.504 16.6681C38.5019 16.6816 38.4884 16.691 38.4728 16.6941L38.2794 16.7346L38.2721 16.7357Z" fill="#FDB812"/>
<path d="M38.4376 16.5818C38.4272 16.5818 38.4199 16.5766 38.4199 16.5683V16.4986C38.4241 16.4851 38.4355 16.4747 38.4501 16.4726C38.4657 16.4726 38.4771 16.4726 38.4771 16.484V16.5537C38.4729 16.5672 38.4615 16.5776 38.448 16.5807L38.4376 16.5818Z" fill="#FDB812"/>
<path d="M38.6549 16.4466C38.6508 16.4486 38.6456 16.4486 38.6414 16.4466C38.6341 16.4403 38.6414 16.4268 38.6529 16.4185L38.7641 16.3457C38.7787 16.3363 38.7953 16.3342 38.8026 16.3457C38.8099 16.3571 38.8026 16.3654 38.7922 16.3748L38.6799 16.4476C38.6716 16.4497 38.6633 16.4497 38.6549 16.4466Z" fill="#FDB812"/>
<path d="M38.9221 16.2635H38.9169L38.765 16.2365C38.7526 16.2365 38.7494 16.223 38.7578 16.2126C38.7671 16.2011 38.7827 16.1949 38.7973 16.1959L38.9491 16.223C38.9616 16.223 38.9647 16.2365 38.9564 16.2479C38.947 16.2573 38.9356 16.2635 38.9221 16.2635Z" fill="#FDB812"/>
<path d="M39.129 16.1886H39.1196C39.1092 16.1886 39.1092 16.172 39.1196 16.1616L39.258 16.0358C39.2684 16.0254 39.2829 16.0212 39.2975 16.0243C39.3089 16.0243 39.3079 16.041 39.2975 16.0514L39.1602 16.1782C39.1508 16.1855 39.1404 16.1886 39.129 16.1886Z" fill="#FDB812"/>
<path d="M39.6023 16.1127C39.5981 16.1148 39.5929 16.1148 39.5888 16.1127L39.4702 15.9962C39.4629 15.989 39.4702 15.9765 39.4827 15.9682C39.4952 15.9598 39.5139 15.9578 39.5201 15.9682L39.6387 16.0836C39.646 16.0909 39.6387 16.1034 39.6273 16.1127C39.6189 16.1148 39.6106 16.1148 39.6023 16.1127Z" fill="#FDB812"/>
<path d="M40.0798 16.0618H39.8499C39.8354 16.0618 39.8291 16.0524 39.8354 16.041C39.8437 16.0285 39.8583 16.0212 39.8728 16.0212H40.1027C40.1162 16.0212 40.1235 16.0295 40.1172 16.041C40.1089 16.0534 40.0954 16.0618 40.0798 16.0618Z" fill="#FDB812"/>
<path d="M39.9589 16.3134C39.9464 16.3134 39.9392 16.3062 39.9433 16.2958L39.9766 16.2032C39.9828 16.1897 39.9964 16.1814 40.0109 16.1803C40.0255 16.1803 40.0348 16.1866 40.0307 16.197L39.9974 16.2895C39.9901 16.303 39.9776 16.3114 39.9631 16.3134H39.9589Z" fill="#FDB812"/>
<path d="M40.2856 16.3738C40.2814 16.3748 40.2773 16.3748 40.2731 16.3738L40.1535 16.2864C40.1441 16.2802 40.1535 16.2677 40.1618 16.2583C40.1722 16.249 40.1878 16.2469 40.2003 16.2521L40.3209 16.3394C40.3293 16.3457 40.3209 16.3592 40.3126 16.3686C40.3043 16.3727 40.2949 16.3748 40.2856 16.3738Z" fill="#FDB812"/>
<path d="M40.0766 16.5121C40.0693 16.5131 40.0631 16.509 40.06 16.5027C40.06 16.4934 40.0673 16.4809 40.0818 16.4747L40.2347 16.4102C40.2493 16.4029 40.2649 16.4102 40.268 16.4102C40.2711 16.4102 40.2617 16.432 40.2461 16.4393L40.0943 16.5038C40.0891 16.5079 40.0829 16.51 40.0766 16.5121Z" fill="#FDB812"/>
<path d="M40.1557 16.7752C40.1474 16.7752 40.1401 16.7752 40.1391 16.7669L40.1006 16.6431C40.1006 16.6338 40.1079 16.6202 40.1224 16.614C40.137 16.6078 40.1526 16.614 40.1557 16.6202L40.1942 16.744C40.1942 16.7534 40.1869 16.7658 40.1713 16.7721L40.1557 16.7752Z" fill="#FDB812"/>
<path d="M39.8977 16.9021C39.8935 16.9042 39.8883 16.9042 39.8842 16.9021C39.8759 16.8959 39.8842 16.8834 39.8935 16.874L40.0246 16.7846C40.0371 16.7773 40.0516 16.7773 40.0641 16.7846C40.0714 16.7908 40.0641 16.8043 40.0537 16.8127L39.9227 16.9021C39.9143 16.9042 39.906 16.9042 39.8977 16.9021Z" fill="#FDB812"/>
<path d="M39.8687 17.0664L39.7106 17.0425C39.7033 17.0425 39.6971 17.0363 39.6971 17.029C39.6971 17.0248 39.6991 17.0217 39.7023 17.0186C39.7116 17.0071 39.7272 17.0009 39.7418 17.0019L39.8999 17.0259C39.9134 17.0259 39.9165 17.0383 39.9082 17.0498C39.8988 17.0612 39.8832 17.0675 39.8687 17.0664Z" fill="#FDB812"/>
<path d="M39.4837 17.3306H39.4765C39.465 17.3306 39.4629 17.316 39.4765 17.3056L39.6127 17.1579C39.6231 17.1475 39.6377 17.1423 39.6522 17.1444C39.6647 17.1444 39.6657 17.159 39.6522 17.1694L39.5201 17.316C39.5108 17.3264 39.4973 17.3316 39.4837 17.3306Z" fill="#FDB812"/>
<path d="M39.1135 17.3306C39.101 17.3306 39.0937 17.3233 39.0979 17.3129C39.1052 17.3004 39.1177 17.2921 39.1322 17.29L39.359 17.2661C39.3725 17.2661 39.3829 17.2723 39.3787 17.2827C39.3714 17.2962 39.3579 17.3046 39.3433 17.3067L39.1177 17.3306H39.1135Z" fill="#FDB812"/>
<path d="M38.8962 17.549H38.8868C38.8764 17.549 38.8774 17.5323 38.8868 17.5219L38.9908 17.4335C39.0012 17.4231 39.0158 17.42 39.0303 17.4231C39.0418 17.4231 39.0407 17.4398 39.0303 17.4502L38.9263 17.5386C38.918 17.5458 38.9076 17.549 38.8962 17.549Z" fill="#FDB812"/>
<path d="M38.6881 17.5042H38.6787C38.6683 17.5042 38.6683 17.4876 38.6787 17.4772L38.7827 17.3732C38.7931 17.3628 38.8087 17.3586 38.8233 17.3618C38.8337 17.3618 38.8337 17.3784 38.8233 17.3888L38.7193 17.4928C38.711 17.5001 38.6995 17.5042 38.6881 17.5042Z" fill="#FDB812"/>
<path d="M39.2696 17.4595C39.256 17.4595 39.2498 17.4523 39.254 17.4419C39.2613 17.4294 39.2748 17.42 39.2893 17.419L39.3756 17.4127C39.3902 17.4127 39.3985 17.42 39.3933 17.4315C39.386 17.4439 39.3725 17.4533 39.358 17.4543H39.2716L39.2696 17.4595Z" fill="#FDB812"/>
<path d="M39.7791 17.2297C39.7697 17.2297 39.7624 17.2297 39.7624 17.2172C39.7624 17.2047 39.7749 17.1954 39.7905 17.1902L39.9091 17.1569C39.9247 17.1569 39.9371 17.1569 39.9371 17.1673C39.9371 17.1777 39.9247 17.1902 39.9091 17.1943L39.7905 17.2286L39.7791 17.2297Z" fill="#FDB812"/>
<path d="M40.1202 16.9593H40.1129C40.1015 16.9593 40.0994 16.9447 40.1129 16.9333L40.1899 16.8501C40.2003 16.8397 40.2149 16.8345 40.2294 16.8366C40.2419 16.8366 40.244 16.8511 40.2294 16.8615L40.1535 16.9447C40.1452 16.9541 40.1327 16.9593 40.1202 16.9593Z" fill="#FDB812"/>
<path d="M40.3418 16.5818C40.3314 16.5818 40.3251 16.5766 40.3251 16.5693V16.4798C40.3251 16.4694 40.3386 16.458 40.3542 16.4538C40.3698 16.4497 40.3823 16.4538 40.3813 16.4642V16.5537C40.3813 16.5641 40.3678 16.5755 40.3522 16.5797L40.3418 16.5818Z" fill="#FDB812"/>
<path d="M40.3127 16.1886C40.2992 16.1886 40.2919 16.1803 40.2961 16.1699L40.3221 16.1065C40.3294 16.094 40.3429 16.0857 40.3574 16.0846C40.372 16.0846 40.3814 16.0909 40.3762 16.1023L40.3502 16.1658C40.3429 16.1793 40.3294 16.1876 40.3148 16.1886H40.3127Z" fill="#FDB812"/>
<path d="M39.8322 15.9266C39.8291 15.9276 39.8249 15.9276 39.8218 15.9266L39.7635 15.8943C39.7542 15.8891 39.7563 15.8766 39.7687 15.8662C39.7791 15.8569 39.7947 15.8538 39.8083 15.8579L39.8655 15.8902C39.8759 15.8964 39.8738 15.9089 39.8655 15.9182C39.8561 15.9255 39.8436 15.9286 39.8322 15.9266Z" fill="#FDB812"/>
<path d="M39.8457 16.1886H39.7531C39.7386 16.1886 39.7323 16.1793 39.7386 16.1678C39.7469 16.1554 39.7604 16.147 39.776 16.147H39.8686C39.8831 16.147 39.8894 16.1564 39.8831 16.1678C39.8748 16.1803 39.8613 16.1886 39.8457 16.1886Z" fill="#FDB812"/>
<path d="M39.3038 16.1886C39.2945 16.1886 39.2882 16.1886 39.2872 16.1772C39.2861 16.1658 39.2976 16.1554 39.3132 16.1502L39.4057 16.1179C39.4213 16.1179 39.4349 16.1179 39.4359 16.1262C39.4369 16.1346 39.4265 16.1491 39.4109 16.1543L39.3173 16.1855C39.3132 16.1876 39.309 16.1886 39.3038 16.1886Z" fill="#FDB812"/>
<path d="M39.0001 16.0618C38.9866 16.0618 38.9793 16.0535 38.9845 16.0431C38.9918 16.0306 39.0053 16.0223 39.0199 16.0212L39.1239 16.0139C39.1385 16.0139 39.1468 16.0212 39.1416 16.0327C39.1343 16.0451 39.1208 16.0535 39.1062 16.0545L39.0022 16.0618H39.0001Z" fill="#FDB812"/>
<path d="M38.1485 16.6514C38.1433 16.6514 38.137 16.6494 38.1339 16.6452C38.1277 16.6379 38.1339 16.6244 38.1495 16.6171L38.2535 16.5578C38.2681 16.5495 38.2847 16.5495 38.2899 16.5578C38.2951 16.5662 38.2899 16.5786 38.2743 16.5859L38.1703 16.6452C38.1641 16.6494 38.1557 16.6514 38.1485 16.6514Z" fill="#FDB812"/>
<path d="M38.5842 16.328C38.5738 16.328 38.5665 16.3228 38.5676 16.3145L38.5728 16.2479C38.5728 16.2375 38.5873 16.2261 38.6029 16.2219C38.6185 16.2178 38.631 16.2219 38.63 16.2344L38.6237 16.301C38.6237 16.3114 38.6092 16.3228 38.5936 16.327L38.5842 16.328Z" fill="#FDB812"/>
<path d="M38.398 17.16C38.3876 17.16 38.3803 17.16 38.3803 17.1475V17.1101C38.3803 17.0997 38.3928 17.0872 38.4084 17.083C38.424 17.0789 38.4365 17.083 38.4365 17.0934V17.1319C38.4365 17.1423 38.4229 17.1538 38.4073 17.1579L38.398 17.16Z" fill="#FDB812"/>
<path d="M38.6579 17.5979L38.5591 17.5875C38.5456 17.5875 38.5414 17.576 38.5487 17.5646C38.5581 17.5521 38.5726 17.5459 38.5882 17.5469L38.686 17.5573C38.6995 17.5573 38.7047 17.5698 38.6964 17.5812C38.687 17.5916 38.6725 17.5979 38.6579 17.5979Z" fill="#FDB812"/>
<path d="M37.8768 14.8065L37.5232 14.2584L35.5212 18.0159L35.8228 18.5578L37.8768 14.8065Z" fill="#263238"/>
<path d="M37.5232 14.2584L42.3509 14.327L42.6494 14.8065H37.8769L37.5232 14.2584Z" fill="#263238"/>
<path opacity="0.2" d="M37.5232 14.2584L42.3509 14.327L42.6494 14.8065H37.8769L37.5232 14.2584Z" fill="white"/>
<path opacity="0.1" d="M37.8768 14.8065L37.5232 14.2584L35.5212 18.0159L35.8228 18.5578L37.8768 14.8065Z" fill="white"/>
<path d="M30.231 18.9145C30.232 18.9207 30.232 18.928 30.231 18.9343C30.2268 19.0008 30.1987 19.0643 30.1509 19.1111C30.0989 19.1631 30.0282 19.1922 29.9543 19.1922H28.8519C28.7354 19.1922 28.6325 19.1204 28.5919 19.0112C28.5805 18.98 28.5742 18.9478 28.5742 18.9145C28.5732 18.7616 28.697 18.6379 28.8498 18.6368C28.8509 18.6368 28.8509 18.6368 28.8519 18.6368H29.9522C30.1062 18.6368 30.2299 18.7606 30.231 18.9145Z" fill="#FDB812"/>
<path d="M30.2308 18.9145C30.2319 18.9207 30.2319 18.928 30.2308 18.9343C30.1726 18.9051 30.1029 18.9207 30.0623 18.9707C29.9999 19.0435 29.9646 18.9707 29.872 18.9145C29.7795 18.8583 29.6963 18.9041 29.6141 19.0008C29.5319 19.0975 29.481 19.0071 29.4061 18.9145C29.3312 18.8219 29.1794 18.9145 29.1024 19.0008C29.0255 19.0871 28.9745 18.9707 28.9121 18.9145C28.8497 18.8583 28.7779 18.9145 28.675 19.0008C28.6531 19.0216 28.6209 19.0258 28.5949 19.0112C28.5835 18.98 28.5772 18.9478 28.5772 18.9145C28.5762 18.7616 28.6999 18.6379 28.8528 18.6368C28.8539 18.6368 28.8539 18.6368 28.8549 18.6368H29.9521C30.106 18.6368 30.2298 18.7606 30.2308 18.9145Z" fill="#263238"/>
<path d="M30.3662 19.4023H28.6907L28.1707 19.1454H30.8862L30.3662 19.4023Z" fill="#FDB812"/>
<path opacity="0.6" d="M30.3662 19.4023H28.6907L28.1707 19.1454H30.8862L30.3662 19.4023Z" fill="white"/>
<path d="M31.2407 19.2234H27.8981C27.8555 19.2223 27.8212 19.188 27.8212 19.1454C27.8212 19.1027 27.8555 19.0684 27.8981 19.0684H31.2407C31.2833 19.0684 31.3177 19.1027 31.3177 19.1454C31.3177 19.188 31.2833 19.2223 31.2407 19.2234Z" fill="#FDB812"/>
<path opacity="0.7" d="M31.2407 19.2234H27.8981C27.8555 19.2223 27.8212 19.188 27.8212 19.1454C27.8212 19.1027 27.8555 19.0684 27.8981 19.0684H31.2407C31.2833 19.0684 31.3177 19.1027 31.3177 19.1454C31.3177 19.188 31.2833 19.2223 31.2407 19.2234Z" fill="white"/>
<path d="M40.5881 16.5911V16.5849C40.5434 16.5059 40.5882 16.3946 40.6651 16.2958C40.8097 16.119 40.6235 16.0753 40.5434 15.9786C40.4634 15.8819 40.5029 15.7519 40.2699 15.7706C40.2033 15.7831 40.1357 15.7851 40.0681 15.7779C40.0193 15.7633 40.0203 15.7248 39.9901 15.6988C39.9121 15.6323 39.5627 15.6416 39.414 15.7227C39.3204 15.7737 39.2621 15.8611 39.1529 15.8943C38.9886 15.9443 38.8108 15.8819 38.6475 15.9713C38.4842 16.0607 38.4863 16.2022 38.3355 16.2833C38.1473 16.3946 37.9413 16.4528 37.9268 16.6307C37.9278 16.7024 37.9133 16.7731 37.8831 16.8387C37.8124 16.9697 37.6241 17.1611 37.7302 17.2547C37.7874 17.289 37.8477 17.3171 37.9101 17.3399C38.0204 17.4003 37.8769 17.5667 37.9777 17.6374C38.063 17.6967 38.2169 17.6374 38.3376 17.6467C38.4936 17.6613 38.4832 17.8485 38.7203 17.7653C38.9002 17.7019 39.0448 17.653 39.1966 17.6956C39.31 17.706 39.4223 17.6634 39.5003 17.5791C39.6272 17.4575 39.7832 17.3701 39.9538 17.3264C40.0099 17.3212 40.0619 17.2973 40.1025 17.2578C40.1378 17.2193 40.1701 17.1777 40.1981 17.133C40.2564 17.03 40.3385 16.9416 40.4384 16.8771C40.532 16.8189 40.6464 16.744 40.635 16.6691C40.6246 16.64 40.6089 16.614 40.5881 16.5911ZM38.9512 17.2089C38.6194 17.2089 38.4665 17.0009 38.609 16.7378C38.7515 16.4747 39.1353 16.2667 39.467 16.2667C39.7988 16.2667 39.9506 16.4747 39.8081 16.7378C39.6657 17.0009 39.2819 17.2089 38.9512 17.2089Z" fill="#FDB812"/>
<path d="M9.70744 28.4326C9.73344 28.6135 9.24152 28.7331 8.84008 28.7997C8.87232 29.1294 9.09176 29.4622 9.3944 29.7731C9.77504 29.5589 10.319 29.275 10.4188 29.3447C10.5186 29.4143 9.9716 29.7804 9.6232 29.9915C9.87176 30.2089 10.1349 30.4075 10.4115 30.5885C10.5831 30.4294 10.7828 30.289 10.9014 30.3649C11.0199 30.4408 10.9918 30.6904 10.9305 30.9109C11.3465 31.1522 11.6585 31.2988 11.6585 31.2988C11.7791 30.914 11.8717 30.5209 11.9351 30.1226C11.9143 30.082 11.8935 30.0404 11.8738 29.9957C11.8072 29.8418 11.8738 29.7763 11.9778 29.7544C12.009 29.4726 12.011 29.1887 11.984 28.9068C11.515 28.8091 10.944 28.6271 11.1593 28.3452C11.2872 28.1757 11.5233 28.157 11.7687 28.1996C11.7354 28.1435 11.697 28.0904 11.6533 28.0415C10.7994 27.1055 10.2046 28.0415 10.2046 28.0415C9.70848 27.6255 9.01272 27.7399 8.86192 28.3858C9.14272 28.314 9.67208 28.2079 9.70744 28.4326Z" fill="#FDB812"/>
<path opacity="0.3" d="M9.70744 28.4326C9.73344 28.6135 9.24152 28.7331 8.84008 28.7997C8.87232 29.1294 9.09176 29.4622 9.3944 29.7731C9.77504 29.5589 10.319 29.275 10.4188 29.3447C10.5186 29.4143 9.9716 29.7804 9.6232 29.9915C9.87176 30.2089 10.1349 30.4075 10.4115 30.5885C10.5831 30.4294 10.7828 30.289 10.9014 30.3649C11.0199 30.4408 10.9918 30.6904 10.9305 30.9109C11.3465 31.1522 11.6585 31.2988 11.6585 31.2988C11.7791 30.914 11.8717 30.5209 11.9351 30.1226C11.9143 30.082 11.8935 30.0404 11.8738 29.9957C11.8072 29.8418 11.8738 29.7763 11.9778 29.7544C12.009 29.4726 12.011 29.1887 11.984 28.9068C11.515 28.8091 10.944 28.6271 11.1593 28.3452C11.2872 28.1757 11.5233 28.157 11.7687 28.1996C11.7354 28.1435 11.697 28.0904 11.6533 28.0415C10.7994 27.1055 10.2046 28.0415 10.2046 28.0415C9.70848 27.6255 9.01272 27.7399 8.86192 28.3858C9.14272 28.314 9.67208 28.2079 9.70744 28.4326Z" fill="white"/>
<path d="M10.7712 35.3413L10.6485 35.3309C10.6485 35.2675 11.1539 28.9724 9.74057 28.3796C9.60433 28.3161 9.44625 28.3192 9.31313 28.39C8.80249 28.6552 8.55809 29.7576 8.55497 29.769L8.43433 29.744C8.44473 29.6962 8.69433 28.574 9.25593 28.2818C9.42129 28.1944 9.61785 28.1892 9.78841 28.2662C11.2829 28.8933 10.7931 35.0782 10.7712 35.3413Z" fill="#FDB812"/>
<path d="M10.9492 35.2051C10.9242 34.9212 10.3481 28.261 11.4265 27.5538C11.6845 27.3853 11.9153 27.3458 12.1109 27.4498C12.6205 27.7067 12.687 28.7966 12.6901 28.8423L12.5664 28.8496C12.5664 28.8382 12.5019 27.7847 12.0557 27.56C11.9018 27.4831 11.7125 27.5163 11.4941 27.664C10.477 28.3307 11.0667 35.1312 11.0781 35.1999L10.9492 35.2051Z" fill="#FDB812"/>
<path d="M11.1114 35.7428C11.1041 35.5264 10.9263 30.4284 11.908 29.9822C12.0921 29.8938 12.3064 29.8917 12.4915 29.977C13.1654 30.2734 13.5814 31.5297 13.5991 31.5828L13.4816 31.6212C13.4816 31.6088 13.0656 30.3639 12.4416 30.0904C12.2887 30.0176 12.1108 30.0176 11.958 30.0904C11.205 30.4325 11.18 34.2805 11.23 35.7344L11.1114 35.7428Z" fill="#FDB812"/>
<path d="M10.8617 35.5098L10.739 35.4963C10.9127 33.9789 11.2434 29.9354 10.7026 29.4528C10.6496 29.3873 10.5622 29.3603 10.4811 29.3852C10.1192 29.5235 9.89869 30.8412 9.84461 31.3342L9.72189 31.3207C9.74269 31.1303 9.94029 29.4601 10.4374 29.2698C10.5612 29.2282 10.6974 29.2635 10.7848 29.3613C11.4836 29.9843 10.8877 35.2841 10.8617 35.5098Z" fill="#FDB812"/>
<path d="M8.8027 32.6332H13.2362L12.866 37.5992H9.17294L8.8027 32.6332Z" fill="#263238"/>
<path opacity="0.2" d="M10.1494 32.6332L10.2732 37.5992H12.8659L13.2361 32.6332H10.1494Z" fill="white"/>
<path d="M9.40684 30.8111C9.36004 30.9317 9.0158 30.8371 8.7454 30.7403C8.65284 30.9546 8.67364 31.2354 8.75372 31.5307C9.06572 31.5307 9.49525 31.5401 9.53269 31.6181C9.57013 31.6961 9.10732 31.7325 8.82028 31.7439C8.89932 31.9634 8.99292 32.1766 9.10212 32.3825C9.26228 32.343 9.43285 32.3253 9.48069 32.4127C9.52853 32.5 9.42452 32.6435 9.31116 32.759C9.4838 33.0502 9.62317 33.2467 9.62317 33.2467C9.82909 33.0512 10.0215 32.8401 10.1972 32.6165C10.1972 32.5843 10.1972 32.551 10.2024 32.5177C10.2149 32.3991 10.2773 32.3804 10.3532 32.4054C10.4687 32.2421 10.5675 32.0684 10.6476 31.8854C10.3917 31.6639 10.1026 31.356 10.3304 31.2614C10.4687 31.2011 10.6205 31.2697 10.7568 31.3799C10.7557 31.3342 10.7505 31.2874 10.7401 31.2427C10.5321 30.3711 9.84677 30.7466 9.84677 30.7466C9.68245 30.3212 9.21444 30.1517 8.90036 30.498C9.099 30.5448 9.46404 30.6623 9.40684 30.8111Z" fill="#FDB812"/>
<path opacity="0.3" d="M9.40684 30.8111C9.36004 30.9317 9.0158 30.8371 8.7454 30.7403C8.65284 30.9546 8.67364 31.2354 8.75372 31.5307C9.06572 31.5307 9.49525 31.5401 9.53269 31.6181C9.57013 31.6961 9.10732 31.7325 8.82028 31.7439C8.89932 31.9634 8.99292 32.1766 9.10212 32.3825C9.26228 32.343 9.43285 32.3253 9.48069 32.4127C9.52853 32.5 9.42452 32.6435 9.31116 32.759C9.4838 33.0502 9.62317 33.2467 9.62317 33.2467C9.82909 33.0512 10.0215 32.8401 10.1972 32.6165C10.1972 32.5843 10.1972 32.551 10.2024 32.5177C10.2149 32.3991 10.2773 32.3804 10.3532 32.4054C10.4687 32.2421 10.5675 32.0684 10.6476 31.8854C10.3917 31.6639 10.1026 31.356 10.3304 31.2614C10.4687 31.2011 10.6205 31.2697 10.7568 31.3799C10.7557 31.3342 10.7505 31.2874 10.7401 31.2427C10.5321 30.3711 9.84677 30.7466 9.84677 30.7466C9.68245 30.3212 9.21444 30.1517 8.90036 30.498C9.099 30.5448 9.46404 30.6623 9.40684 30.8111Z" fill="white"/>
<path d="M12.6984 31.4007C12.5601 31.4122 12.4238 31.4413 12.2928 31.486C12.2574 31.3924 12.2377 31.2926 12.2335 31.1927C12.2054 30.2983 12.845 30.6727 13.1841 30.4127C13.339 30.2755 13.545 30.211 13.7498 30.2349C13.7207 30.2848 13.6947 30.3358 13.6729 30.3888C13.6438 30.4606 13.6781 30.5427 13.7498 30.5719C13.7592 30.576 13.7675 30.5781 13.7769 30.5802C13.8622 30.5968 13.9495 30.5864 14.0286 30.55C14.0514 30.5365 14.0722 30.5219 14.093 30.5053C14.1461 30.5989 14.1877 30.6998 14.2158 30.8038C14.249 30.9286 14.2688 31.0575 14.273 31.1865C14.223 31.1979 14.1731 31.2115 14.1242 31.2291C14.0546 31.2603 14.0223 31.3415 14.0535 31.4111C14.0577 31.4205 14.0629 31.4288 14.0681 31.4371C14.1211 31.4912 14.1835 31.5349 14.2522 31.5671C14.2293 31.7096 14.1908 31.849 14.1398 31.9831L14.0941 31.9894C14.0618 31.9956 14.0296 32.0039 13.9974 32.0133C13.9786 32.0185 13.961 32.0247 13.9443 32.0331C13.9006 32.0518 13.8694 32.0903 13.8601 32.1371C13.8538 32.1859 13.8736 32.2359 13.9131 32.266C13.9339 32.2816 13.9568 32.2962 13.9797 32.3076C13.8944 32.4553 13.7727 32.578 13.6261 32.6643C13.4961 32.6051 13.3702 32.5395 13.2486 32.4657C13.2756 32.4303 13.3026 32.3939 13.3276 32.3617C13.3567 32.3211 13.3702 32.2712 13.365 32.2213C13.3588 32.1714 13.3328 32.1256 13.2922 32.0944C13.209 32.031 13.0905 32.0466 13.026 32.1287C12.9969 32.1735 12.9636 32.2151 12.9314 32.2577C12.7629 32.1339 12.611 31.9873 12.48 31.824H12.4935C12.5767 31.8022 12.661 31.7887 12.7462 31.7814C12.8482 31.7668 12.9199 31.6753 12.9106 31.5734C12.8991 31.4673 12.8045 31.3903 12.6984 31.4007Z" fill="#FDB812"/>
<path opacity="0.5" d="M12.6984 31.4007C12.5601 31.4122 12.4238 31.4413 12.2928 31.486C12.2574 31.3924 12.2377 31.2926 12.2335 31.1927C12.2054 30.2983 12.845 30.6727 13.1841 30.4127C13.339 30.2755 13.545 30.211 13.7498 30.2349C13.7207 30.2848 13.6947 30.3358 13.6729 30.3888C13.6438 30.4606 13.6781 30.5427 13.7498 30.5719C13.7592 30.576 13.7675 30.5781 13.7769 30.5802C13.8622 30.5968 13.9495 30.5864 14.0286 30.55C14.0514 30.5365 14.0722 30.5219 14.093 30.5053C14.1461 30.5989 14.1877 30.6998 14.2158 30.8038C14.249 30.9286 14.2688 31.0575 14.273 31.1865C14.223 31.1979 14.1731 31.2115 14.1242 31.2291C14.0546 31.2603 14.0223 31.3415 14.0535 31.4111C14.0577 31.4205 14.0629 31.4288 14.0681 31.4371C14.1211 31.4912 14.1835 31.5349 14.2522 31.5671C14.2293 31.7096 14.1908 31.849 14.1398 31.9831L14.0941 31.9894C14.0618 31.9956 14.0296 32.0039 13.9974 32.0133C13.9786 32.0185 13.961 32.0247 13.9443 32.0331C13.9006 32.0518 13.8694 32.0903 13.8601 32.1371C13.8538 32.1859 13.8736 32.2359 13.9131 32.266C13.9339 32.2816 13.9568 32.2962 13.9797 32.3076C13.8944 32.4553 13.7727 32.578 13.6261 32.6643C13.4961 32.6051 13.3702 32.5395 13.2486 32.4657C13.2756 32.4303 13.3026 32.3939 13.3276 32.3617C13.3567 32.3211 13.3702 32.2712 13.365 32.2213C13.3588 32.1714 13.3328 32.1256 13.2922 32.0944C13.209 32.031 13.0905 32.0466 13.026 32.1287C12.9969 32.1735 12.9636 32.2151 12.9314 32.2577C12.7629 32.1339 12.611 31.9873 12.48 31.824H12.4935C12.5767 31.8022 12.661 31.7887 12.7462 31.7814C12.8482 31.7668 12.9199 31.6753 12.9106 31.5734C12.8991 31.4673 12.8045 31.3903 12.6984 31.4007Z" fill="white"/>
<path d="M12.9542 28.3182C13.0333 28.2631 13.1186 28.2184 13.208 28.184C13.1851 28.1196 13.1518 28.0582 13.1102 28.0041C12.7327 27.5216 12.5622 28.0041 12.2689 28.0114C12.1274 28.0072 11.9912 28.0634 11.8934 28.1664C11.9288 28.1799 11.9642 28.1955 11.9974 28.2132C12.0442 28.2381 12.0619 28.2953 12.037 28.3421C12.0338 28.3484 12.0297 28.3546 12.0245 28.3608C11.9881 28.4066 11.9371 28.4399 11.8799 28.4555C11.8622 28.4586 11.8446 28.4607 11.8269 28.4607C11.8394 28.5324 11.8622 28.6021 11.8934 28.6687C11.9309 28.7488 11.9766 28.8247 12.0307 28.8944C12.0619 28.8777 12.0942 28.8632 12.1274 28.8507C12.1784 28.8361 12.2314 28.8642 12.246 28.9152C12.2481 28.9224 12.2491 28.9297 12.2502 28.938C12.246 28.99 12.2325 29.04 12.2106 29.0868C12.2855 29.1523 12.3666 29.2095 12.453 29.2573L12.48 29.2417C12.4998 29.2303 12.5206 29.2209 12.5414 29.2116L12.5778 29.198C12.61 29.1887 12.6443 29.197 12.6693 29.2188C12.6953 29.2407 12.7067 29.276 12.6984 29.3093C12.6942 29.327 12.689 29.3436 12.6818 29.3603C12.791 29.4008 12.9095 29.4123 13.025 29.3925C13.0666 29.3052 13.103 29.2147 13.1352 29.1232L13.0468 29.1003C13.0135 29.092 12.9844 29.0712 12.9646 29.0431C12.9459 29.014 12.9407 28.9786 12.948 28.9453C12.9553 28.912 12.9761 28.8829 13.0042 28.8632C13.0333 28.8444 13.0686 28.8392 13.103 28.8465C13.1373 28.8559 13.1737 28.8642 13.207 28.8715C13.2413 28.7311 13.2558 28.5855 13.2517 28.4409H13.2423C13.1893 28.4659 13.1394 28.495 13.0915 28.5293C13.0302 28.5668 12.9501 28.547 12.9126 28.4856C12.8762 28.4264 12.8939 28.3484 12.9522 28.3099L12.9542 28.3182Z" fill="#FDB812"/>
<path opacity="0.3" d="M12.9542 28.3182C13.0333 28.2631 13.1186 28.2184 13.208 28.184C13.1851 28.1196 13.1518 28.0582 13.1102 28.0041C12.7327 27.5216 12.5622 28.0041 12.2689 28.0114C12.1274 28.0072 11.9912 28.0634 11.8934 28.1664C11.9288 28.1799 11.9642 28.1955 11.9974 28.2132C12.0442 28.2381 12.0619 28.2953 12.037 28.3421C12.0338 28.3484 12.0297 28.3546 12.0245 28.3608C11.9881 28.4066 11.9371 28.4399 11.8799 28.4555C11.8622 28.4586 11.8446 28.4607 11.8269 28.4607C11.8394 28.5324 11.8622 28.6021 11.8934 28.6687C11.9309 28.7488 11.9766 28.8247 12.0307 28.8944C12.0619 28.8777 12.0942 28.8632 12.1274 28.8507C12.1784 28.8361 12.2314 28.8642 12.246 28.9152C12.2481 28.9224 12.2491 28.9297 12.2502 28.938C12.246 28.99 12.2325 29.04 12.2106 29.0868C12.2855 29.1523 12.3666 29.2095 12.453 29.2573L12.48 29.2417C12.4998 29.2303 12.5206 29.2209 12.5414 29.2116L12.5778 29.198C12.61 29.1887 12.6443 29.197 12.6693 29.2188C12.6953 29.2407 12.7067 29.276 12.6984 29.3093C12.6942 29.327 12.689 29.3436 12.6818 29.3603C12.791 29.4008 12.9095 29.4123 13.025 29.3925C13.0666 29.3052 13.103 29.2147 13.1352 29.1232L13.0468 29.1003C13.0135 29.092 12.9844 29.0712 12.9646 29.0431C12.9459 29.014 12.9407 28.9786 12.948 28.9453C12.9553 28.912 12.9761 28.8829 13.0042 28.8632C13.0333 28.8444 13.0686 28.8392 13.103 28.8465C13.1373 28.8559 13.1737 28.8642 13.207 28.8715C13.2413 28.7311 13.2558 28.5855 13.2517 28.4409H13.2423C13.1893 28.4659 13.1394 28.495 13.0915 28.5293C13.0302 28.5668 12.9501 28.547 12.9126 28.4856C12.8762 28.4264 12.8939 28.3484 12.9522 28.3099L12.9542 28.3182Z" fill="white"/>
<path d="M9.34235 29.2126C9.31635 29.3946 9.80827 29.5142 10.2097 29.5807C10.1764 29.9104 9.95699 30.2432 9.65435 30.5542C9.27371 30.3389 8.73603 30.056 8.63203 30.1247C8.52803 30.1933 9.07923 30.5604 9.42763 30.7715C9.17907 30.9889 8.91595 31.1886 8.63931 31.3695C8.46875 31.2094 8.26907 31.07 8.14947 31.1459C8.02987 31.2219 8.06003 31.4704 8.12035 31.6909C7.70435 31.9322 7.39235 32.0799 7.39235 32.0799C7.27171 31.6951 7.17915 31.3019 7.11571 30.9036C7.13651 30.862 7.15731 30.8204 7.17603 30.7767C7.24259 30.6218 7.17603 30.5563 7.07203 30.5344C7.03979 30.2536 7.03771 29.9697 7.06475 29.6879C7.53379 29.5891 8.10475 29.4071 7.89051 29.1263C7.76155 28.9567 7.52547 28.937 7.28003 28.9796C7.31435 28.9234 7.35283 28.8704 7.39651 28.8215C8.24931 27.8855 8.84419 28.8215 8.84419 28.8215C9.34027 28.4055 10.0371 28.521 10.1879 29.1668C9.90707 29.0951 9.37355 28.989 9.34235 29.2126Z" fill="#FDB812"/>
<path opacity="0.5" d="M9.34235 29.2126C9.31635 29.3946 9.80827 29.5142 10.2097 29.5807C10.1764 29.9104 9.95699 30.2432 9.65435 30.5542C9.27371 30.3389 8.73603 30.056 8.63203 30.1247C8.52803 30.1933 9.07923 30.5604 9.42763 30.7715C9.17907 30.9889 8.91595 31.1886 8.63931 31.3695C8.46875 31.2094 8.26907 31.07 8.14947 31.1459C8.02987 31.2219 8.06003 31.4704 8.12035 31.6909C7.70435 31.9322 7.39235 32.0799 7.39235 32.0799C7.27171 31.6951 7.17915 31.3019 7.11571 30.9036C7.13651 30.862 7.15731 30.8204 7.17603 30.7767C7.24259 30.6218 7.17603 30.5563 7.07203 30.5344C7.03979 30.2536 7.03771 29.9697 7.06475 29.6879C7.53379 29.5891 8.10475 29.4071 7.89051 29.1263C7.76155 28.9567 7.52547 28.937 7.28003 28.9796C7.31435 28.9234 7.35283 28.8704 7.39651 28.8215C8.24931 27.8855 8.84419 28.8215 8.84419 28.8215C9.34027 28.4055 10.0371 28.521 10.1879 29.1668C9.90707 29.0951 9.37355 28.989 9.34235 29.2126Z" fill="white"/>
</g>
<defs>
<clipPath id="clip0_1_6653">
<rect width="51.2821" height="38.2113" fill="white" transform="scale(1.014)"/>
</clipPath>
</defs>
</svg>
