<svg width="16" height="16" viewBox="0 0 16 16" fill="none" xmlns="http://www.w3.org/2000/svg">
<path d="M4.91696 0.867178L4.91719 0.867744L6.1667 3.86656L6.16668 3.86656L6.16792 3.86943C6.34274 4.27469 6.22445 4.74541 5.87979 5.02594L5.8793 5.02634L4.33991 6.28584L4.18871 6.40955L4.2722 6.58618C5.33652 8.83763 7.15794 10.659 9.40939 11.7234L9.58601 11.8069L9.70972 11.6557L10.9692 10.1163L10.9696 10.1158C11.2476 9.77422 11.7187 9.66014 12.1295 9.82908C12.1297 9.82914 12.1298 9.8292 12.13 9.82927L15.1278 11.0784L15.1278 11.0784L15.1298 11.0792C15.6026 11.2715 15.8485 11.7732 15.7129 12.2599L15.7125 12.2612L14.9631 15.009C14.963 15.0092 14.963 15.0094 14.9629 15.0096C14.8428 15.4409 14.4417 15.7456 13.9945 15.7456C6.40559 15.7456 0.25 9.58997 0.25 2.0011C0.25 1.55384 0.554686 1.15267 0.986034 1.0326C0.986205 1.03256 0.986376 1.03251 0.986547 1.03246L3.73309 0.283406C4.2229 0.155511 4.7255 0.404486 4.91696 0.867178Z" stroke="black" stroke-opacity="0.5" stroke-width="0.5"/>
</svg>
