<svg width="39" height="39" viewBox="0 0 39 39" fill="none" xmlns="http://www.w3.org/2000/svg">
<g clip-path="url(#clip0_1_9112)">
<path d="M10.2531 0.933553H2.45063V13.8498H10.2531V0.933553Z" fill="#E0E0E0"/>
<path d="M9.99403 0.933553H2.19157V13.8498H9.99403V0.933553Z" fill="#EBEBEB"/>
<path d="M9.66257 1.19537H2.5239V13.5871H9.66257V1.19537Z" fill="#FAFAFA"/>
<path d="M8.27241 2.80591H3.88325V11.9774H8.27241V2.80591Z" fill="#EBEBEB"/>
<path d="M3.88311 8.73159C3.87253 7.87473 4.64299 7.03816 5.49103 6.91915C5.89565 6.86185 6.32584 6.94207 6.70402 6.78692C7.3784 6.51012 7.59349 5.6136 8.27227 5.34825L8.30313 11.9774H3.88311V8.73159Z" fill="#E0E0E0"/>
<path d="M38.986 1.41749H31.5026V9.21819H38.986V1.41749Z" fill="#E0E0E0"/>
<path d="M38.4791 1.41749H30.9957V9.21819H38.4791V1.41749Z" fill="#FAFAFA"/>
<path d="M38.4808 9.21998H30.993V1.41487H38.4808V9.21998ZM30.9974 9.21557H38.4763V1.41927H30.9974V9.21557Z" fill="#E0E0E0"/>
<path d="M37.4732 2.46564H32.0015V8.16917H37.4732V2.46564Z" fill="#FAFAFA"/>
<path d="M32.0015 8.20712C31.9627 8.26442 31.9178 8.31731 31.8667 8.36403C31.7785 8.45659 31.656 8.58089 31.5184 8.71664C31.3809 8.8524 31.254 8.97317 31.1614 9.05868C31.1138 9.10893 31.0609 9.15389 31.0027 9.19091C31.0415 9.13361 31.0865 9.08072 31.1376 9.034C31.2258 8.94584 31.3474 8.81714 31.4858 8.68138C31.6242 8.54563 31.7503 8.42397 31.8437 8.33847C31.8905 8.28822 31.9433 8.24414 32.0015 8.20712Z" fill="#E0E0E0"/>
<path d="M37.4732 8.19299C37.5305 8.23178 37.5825 8.27762 37.6301 8.32786C37.7182 8.41602 37.8469 8.53855 37.9827 8.68048C38.1185 8.8224 38.2383 8.94494 38.3247 9.03838C38.375 9.0851 38.4191 9.13799 38.4561 9.19618C38.3988 9.15739 38.3468 9.11243 38.3 9.06218C38.2075 8.97403 38.0823 8.8515 37.9474 8.70957C37.8126 8.56764 37.69 8.44511 37.6045 8.35166C37.5543 8.30406 37.5102 8.25117 37.4732 8.19299Z" fill="#E0E0E0"/>
<path d="M37.4582 2.48155C37.497 2.42425 37.5419 2.37136 37.593 2.32463C37.6812 2.23648 37.8028 2.1069 37.9404 1.97202C38.0779 1.83715 38.2048 1.71549 38.2983 1.6291C38.3459 1.57974 38.3988 1.53566 38.4561 1.49864C38.4173 1.55594 38.3723 1.60795 38.3221 1.65467C38.2339 1.74723 38.1114 1.87241 37.9695 2.00728C37.8275 2.14216 37.705 2.26469 37.6116 2.3502C37.5648 2.39957 37.5137 2.44276 37.4582 2.48155Z" fill="#E0E0E0"/>
<path d="M31.9858 2.49472C31.9285 2.45593 31.8756 2.41098 31.8289 2.35985C31.7363 2.27169 31.612 2.15004 31.4763 2.01252C31.3405 1.875 31.2197 1.74806 31.1342 1.65462C31.084 1.60702 31.0399 1.55412 31.002 1.49682C31.0593 1.53473 31.1122 1.57969 31.1589 1.63082C31.2471 1.71897 31.3758 1.8415 31.5115 1.98343C31.6473 2.12536 31.7689 2.24789 31.8544 2.34133C31.9038 2.38717 31.9479 2.4383 31.9858 2.49472Z" fill="#E0E0E0"/>
<path d="M37.4584 8.16921C37.4575 8.1604 37.4575 8.1507 37.4584 8.14188C37.4584 8.12249 37.4584 8.09604 37.4584 8.06166C37.4584 7.99026 37.4584 7.88536 37.4584 7.75401C37.4584 7.48426 37.4584 7.09109 37.4531 6.59215C37.4531 5.59249 37.4469 4.16969 37.4425 2.46568L37.4636 2.48684H32.0078L32.0316 2.46216C32.0316 4.5558 32.0316 6.51722 32.0316 8.16569L32.0105 8.14541L35.9615 8.15599L37.0705 8.16128H37.3649H37.4672C37.4592 8.16216 37.4504 8.16216 37.4425 8.16128H37.3632H37.0731L35.9686 8.16657L32.0017 8.17715H31.9805V8.15599C31.9805 6.50487 31.9805 4.5461 31.9805 2.45246V2.44188H32.0061H37.4619H37.483V2.46833C37.4778 4.1785 37.4742 5.60571 37.4716 6.61154C37.4716 7.10873 37.4716 7.50013 37.4663 7.769C37.4663 7.90123 37.4663 8.0026 37.4663 8.07312C37.4663 8.10574 37.4663 8.13131 37.4663 8.14982C37.4663 8.16833 37.4584 8.17009 37.4584 8.16921Z" fill="#E0E0E0"/>
<path d="M35.6501 4.40501H33.8245V6.23067H35.6501V4.40501Z" fill="#EBEBEB"/>
<path d="M27.6837 37.9721C27.5286 37.839 27.1813 37.4168 27.4493 36.9249C27.5471 36.7486 27.756 36.6551 27.9438 36.5723C28.1316 36.4894 28.3308 36.4242 28.4868 36.2911C28.7813 36.0407 28.8624 35.6255 29.0581 35.2914C29.282 34.9079 29.7007 34.6205 30.1432 34.6408C30.6492 34.6637 31.0715 35.0772 31.2628 35.5488C31.4541 36.0204 31.4611 36.5441 31.4655 37.0536C31.4655 37.3348 31.455 37.6521 31.2478 37.8426C31.0574 38.0189 30.7709 38.0189 30.5117 38.0118L27.7446 37.9237" fill="#F5F5F5"/>
<path d="M32.9773 30.3627H25.6994L27.0102 38.1793C27.0658 38.5116 27.3073 38.7831 27.6317 38.8757L27.6573 38.8827C27.6784 38.888 27.6996 38.8951 27.7216 38.8995C27.7701 38.9092 27.8204 38.9145 27.8697 38.9162V38.9242L27.905 38.918H31.149C31.2081 38.918 31.2672 38.9118 31.3253 38.9004C31.715 38.8404 32.0156 38.5275 32.0614 38.1361L32.6935 32.7499L32.7217 32.5357L32.9712 30.4033L32.9773 30.3627ZM31.6039 35.3496H30.8572L30.9331 33.0814H31.7978L31.6039 35.3496ZM31.8684 33.0814H32.5842L32.3197 35.3496H31.6771L31.8684 33.0814ZM29.735 37.8646L29.6936 35.8926H30.77L30.7039 37.8637L29.735 37.8646ZM28.5741 35.8926H29.6187L29.6645 37.8637H28.7239L28.5741 35.8926ZM28.6552 37.8637H27.7789C27.6952 37.3348 27.5867 36.6401 27.4695 35.8926H28.5018L28.6552 37.8637ZM28.5318 35.3496L28.3554 33.0814H29.5543L29.6055 35.3496H28.5318ZM29.6777 35.3496L29.6257 33.0814H30.8599L30.785 35.3496H29.6777ZM29.6134 32.5366L29.5649 30.4359H30.9472L30.8775 32.5366H29.6134ZM29.5411 32.5366H28.3131L28.15 30.4359H29.4935L29.5411 32.5366ZM28.24 32.5366H26.9406C26.8947 32.2465 26.8524 31.9724 26.8119 31.7247C26.6761 30.8758 26.625 30.5558 26.5968 30.4359H28.0778L28.24 32.5366ZM28.2823 33.0814L28.4595 35.3496H27.384C27.3479 35.1195 27.3117 34.8867 27.2747 34.654C27.1909 34.118 27.1063 33.583 27.027 33.0814H28.2823ZM27.3135 35.3496H26.6082L26.2274 33.0814H26.9529C27.0649 33.7813 27.1874 34.5615 27.3135 35.3496ZM27.4016 35.8935C27.5092 36.5758 27.6141 37.2484 27.711 37.8646H27.0358L26.6964 35.8926L27.4016 35.8935ZM30.7788 37.8646L30.8449 35.8935H31.5633L31.395 37.8646H30.7788ZM30.9551 32.5366L31.0247 30.4359H32.0288L31.8525 32.5366H30.9551ZM26.5324 30.4359C26.5615 30.5875 26.6938 31.4144 26.8718 32.5366H26.141L25.7884 30.4359H26.5324ZM32.0288 37.8646H31.4664L31.633 35.8926H32.258L32.0288 37.8646ZM32.6538 32.5366H31.9213L32.0976 30.4359H32.8971L32.6538 32.5366Z" fill="#E0E0E0"/>
<path d="M27.0059 29.4503L16.9996 29.4433C15.7963 29.4424 14.8213 28.4665 14.8213 27.2632V2.17827C14.8222 0.974097 15.7989 -0.000880938 17.0031 5.97315e-07C17.0049 5.97315e-07 17.0058 5.97315e-07 17.0075 5.97315e-07L27.0138 0.00617134C28.2171 0.00705288 29.1921 0.982912 29.1921 2.18621L29.1868 27.2703C29.1877 28.4736 28.2118 29.4494 27.0085 29.4503C27.0077 29.4503 27.0068 29.4503 27.0059 29.4503Z" fill="#455A64"/>
<path d="M27.0034 0.893869H25.064C24.7987 0.90004 24.5871 1.11954 24.5933 1.38577V1.73838C24.5994 2.00372 24.3887 2.22411 24.1225 2.23028H20.3407C20.0745 2.22411 19.8638 2.00372 19.87 1.7375V1.38488C19.8762 1.11866 19.6655 0.898277 19.3992 0.892106H17.0191C16.1764 0.891224 15.4923 1.57353 15.4914 2.41628C15.4914 2.41716 15.4914 2.41716 15.4914 2.41804L15.487 26.9027C15.487 27.7454 16.1693 28.4286 17.0121 28.4295L26.9981 28.4348C27.8408 28.4357 28.5249 27.7534 28.5258 26.9106C28.5258 26.9097 28.5258 26.9097 28.5258 26.9088V2.42421C28.5275 1.58147 27.8461 0.896514 27.0034 0.893869Z" fill="#FAFAFA"/>
<path d="M25.2683 1.68812H25.1572V1.84327H25.2683V1.68812Z" fill="#263238"/>
<path d="M25.4491 1.61936H25.338V1.84415H25.4491V1.61936Z" fill="#263238"/>
<path d="M25.6289 1.56734H25.5178V1.84414H25.6289V1.56734Z" fill="#263238"/>
<path d="M25.8097 1.46688H25.6986V1.84418H25.8097V1.46688Z" fill="#263238"/>
<path d="M27.4467 1.85125H26.8905C26.8684 1.85125 26.8508 1.83362 26.8499 1.81158V1.53478C26.8499 1.51274 26.8676 1.49511 26.8896 1.49511H27.4467C27.4494 1.49423 27.4511 1.49423 27.4538 1.49511C27.4547 1.49775 27.4547 1.5004 27.4538 1.50304V1.5912H27.5137C27.5199 1.5912 27.5243 1.5956 27.5243 1.60178V1.73489C27.5234 1.74018 27.519 1.74458 27.5137 1.74458H27.4538V1.83274C27.4591 1.8345 27.4617 1.84067 27.46 1.84596C27.4573 1.85037 27.4511 1.85301 27.4467 1.85125ZM27.4362 1.51538H26.8896C26.879 1.51538 26.8702 1.5242 26.8702 1.53478V1.81158C26.8702 1.82216 26.879 1.83097 26.8896 1.83097H26.8905H27.4362V1.74282C27.4362 1.73665 27.4406 1.73224 27.4467 1.73224H27.5058V1.61676H27.4467C27.4414 1.61764 27.437 1.61323 27.4362 1.60795V1.60706V1.51538Z" fill="#263238"/>
<path d="M26.9159 1.78601V1.56122H27.3911V1.66259V1.68463V1.78601H26.9159Z" fill="#263238"/>
<path d="M26.3439 1.83007C26.343 1.80804 26.3254 1.79041 26.3034 1.78952C26.2813 1.78952 26.2628 1.80804 26.2628 1.83007C26.2619 1.85211 26.2796 1.86974 26.3016 1.87063C26.3025 1.87063 26.3025 1.87063 26.3034 1.87063C26.3254 1.87063 26.3439 1.85211 26.3439 1.83007Z" fill="#263238"/>
<path d="M26.1605 1.7322L26.2125 1.78421C26.2592 1.73572 26.3368 1.73396 26.3862 1.78156C26.3871 1.78244 26.3879 1.78332 26.3888 1.78421L26.4408 1.7322C26.4038 1.69517 26.3527 1.67401 26.2998 1.6749C26.2469 1.6749 26.1975 1.69517 26.1605 1.7322Z" fill="#263238"/>
<path d="M26.2999 1.55855C26.2179 1.55766 26.1385 1.5894 26.0795 1.6467L26.1306 1.69871C26.2241 1.60615 26.3748 1.60615 26.4682 1.69871L26.5202 1.6467C26.4612 1.5894 26.3818 1.55766 26.2999 1.55855Z" fill="#263238"/>
<path d="M25.9912 1.56559L26.0432 1.6176C26.1834 1.47832 26.4091 1.47832 26.5492 1.6176L26.6012 1.56559C26.432 1.39722 26.1596 1.39722 25.9912 1.56559Z" fill="#263238"/>
<path d="M22.0032 3.94045H22.6749C22.7207 3.94045 22.7586 3.97836 22.7586 4.0242V4.47995C22.7586 4.52579 22.7207 4.5637 22.6749 4.5637H22.0032C21.9573 4.5637 21.9194 4.52579 21.9194 4.47995V4.0242C21.9194 3.97836 21.9564 3.94045 22.0032 3.94045Z" fill="#263238"/>
<path d="M22.1046 3.98098H22.0164V3.87872C22.0067 3.70065 22.1442 3.54903 22.3214 3.53933C22.4995 3.52964 22.6511 3.66716 22.6608 3.84434C22.6617 3.8558 22.6617 3.86726 22.6608 3.87784V3.94484H22.5727V3.87872C22.5806 3.74914 22.4819 3.63807 22.3532 3.63013C22.2236 3.6222 22.1125 3.72093 22.1046 3.84963C22.1037 3.85933 22.1037 3.86903 22.1046 3.87872V3.98098Z" fill="#263238"/>
<path d="M15.589 19.3841C15.6067 17.7709 16.4873 16.2908 17.8969 15.5053C18.8666 14.9764 19.9967 14.8389 21.0748 14.5912C22.1529 14.3435 23.2707 13.9344 23.9372 13.052C24.8381 11.8593 24.6662 10.1641 25.3168 8.82064C25.933 7.58561 27.1689 6.78077 28.5476 6.71642V27.213C28.5476 27.9006 27.9896 28.4586 27.302 28.4586H16.8364C16.1479 28.4595 15.5899 27.9015 15.589 27.213V19.3841Z" fill="#EBEBEB"/>
<path d="M17.7931 8.70868C17.7931 7.94879 18.1915 7.49568 18.7443 7.49568C19.297 7.49568 19.6981 7.94879 19.6981 8.70868C19.6981 9.46856 19.2961 9.92255 18.7443 9.92255C18.1924 9.92255 17.7931 9.46856 17.7931 8.70868ZM19.446 8.70868C19.446 8.07133 19.1595 7.72048 18.7407 7.72048C18.322 7.72048 18.0355 8.07309 18.0355 8.70868C18.0355 9.34426 18.322 9.69776 18.7407 9.69776C19.1595 9.69776 19.4477 9.34426 19.4477 8.70868H19.446Z" fill="#263238"/>
<path d="M21.7722 8.68841C21.7722 9.49942 21.3314 9.92256 20.6817 9.92256C20.4852 9.93138 20.2895 9.88642 20.1158 9.79298L20.2145 9.59551C20.3547 9.67661 20.516 9.7154 20.6782 9.70747C21.193 9.70747 21.5236 9.37689 21.5236 8.72896C21.5236 8.67519 21.5236 8.60643 21.513 8.53503C21.394 8.79949 21.1146 8.94406 20.784 8.94406C20.3097 8.94406 19.9792 8.66461 19.9792 8.22825C19.9792 7.79189 20.3318 7.4957 20.7937 7.4957C21.4275 7.49305 21.7722 7.93382 21.7722 8.68841ZM21.4346 8.21503C21.4346 7.95057 21.2168 7.70374 20.8043 7.70374C20.4596 7.70374 20.2216 7.90473 20.2216 8.2212C20.2216 8.53767 20.4534 8.73602 20.821 8.73602C21.1886 8.73602 21.4346 8.51122 21.4346 8.21503Z" fill="#263238"/>
<path d="M22.1301 8.2794C22.1257 8.18243 22.2006 8.09957 22.2985 8.09516C22.3029 8.09516 22.3073 8.09516 22.3108 8.09516C22.4113 8.09428 22.4933 8.17626 22.4942 8.27675C22.4942 8.27764 22.4942 8.27852 22.4942 8.2794C22.4951 8.38166 22.4131 8.4654 22.3108 8.46717C22.2094 8.4654 22.1283 8.38254 22.1301 8.28116C22.1292 8.28028 22.1301 8.28028 22.1301 8.2794ZM22.1301 9.73129C22.1257 9.63432 22.2006 9.55145 22.2985 9.54705C22.3029 9.54705 22.3073 9.54705 22.3108 9.54705C22.4113 9.54616 22.4933 9.62815 22.4942 9.72864C22.4942 9.72952 22.4942 9.73041 22.4942 9.73129C22.4951 9.83354 22.4131 9.91729 22.3108 9.91905C22.2094 9.91729 22.1283 9.83443 22.1301 9.73305C22.1292 9.73217 22.1301 9.73217 22.1301 9.73129Z" fill="#263238"/>
<path d="M24.4786 9.68367V9.90229H22.8037V9.72598L23.7954 8.75629C24.0651 8.49183 24.1163 8.33051 24.1163 8.16654C24.1163 7.89062 23.9215 7.72049 23.5574 7.72049C23.3114 7.70462 23.0717 7.80247 22.9059 7.98495L22.7296 7.83421C22.9139 7.61647 23.2101 7.49393 23.575 7.49393C24.059 7.49393 24.3684 7.739 24.3684 8.13745C24.3684 8.36665 24.297 8.57117 23.9761 8.88411L23.1651 9.6775L24.4786 9.68367Z" fill="#263238"/>
<path d="M24.7711 8.70868C24.7711 7.94879 25.1696 7.49568 25.7223 7.49568C26.275 7.49568 26.6761 7.94879 26.6761 8.70868C26.6761 9.46856 26.2742 9.92255 25.7223 9.92255C25.1705 9.92255 24.7711 9.46856 24.7711 8.70868ZM26.424 8.70868C26.424 8.07133 26.1375 7.72048 25.7188 7.72048C25.3001 7.72048 25.0136 8.07309 25.0136 8.70868C25.0136 9.34426 25.3062 9.69688 25.7267 9.69688C26.1472 9.69688 26.424 9.34426 26.424 8.70868Z" fill="#263238"/>
<path d="M19.6185 5.67866C19.8183 4.74855 19.2264 3.83252 18.2963 3.63265C17.3662 3.43278 16.4501 4.02475 16.2503 4.95486C16.0504 5.88496 16.6423 6.80099 17.5725 7.00086C18.5026 7.20074 19.4186 6.60876 19.6185 5.67866Z" fill="#E0E0E0"/>
<path d="M8.59408 19.02C8.46979 18.9319 8.3164 18.8948 8.178 18.8296C8.0396 18.7644 7.90561 18.6533 7.89238 18.4981C7.87387 18.2725 8.12246 18.1023 8.13745 17.8811C8.15772 17.5628 7.72753 17.3892 7.66495 17.0771C7.61294 16.8179 7.83244 16.5737 7.82362 16.3093C7.81481 16.0448 7.58561 15.8482 7.48159 15.6041C7.23828 15.0416 7.6861 14.3161 7.34671 13.8057C7.24357 13.677 7.12897 13.5589 7.00291 13.4531C6.88655 13.3368 6.78517 13.1887 6.79928 13.0203L6.16281 12.7311C5.94948 12.405 5.46552 12.3926 5.10497 12.5319C4.74442 12.6712 4.42178 12.9207 4.04713 13.0141C3.86377 13.0591 3.89021 12.7876 3.70509 12.8255C3.46091 12.8748 3.16207 13.1596 3.08802 13.3958C3.01397 13.6488 2.96196 13.9291 2.87204 14.1777C2.77243 14.4519 2.47888 14.6432 2.45067 14.9341C2.41893 15.2726 2.7689 15.5512 2.76978 15.8897C2.76978 16.2555 2.36604 16.5834 2.49474 16.9264C2.56879 17.1221 2.79447 17.227 2.8738 17.4209C2.98223 17.6854 2.76626 17.9833 2.78565 18.2716C2.80504 18.5598 3.04482 18.7714 3.27138 18.9442C4.1344 19.6177 5.09968 20.1475 6.13019 20.5151C6.57713 20.6685 7.04787 20.7857 7.51861 20.7434C7.98935 20.7011 8.46274 20.4789 8.70957 20.0717C8.91144 19.7411 8.90967 19.2466 8.59408 19.02Z" fill="#263238"/>
<path d="M6.77367 12.8607C6.59384 12.1405 5.86393 11.7033 5.1446 11.8831C4.90482 11.943 4.68708 12.0673 4.51342 12.2436C4.37766 12.3812 4.27011 12.5495 4.10967 12.6571C3.92808 12.7796 3.90163 12.7452 3.69888 12.8237C3.49613 12.9021 3.12324 13.469 3.12941 13.6876L3.02803 14.6449C3.03597 14.8688 3.32423 14.9976 3.5358 14.9217C3.74736 14.8459 3.88841 14.6502 4.00125 14.4563C4.11408 14.2624 4.21722 14.0525 4.40234 13.9282C4.70647 13.714 5.11903 13.7881 5.48311 13.8621C5.84718 13.9362 6.26944 13.99 6.55417 13.7502C6.79924 13.5395 6.85213 13.1719 6.77367 12.8607Z" fill="#263238"/>
<path d="M6.97481 14.2271C6.93337 13.6038 6.51905 12.8404 5.89845 12.9048L3.95907 13.3993C3.77043 13.4196 3.62938 13.5809 3.63379 13.7704L3.85153 18.4426H3.83742C3.83742 18.4426 4.6308 20.1131 5.90727 19.7102C6.16115 19.63 5.93019 18.9997 5.98132 18.7141H5.99366C5.99366 18.6806 5.99366 18.6488 5.99366 18.6162C6.01834 18.4029 6.02098 18.1878 6.00159 17.9745C6.00159 17.5972 6.00159 17.4456 6.00159 17.4456C6.00159 17.4456 6.79497 17.3116 6.95982 16.2731C7.04709 15.7662 7.01976 14.9191 6.97481 14.2271Z" fill="#FFBE9D"/>
<path d="M6.81442 15.0275C6.81531 15.0998 6.758 15.1598 6.68572 15.1624C6.6152 15.1677 6.55349 15.1157 6.5482 15.0452C6.5482 15.0443 6.5482 15.0434 6.5482 15.0425C6.54732 14.9702 6.60462 14.9103 6.6769 14.9077C6.74654 14.9015 6.80825 14.9535 6.81442 15.0231C6.81354 15.0249 6.81354 15.0258 6.81442 15.0275Z" fill="#263238"/>
<path d="M6.79144 14.6678C6.77558 14.6855 6.6742 14.6114 6.52698 14.6114C6.37977 14.6114 6.27927 14.6846 6.26252 14.667C6.24577 14.6493 6.27134 14.6273 6.31718 14.5947C6.37889 14.5515 6.45293 14.5286 6.52875 14.5286C6.60279 14.5286 6.67596 14.5524 6.73591 14.5956C6.78439 14.6335 6.80026 14.6599 6.79144 14.6678Z" fill="#263238"/>
<path d="M5.45944 15.0742C5.46032 15.1465 5.40391 15.2056 5.33162 15.2082C5.26198 15.2144 5.20027 15.1624 5.1941 15.0928C5.1941 15.091 5.1941 15.0901 5.1941 15.0883C5.19322 15.0161 5.24964 14.957 5.32192 14.9544C5.39156 14.9482 5.45327 15.0002 5.45944 15.0698C5.45856 15.0716 5.45856 15.0725 5.45944 15.0742Z" fill="#263238"/>
<path d="M5.38283 14.6979C5.36696 14.7155 5.26559 14.6406 5.11837 14.6414C4.97115 14.6423 4.87066 14.7146 4.85391 14.697C4.83716 14.6793 4.86272 14.6573 4.90856 14.6238C4.97115 14.5815 5.04432 14.5586 5.12013 14.5586C5.19418 14.5586 5.26735 14.5815 5.32729 14.6247C5.37578 14.6591 5.39076 14.6899 5.38283 14.6979Z" fill="#263238"/>
<path d="M5.90548 15.7601C5.98129 15.7354 6.05887 15.7213 6.1382 15.7169C6.17435 15.7169 6.20961 15.7063 6.21578 15.6807C6.21842 15.6428 6.20961 15.6049 6.1911 15.5723C6.15583 15.4842 6.11969 15.3916 6.08179 15.2937C5.93104 14.8979 5.81733 14.5718 5.8376 14.5656C5.85788 14.5594 5.98922 14.8759 6.13997 15.2708C6.17611 15.3687 6.21137 15.4621 6.24399 15.5512C6.26691 15.5952 6.27396 15.6464 6.26338 15.6948C6.2528 15.7213 6.23077 15.7407 6.20344 15.7486C6.18316 15.7539 6.16289 15.7566 6.14173 15.7574C6.06327 15.768 5.98393 15.7689 5.90548 15.7601Z" fill="#263238"/>
<path d="M6.00864 17.4544C5.51938 17.4632 5.03806 17.3354 4.61669 17.0868C4.61669 17.0868 4.9552 17.7991 5.99453 17.7039L6.00864 17.4544Z" fill="#EB996E"/>
<path d="M5.84561 16.1057C5.79007 16.0351 5.7028 15.999 5.61376 16.0096C5.55029 16.0157 5.49123 16.0475 5.45156 16.0977C5.41189 16.1462 5.40748 16.215 5.4401 16.2687C5.4877 16.3208 5.56175 16.3393 5.62875 16.3155C5.69663 16.2917 5.75834 16.2546 5.81123 16.2062C5.8271 16.1947 5.8412 16.1797 5.85178 16.163C5.86236 16.1471 5.86236 16.1259 5.85178 16.1101" fill="#EB996E"/>
<path d="M5.48422 15.8597C5.50714 15.8597 5.50803 16.0139 5.64114 16.1241C5.77425 16.2343 5.93998 16.2167 5.94174 16.2387C5.9435 16.2608 5.90472 16.2687 5.83508 16.2705C5.7434 16.2713 5.65436 16.2405 5.58384 16.1823C5.51596 16.1268 5.47276 16.0474 5.46219 15.961C5.45602 15.8976 5.47365 15.8588 5.48422 15.8597Z" fill="#263238"/>
<path d="M5.45144 14.4466C5.43733 14.4863 5.29364 14.4677 5.12615 14.488C4.95866 14.5083 4.82202 14.555 4.7991 14.5206C4.7894 14.5039 4.81321 14.4669 4.86786 14.4325C4.94015 14.384 5.02301 14.354 5.1094 14.3443C5.19579 14.3346 5.28306 14.3443 5.36416 14.3743C5.42146 14.3981 5.45144 14.4281 5.45144 14.4466Z" fill="#263238"/>
<path d="M6.7377 14.2536C6.71302 14.2862 6.61429 14.2536 6.49528 14.2536C6.37627 14.2536 6.27666 14.2765 6.25286 14.2421C6.24316 14.2253 6.25903 14.1927 6.30223 14.1619C6.423 14.0861 6.57726 14.0905 6.69363 14.1733C6.73506 14.2042 6.74916 14.2377 6.7377 14.2536Z" fill="#263238"/>
<path d="M5.86406 12.6421L5.7759 12.5292C5.17558 12.598 4.58848 12.7479 4.0287 12.9753C3.80479 13.0634 3.57912 13.1745 3.42573 13.3614C3.21593 13.6179 3.18243 13.9723 3.16127 14.3029C3.07312 15.5635 2.99466 16.8593 3.39135 18.0609C3.48656 17.9075 3.67344 17.8387 3.85063 17.8043C4.02782 17.77 4.21382 17.7585 4.37955 17.6765C4.55586 17.5813 4.68368 17.4156 4.73217 17.2216C4.77889 17.0277 4.75685 16.8223 4.66781 16.6434C4.57173 16.4432 4.40335 16.2502 4.44214 16.0325C4.48093 15.8147 4.74715 15.6745 4.80886 15.4506C4.91553 15.0636 4.36809 14.7163 4.48181 14.3302C4.53206 14.19 4.63872 14.0763 4.77536 14.0164C4.90759 13.9503 5.05304 13.9132 5.18704 13.8507C5.64279 13.6285 5.91254 13.1472 5.86406 12.6421Z" fill="#263238"/>
<path d="M11.1073 20.5601L9.89255 22.4501C9.98776 22.5902 10.15 22.6705 10.3192 22.6616C10.6119 22.6493 11.0139 21.9194 11.0615 21.7722C11.1091 21.6249 11.0447 21.4821 11.0879 21.3834C11.1311 21.2847 11.1144 21.0149 11.1144 21.0149C11.1082 21.0308 11.3771 20.6711 11.1073 20.5601Z" fill="#FFBE9D"/>
<path d="M9.55672 22.4492L10.1897 19.9465C10.2091 19.8724 10.2575 19.8081 10.3245 19.7702L11.244 19.2457C11.3004 19.2139 11.3709 19.2298 11.4088 19.2818C11.4309 19.3118 11.4379 19.3506 11.4291 19.3867L10.7591 22.0207L9.55672 22.4492Z" fill="#263238"/>
<path d="M9.23775 24.3885L10.7073 21.6743L10.1537 20.9576L8.08559 22.5267L8.62773 24.0183L9.23775 24.3885Z" fill="#FDB812"/>
<path d="M10.7247 22.2631C10.738 22.227 10.7468 22.1891 10.7529 22.1512C10.7626 22.0454 10.7521 21.9387 10.7221 21.8374V21.8312V21.825C10.7485 21.7836 10.7547 21.7325 10.7406 21.6857C10.7203 21.6337 10.6842 21.5888 10.6375 21.5579L10.6216 21.5473L10.6322 21.5306L10.7988 21.282C10.8138 21.2617 10.827 21.2406 10.8376 21.2176C10.8446 21.1956 10.842 21.1727 10.8323 21.1524C10.8085 21.1057 10.7732 21.066 10.73 21.036L10.7089 21.0211L10.7256 21.0017C10.7706 20.9505 10.8208 20.8994 10.8711 20.8474C10.9575 20.7592 11.0377 20.6658 11.1135 20.5679C11.1479 20.523 11.177 20.4754 11.2016 20.4243C11.2131 20.4013 11.2202 20.3775 11.2237 20.352C11.2237 20.3291 11.2149 20.3167 11.2016 20.3141H11.1964C11.1681 20.3114 11.1391 20.3158 11.1135 20.3273C11.0835 20.3387 11.0544 20.3511 11.0253 20.3652C10.9716 20.3943 10.9213 20.4243 10.8755 20.4534C10.7873 20.5133 10.7036 20.5697 10.6392 20.6164L10.4885 20.7257C10.4717 20.7407 10.4532 20.7531 10.4329 20.7628C10.447 20.7451 10.4629 20.7293 10.4805 20.716C10.5132 20.687 10.5616 20.6464 10.6242 20.5962C10.6868 20.5459 10.7644 20.4877 10.8561 20.4251C10.9028 20.3934 10.9522 20.3617 11.0077 20.3308C11.0359 20.3149 11.0659 20.3008 11.0959 20.2894C11.1302 20.2726 11.169 20.2673 11.206 20.2744H11.2008C11.2404 20.2797 11.2678 20.3158 11.2625 20.3555C11.2598 20.3864 11.251 20.4163 11.2378 20.4437C11.2122 20.4974 11.1805 20.5486 11.1443 20.5962C11.0685 20.6958 10.9865 20.791 10.8993 20.8809C10.849 20.9329 10.7988 20.984 10.7538 21.0343V20.9999C10.8041 21.0343 10.8455 21.0819 10.8719 21.1374C10.8852 21.1674 10.8878 21.2018 10.8772 21.2335C10.8658 21.26 10.8508 21.2846 10.8332 21.3067C10.7732 21.3948 10.7159 21.4777 10.6621 21.5553V21.5271C10.715 21.5641 10.7556 21.6161 10.7767 21.6769C10.7935 21.7333 10.7847 21.7942 10.7529 21.8435V21.8312C10.7811 21.937 10.7864 22.0472 10.7697 22.1556C10.7644 22.1847 10.7556 22.2129 10.7424 22.2393C10.7318 22.2552 10.7265 22.264 10.7247 22.2631Z" fill="#EB996E"/>
<path d="M11.4089 19.2809C11.386 19.3012 11.3605 19.3197 11.3331 19.3338C11.2829 19.3655 11.2097 19.4105 11.118 19.4652L10.7963 19.6582L10.6059 19.7684C10.5362 19.8019 10.4719 19.8442 10.4137 19.8945C10.3634 19.95 10.3291 20.0188 10.3167 20.0928C10.2973 20.1669 10.2788 20.2374 10.2612 20.3061L10.1651 20.6667C10.1369 20.7689 10.1131 20.8518 10.0955 20.9082C10.0893 20.9391 10.0787 20.9682 10.0646 20.9964C10.0655 20.9664 10.0699 20.9364 10.0787 20.9082C10.0902 20.85 10.1096 20.7663 10.1334 20.6632C10.1572 20.56 10.188 20.434 10.2215 20.3C10.2383 20.2312 10.2559 20.1598 10.2744 20.0858C10.2885 20.0038 10.3264 19.9271 10.3819 19.8654C10.4437 19.8134 10.5115 19.7684 10.5847 19.7331L10.7769 19.6256L11.103 19.4493C11.1965 19.3982 11.2723 19.3611 11.3252 19.3312C11.3499 19.3109 11.3781 19.2933 11.4089 19.2809Z" fill="#455A64"/>
<path d="M10.7997 20.136C10.7767 20.1907 10.7741 20.2418 10.7935 20.2498C10.8129 20.2577 10.8473 20.2207 10.8702 20.166C10.8931 20.1114 10.8957 20.0611 10.8763 20.0523C10.857 20.0435 10.8226 20.0823 10.7997 20.136Z" fill="white"/>
<path d="M6.22286 18.6189C6.86109 18.8489 7.38207 19.3232 7.67034 19.9368L9.64321 24.1346L11.3428 24.824L9.8442 25.2551L8.51308 24.2774L6.22286 18.6189Z" fill="#FDB812"/>
<path d="M9.84583 25.2551L9.13002 25.8069L5.55804 22.1327L3.51641 18.4444L3.75266 17.7585L5.33149 18.4161L5.89655 19.2518L6.02261 18.194L6.12399 18.3359L6.28883 18.7829C6.28883 18.7829 7.83857 20.0725 8.17356 21.0942C8.4486 21.9502 8.36485 23.7133 8.53675 24.1893L9.84583 25.2551Z" fill="#FAFAFA"/>
<path d="M3.13381 18.3967C3.11001 18.4681 1.60699 19.072 1.53558 19.5983C1.46418 20.1245 2.61546 24.1937 2.61546 24.1937L4.44112 25.8069H9.13001L7.64286 23.0221C7.32198 22.4218 6.91647 21.8709 6.43868 21.386C5.99791 20.94 5.46899 20.3881 5.19219 20.0593C4.89511 19.7023 3.6354 18.0318 3.6354 18.0318L3.13381 18.3967Z" fill="#FDB812"/>
<path d="M4.07455 18.5633C4.16535 18.596 4.25438 18.6356 4.33901 18.6823C4.50033 18.7617 4.7216 18.8728 4.9649 18.9988L5.2417 19.1434L5.20997 19.1645C5.19939 18.9997 5.20909 18.8349 5.23906 18.6726C5.24699 18.6083 5.26462 18.5457 5.29107 18.4866C5.28578 18.5501 5.27785 18.6145 5.26639 18.6771C5.24611 18.8375 5.2417 18.9997 5.25316 19.161V19.1998L5.21878 19.1822L4.94551 19.0411C4.7022 18.9151 4.48358 18.7987 4.32843 18.7123C4.2394 18.6691 4.15477 18.6198 4.07455 18.5633Z" fill="#263238"/>
<path d="M7.68871 22.2746C7.6605 22.2367 7.63582 22.197 7.61378 22.1556L7.42249 21.8233C7.26205 21.542 7.03814 21.155 6.78602 20.731C6.5339 20.307 6.29853 19.9271 6.12839 19.652L5.92652 19.3259C5.90008 19.2871 5.87716 19.2456 5.85776 19.2033C5.89038 19.2377 5.92035 19.2756 5.94591 19.3162C5.99793 19.3902 6.07109 19.4986 6.16013 19.6344C6.33643 19.905 6.57621 20.2832 6.8301 20.7081C7.08398 21.133 7.30172 21.5226 7.4551 21.8074C7.53268 21.9502 7.5935 22.0657 7.63141 22.1468C7.65345 22.1873 7.67284 22.2305 7.68871 22.2746Z" fill="#263238"/>
<g opacity="0.3">
<path d="M6.96692 25.1114C7.23932 25.1572 7.51876 25.1996 7.79028 25.152C8.06179 25.1044 8.32713 24.9289 8.41264 24.6662C8.42586 24.5807 8.46113 24.4996 8.51402 24.4309C8.61892 24.3339 8.78641 24.3938 8.92834 24.3806C9.08878 24.3559 9.22806 24.2581 9.30564 24.1162C9.38145 23.976 9.43434 23.8244 9.46343 23.6675C9.48635 23.5916 9.49605 23.5132 9.49164 23.4338C9.48635 23.3536 9.44051 23.2822 9.36999 23.2443C9.26244 23.1958 9.14079 23.2664 9.04558 23.3325C8.27248 23.8896 7.56725 24.5366 6.86202 25.1802" fill="black"/>
</g>
<path d="M8.71853 22.0049C8.71853 22.0049 8.9874 21.3878 9.1302 21.2997C9.27301 21.2115 9.98617 20.7981 9.98617 20.7981L9.89802 21.1375L10.5953 20.6535C10.6835 20.5962 11.178 20.144 11.2662 20.3203C11.3305 20.4472 10.9241 20.7822 10.8695 20.8571C10.7337 21.0431 10.7813 21.0264 10.7813 21.0264C10.7813 21.0264 10.9285 21.1145 10.8545 21.2468C10.7937 21.3482 10.7275 21.446 10.6553 21.5394C10.6553 21.5394 10.8492 21.6082 10.7364 21.8603C10.769 21.9652 10.7751 22.0763 10.7558 22.1838C10.724 22.3725 10.3837 22.7295 10.3837 22.7295L8.68238 23.537L7.99831 22.3769L8.71853 22.0049Z" fill="#FFBE9D"/>
<path d="M4.76821 20.8448L5.85602 23.1667L8.27231 22.1195C8.27231 22.1195 9.27285 22.7031 9.13445 23.3413L6.95706 25.1238C6.54538 25.4614 6.01381 25.6165 5.48578 25.5513C4.91807 25.4817 4.40942 25.1661 4.0956 24.6883L2.52294 22.2976L1.6414 20.8598C1.35226 20.4023 1.36724 19.8151 1.67843 19.3726C1.76129 19.2554 1.86708 19.1566 1.98873 19.0808C2.38277 18.8419 3.54992 18.7379 4.76821 20.8448Z" fill="#FDB812"/>
<path d="M10.1173 20.9805C10.0089 21.074 9.89078 21.156 9.76472 21.2247C9.64659 21.3067 9.51965 21.3755 9.38742 21.4319C9.49673 21.3393 9.61486 21.2573 9.74004 21.1877C9.85816 21.1066 9.9851 21.037 10.1173 20.9805Z" fill="#EB996E"/>
<path d="M10.797 20.9576C10.7027 21.0819 10.5969 21.1965 10.4806 21.2996C10.3748 21.4133 10.2584 21.5174 10.1341 21.6108C10.2293 21.4874 10.3351 21.3728 10.4506 21.2688C10.5564 21.1551 10.6719 21.051 10.797 20.9576Z" fill="#EB996E"/>
<path d="M10.7064 21.4812C10.6693 21.5579 10.6191 21.6284 10.5583 21.6884C10.4701 21.7951 10.382 21.8762 10.3767 21.8647C10.4146 21.7871 10.4648 21.7175 10.5257 21.6567C10.575 21.5888 10.6367 21.5297 10.7064 21.4812Z" fill="#EB996E"/>
<path d="M10.7408 21.8338C10.7505 21.8418 10.7126 21.8982 10.665 21.9669C10.6174 22.0357 10.5768 22.0904 10.5654 22.0842C10.5539 22.078 10.5804 22.0128 10.6297 21.9423C10.6791 21.8717 10.7293 21.8259 10.7408 21.8338Z" fill="#EB996E"/>
<path d="M6.58698 25.3565C6.58698 25.3565 6.58698 25.3521 6.59755 25.3459L6.63194 25.3168L6.76857 25.2066L7.29044 24.7941L9.15401 23.336L9.14607 23.351C9.14695 23.2302 9.12403 23.1103 9.07819 22.9984C9.02618 22.8811 8.95831 22.771 8.87809 22.6713C8.70178 22.4633 8.49374 22.2843 8.26101 22.1424H8.28129L7.03215 22.6854L5.865 23.1844L5.84561 23.1923L5.83591 23.1738C5.51591 22.5435 5.21883 21.9511 4.92088 21.4363C4.7719 21.178 4.62468 20.9391 4.4854 20.7161C4.34612 20.4931 4.22094 20.2868 4.08959 20.1087C3.89653 19.8213 3.63912 19.5833 3.33852 19.4123C3.28651 19.3815 3.23803 19.3577 3.19571 19.3374C3.1534 19.3171 3.11902 19.3004 3.08905 19.288L3.02381 19.2589C3.01588 19.2563 3.00883 19.2527 3.00177 19.2483C3.26359 19.3383 3.50513 19.4775 3.71405 19.6583C3.86392 19.7887 3.99791 19.9368 4.11339 20.099C4.24562 20.2753 4.37785 20.4834 4.51449 20.7055C4.65113 20.9277 4.80451 21.1657 4.95526 21.424C5.2585 21.9388 5.55558 22.5312 5.87734 23.1606L5.84825 23.15L7.01099 22.644L8.26013 22.1019L8.27071 22.0975L8.28041 22.1036C8.51754 22.2491 8.72911 22.4324 8.90806 22.6449C8.99004 22.748 9.05968 22.8618 9.11346 22.9825C9.16106 23.1015 9.18398 23.2285 9.1831 23.3563V23.3651L9.17516 23.3713L7.30278 24.8126L6.77386 25.2163L6.6337 25.3221L6.59667 25.3486L6.58698 25.3565Z" fill="#263238"/>
<path d="M5.70968 23.8966C5.69645 23.8913 5.76345 23.7256 5.79783 23.5114C5.83221 23.2972 5.83309 23.1182 5.8472 23.1173C5.87717 23.2496 5.87717 23.3871 5.8472 23.5193C5.83045 23.6542 5.78284 23.7829 5.70968 23.8966Z" fill="#263238"/>
<path d="M18.9795 30.7171L20.2427 32.2994C20.2427 32.2994 22.2755 31.5475 22.5347 31.8172L19.556 34.3798L17.487 31.9997L18.9795 30.7171Z" fill="#FDB812"/>
<g opacity="0.6">
<path d="M19.2104 32.9623C19.1663 33.0311 19.1813 33.1219 19.2457 33.173C19.3135 33.2197 19.4052 33.2056 19.4555 33.1404C19.5013 33.0672 19.4846 32.9703 19.4167 32.9165C19.3409 32.8759 19.2465 32.9015 19.2025 32.9756" fill="white"/>
</g>
<g opacity="0.6">
<path d="M19.556 34.3798L19.3567 34.1313L22.2887 31.767C22.2887 31.767 22.4712 31.7106 22.5364 31.8172L19.556 34.3798Z" fill="white"/>
</g>
<path d="M20.278 32.243C20.2903 32.258 20.2233 32.3311 20.1898 32.4352C20.1563 32.5392 20.1731 32.6379 20.1546 32.6432C20.136 32.6485 20.0858 32.5462 20.1263 32.4158C20.1669 32.2853 20.27 32.2271 20.278 32.243Z" fill="#263238"/>
<path d="M20.702 32.1037C20.717 32.1152 20.6756 32.1919 20.6791 32.2986C20.6826 32.4052 20.7241 32.4793 20.7091 32.4916C20.6941 32.504 20.6139 32.429 20.6121 32.2994C20.6103 32.1699 20.6897 32.0879 20.702 32.1037Z" fill="#263238"/>
<path d="M21.2009 32.3259C21.1903 32.34 21.1074 32.2844 21.0757 32.1734C21.044 32.0623 21.0863 31.9715 21.1021 31.9777C21.118 31.9838 21.1136 32.0658 21.14 32.154C21.1665 32.2421 21.2141 32.3118 21.2009 32.3259Z" fill="#263238"/>
<path d="M19.9501 31.9116C19.9554 31.9301 19.8717 31.968 19.7941 32.0438C19.7165 32.1196 19.6751 32.2007 19.6566 32.1954C19.6381 32.1901 19.6566 32.0844 19.7447 31.9962C19.8329 31.9081 19.9475 31.8966 19.9501 31.9116Z" fill="#263238"/>
<g opacity="0.3">
<path d="M19.2298 31.0309L19.4546 31.313L17.9789 32.5577L17.7656 32.3126L19.2298 31.0309Z" fill="black"/>
</g>
<path d="M19.6892 31.6004C19.6954 31.6056 19.6451 31.6638 19.5393 31.7273C19.4776 31.7643 19.4115 31.7943 19.3428 31.8154C19.3013 31.8278 19.2599 31.8366 19.2176 31.8437C19.1929 31.8472 19.1673 31.8472 19.1426 31.8437C19.1056 31.8375 19.0757 31.8084 19.0695 31.7714C19.066 31.7379 19.0792 31.7053 19.1047 31.6832C19.1233 31.6665 19.1444 31.6524 19.1673 31.6427C19.2714 31.5898 19.386 31.5642 19.5023 31.5669C19.5693 31.5616 19.6363 31.5783 19.6945 31.6127C19.6945 31.6233 19.6187 31.6065 19.5032 31.6127C19.4362 31.618 19.3701 31.6312 19.3057 31.6524C19.2687 31.6656 19.2317 31.6815 19.1973 31.7C19.1585 31.7185 19.1312 31.7414 19.1356 31.7626C19.1356 31.7705 19.1356 31.7723 19.1532 31.7758C19.1717 31.7784 19.1903 31.7784 19.2088 31.7758C19.2484 31.7705 19.2872 31.7634 19.326 31.7537C19.3921 31.737 19.4556 31.7132 19.5173 31.685C19.572 31.6524 19.6293 31.6242 19.6892 31.6004Z" fill="#263238"/>
<path d="M19.6883 31.6374C19.6883 31.6436 19.6116 31.6162 19.5252 31.5263C19.4449 31.4417 19.3894 31.3359 19.3656 31.2222C19.348 31.1684 19.3594 31.1085 19.3965 31.0653C19.4238 31.0415 19.4626 31.0371 19.4943 31.0538C19.5172 31.0644 19.5384 31.0785 19.5569 31.0952C19.6477 31.1737 19.7032 31.2848 19.7112 31.4047C19.72 31.5316 19.6741 31.6013 19.668 31.5977C19.6724 31.5351 19.6724 31.4725 19.668 31.41C19.6574 31.3447 19.6327 31.283 19.5948 31.2292C19.5737 31.1975 19.5481 31.1693 19.5181 31.1455C19.4864 31.1182 19.4529 31.1023 19.4432 31.1155C19.4264 31.1437 19.4229 31.1781 19.4335 31.2098C19.4405 31.2486 19.4511 31.2857 19.4661 31.3218C19.4908 31.3853 19.5234 31.4443 19.5648 31.4981C19.6318 31.5871 19.6944 31.6277 19.6883 31.6374Z" fill="#263238"/>
<path d="M17.607 35.5955L17.5286 37.6653C17.5286 37.6653 19.6064 38.4402 19.6293 38.8246L15.6095 38.8166L15.5998 35.5858L17.607 35.5955Z" fill="#FDB812"/>
<g opacity="0.6">
<path d="M16.2856 37.489C16.2054 37.5128 16.1569 37.5939 16.1719 37.6759C16.1939 37.757 16.275 37.8072 16.357 37.7905C16.4407 37.7632 16.4919 37.6785 16.476 37.5913C16.4452 37.5093 16.3552 37.4661 16.2715 37.4934" fill="white"/>
</g>
<g opacity="0.6">
<path d="M15.6095 38.8166L15.6219 38.4904L19.468 38.62C19.468 38.62 19.6443 38.6985 19.6267 38.8245L15.6095 38.8166Z" fill="white"/>
</g>
<path d="M17.5938 37.6415C17.5938 37.6609 17.4951 37.6697 17.3981 37.7297C17.3011 37.7896 17.25 37.8743 17.2315 37.8663C17.213 37.8584 17.243 37.7455 17.362 37.6715C17.481 37.5975 17.5982 37.6274 17.5938 37.6415Z" fill="#263238"/>
<path d="M18.015 37.8178C18.015 37.8363 17.9339 37.8698 17.8669 37.9527C17.7999 38.0356 17.7788 38.1237 17.7611 38.1228C17.7435 38.1219 17.7294 38.0109 17.8149 37.9095C17.9004 37.8081 18.0142 37.802 18.015 37.8178Z" fill="#263238"/>
<path d="M18.2532 38.3256C18.2356 38.3256 18.2083 38.2313 18.2594 38.1237C18.3105 38.0162 18.4013 37.9738 18.4101 37.9906C18.419 38.0073 18.3608 38.0638 18.322 38.1528C18.2832 38.2418 18.2726 38.3238 18.2532 38.3256Z" fill="#263238"/>
<path d="M17.5594 37.1717C17.5506 37.1893 17.4607 37.162 17.3496 37.1717C17.2385 37.1814 17.1521 37.214 17.1424 37.1972C17.1327 37.1805 17.2156 37.1091 17.3461 37.1038C17.4765 37.0985 17.5691 37.1558 17.5594 37.1717Z" fill="#263238"/>
<g opacity="0.3">
<path d="M17.591 36.0054L17.5778 36.3739L15.6023 36.3527L15.6005 36.0195L17.591 36.0054Z" fill="black"/>
</g>
<path d="M17.5673 36.7529C17.5012 36.7714 17.4324 36.7714 17.3663 36.7529C17.2508 36.7318 17.1397 36.6886 17.0401 36.626C17.0172 36.6136 16.9969 36.5978 16.9793 36.5784C16.9537 36.5493 16.9502 36.507 16.9705 36.4744C16.9907 36.4461 17.0234 36.4294 17.0586 36.4294C17.0842 36.4294 17.1089 36.4329 17.1336 36.44C17.2499 36.4682 17.3566 36.5255 17.4447 36.6057C17.5373 36.6939 17.569 36.7653 17.562 36.7688C17.5549 36.7723 17.5082 36.7141 17.4139 36.6427C17.3592 36.6022 17.3002 36.5678 17.2376 36.5414C17.2005 36.5255 17.1618 36.514 17.1221 36.5052C17.0798 36.4938 17.0436 36.4938 17.0339 36.5123C17.0242 36.5308 17.0295 36.5228 17.0383 36.5352C17.0516 36.5484 17.0666 36.5607 17.0833 36.5696C17.1168 36.5925 17.1521 36.6128 17.1891 36.6304C17.2517 36.6612 17.3169 36.6868 17.3839 36.7053C17.4456 36.7177 17.5064 36.7335 17.5673 36.7529Z" fill="#263238"/>
<path d="M17.5418 36.7811C17.5039 36.7238 17.4845 36.656 17.4889 36.5872C17.4836 36.4682 17.5118 36.3492 17.5682 36.2443C17.5903 36.1905 17.6396 36.1517 17.6969 36.1429C17.7348 36.142 17.7701 36.1641 17.7851 36.1993C17.7957 36.2231 17.8027 36.2478 17.8062 36.2734C17.8239 36.395 17.7921 36.5184 17.7181 36.6163C17.6388 36.7203 17.5568 36.7441 17.555 36.7371C17.5532 36.73 17.6176 36.6895 17.6775 36.5899C17.7128 36.5326 17.7348 36.4673 17.7419 36.4003C17.7472 36.3615 17.7472 36.3227 17.7419 36.284C17.7357 36.2416 17.7199 36.2073 17.704 36.2117C17.6881 36.2161 17.6493 36.2434 17.6326 36.2769C17.6132 36.3122 17.5964 36.3483 17.5832 36.3862C17.5603 36.4506 17.5471 36.5184 17.5435 36.5872C17.5286 36.7053 17.5524 36.7785 17.5418 36.7811Z" fill="#263238"/>
<path d="M15.5688 25.8069L19.5463 31.0926L17.6853 32.6908L15.7706 30.1864L15.5688 25.8069Z" fill="#263238"/>
<path d="M7.14659 26.0599C7.14659 26.0599 13.5465 24.11 14.1328 24.1346C14.719 24.1593 15.8315 26.2759 15.8315 26.2759L14.0349 26.2107C13.5739 27.3417 12.7223 28.5027 11.7632 29.6786L8.08984 29.5076L7.14659 26.0599Z" fill="#263238"/>
<path d="M12.3777 24.519C12.3777 24.5314 11.7236 24.7376 10.9091 24.9801C10.0945 25.2225 9.43072 25.4085 9.4272 25.3962C9.42367 25.3838 10.0804 25.1775 10.8958 24.936C11.7113 24.6945 12.3742 24.5067 12.3777 24.519Z" fill="#263238"/>
<path d="M13.8648 26.1763H15.6614C16.557 26.1772 17.3557 26.7423 17.6545 27.5868C17.7947 27.9843 17.8564 28.4048 17.8361 28.8262L17.696 36.143H15.2779L15.2338 33.8069L14.9279 29.3666L12.8343 29.4547L11.6478 29.3807L13.8648 26.1763Z" fill="#263238"/>
<path d="M13.9187 26.1402C13.9108 26.1922 13.8993 26.2442 13.8843 26.2945C13.85 26.4346 13.8076 26.5721 13.7574 26.707C13.6842 26.9071 13.5961 27.1019 13.4929 27.2888C13.3642 27.518 13.217 27.7358 13.0522 27.9403C12.7472 28.3035 12.421 28.6481 12.0754 28.9726L11.7651 29.2714C11.729 29.3093 11.6893 29.3446 11.647 29.3763C11.6796 29.3349 11.714 29.2952 11.7519 29.2582C11.8215 29.1841 11.9282 29.0819 12.0525 28.9496C12.391 28.6199 12.7128 28.2735 13.016 27.9112C13.3122 27.5436 13.552 27.1337 13.7265 26.6955C13.79 26.5263 13.8385 26.387 13.8667 26.29C13.8799 26.2389 13.8967 26.1887 13.9187 26.1402Z" fill="#455A64"/>
<path d="M16.1181 26.2256C16.0088 26.2256 15.8995 26.2203 15.791 26.2098C15.5901 26.1983 15.3115 26.1904 15.0047 26.1965C14.6979 26.2027 14.4194 26.2212 14.2175 26.2345C14.1091 26.2468 14.0006 26.2521 13.8913 26.2512C13.9195 26.2415 13.9495 26.2353 13.9795 26.2327C14.035 26.2239 14.1161 26.2133 14.2166 26.2018C14.4176 26.1807 14.6962 26.1569 15.01 26.1507C15.2745 26.1445 15.5398 26.1534 15.8034 26.178C15.9039 26.1869 15.985 26.1983 16.0414 26.2071C16.067 26.2107 16.0925 26.2168 16.1181 26.2256Z" fill="#455A64"/>
<path d="M15.2675 34.803C15.2631 34.7827 15.2613 34.7625 15.2604 34.7422C15.2604 34.6972 15.2551 34.6399 15.2507 34.5659C15.2437 34.4081 15.234 34.1895 15.2225 33.9224C15.1987 33.3793 15.1661 32.6292 15.1141 31.8014C15.0621 30.9736 15.0004 30.2243 14.9554 29.6857C14.9334 29.4212 14.9158 29.2009 14.9034 29.0439C14.8981 28.9717 14.8946 28.9135 14.8911 28.8676C14.8884 28.8474 14.8884 28.8262 14.8911 28.8059C14.8955 28.8262 14.899 28.8465 14.9008 28.8668L14.9219 29.0431C14.9387 29.1991 14.9607 29.4168 14.9889 29.6831C15.0418 30.2243 15.1079 30.9736 15.1608 31.7987C15.2137 32.6239 15.2402 33.3785 15.256 33.9224C15.2613 34.1868 15.2666 34.4081 15.2701 34.5659C15.2701 34.6382 15.2701 34.6963 15.2701 34.7422C15.271 34.7625 15.2701 34.7827 15.2675 34.803Z" fill="#263238"/>
<path d="M17.8396 28.5476C17.8528 28.5476 17.844 30.2225 17.8211 32.288C17.7982 34.3534 17.7682 36.0283 17.7558 36.0283C17.7435 36.0283 17.7514 34.3534 17.7752 32.2871C17.799 30.2208 17.8272 28.5476 17.8396 28.5476Z" fill="#455A64"/>
<path d="M15.8669 28.2744C15.6897 28.344 15.5169 28.4251 15.3503 28.5177C15.1925 28.6252 15.0418 28.7425 14.8998 28.8703C14.9272 28.82 14.9624 28.7751 15.0056 28.7372C15.1987 28.5406 15.4376 28.3942 15.7003 28.3114C15.7532 28.2893 15.8096 28.277 15.8669 28.2744Z" fill="#263238"/>
<g opacity="0.3">
<path d="M11.6478 29.3772C12.1361 29.4653 12.6712 29.3181 13.0891 29.0572C13.506 28.7962 13.8093 28.3863 13.9353 27.9112C13.9891 27.7005 14.005 27.4819 14.0588 27.2712C14.1011 27.0552 14.2165 26.8595 14.3858 26.7185C14.5903 26.5659 15.091 26.469 15.2444 26.2645C15.2444 26.2345 14.6467 26.3033 14.4466 26.3147C14.228 26.3262 13.8622 26.3817 13.8701 26.3561C13.8119 26.5677 13.7414 26.7758 13.6585 26.9794C13.2231 27.7278 12.2666 28.8306 11.6478 29.3807" fill="black"/>
</g>
<path d="M1.67493 34.5509L2.35548 39H3.02985L2.69751 34.5685L1.67493 34.5509Z" fill="#263238"/>
<path d="M13.6453 34.5685V39H14.3576L14.6229 34.5509L13.6453 34.5685Z" fill="#263238"/>
<path d="M1.55422 20.8042C1.55422 20.8042 0.60128 20.8421 0.309492 21.245C-0.204443 21.9502 0.0847004 22.5603 0.0556097 22.7683C0.0265191 22.9763 1.67499 34.5509 1.67499 34.5509H2.35377L14.6194 34.6646L15.2118 33.2339L14.928 29.3631L11.6478 29.3772C11.6478 29.3772 10.3043 25.5213 9.13013 25.2639C8.33675 25.0876 6.46701 25.1511 5.33953 25.2093C4.77887 25.2384 4.24555 24.966 3.94053 24.4943L1.55422 20.8042Z" fill="#455A64"/>
<path d="M12.4288 34.096C12.4288 34.096 12.3609 34.1048 12.2305 34.111C12.1 34.1172 11.9078 34.1216 11.6592 34.1233C11.1612 34.1304 10.4392 34.1322 9.54355 34.1313C7.74434 34.1313 5.23637 34.1163 2.40311 34.0916H2.3846V34.074C2.33347 33.8315 2.28146 33.5821 2.22857 33.3291C2.17568 33.0761 2.12543 32.8169 2.07342 32.5568C1.45635 29.4168 1.09668 26.5395 0.902742 24.4529C0.804892 23.41 0.746711 22.5638 0.709686 21.9784C0.693819 21.6875 0.680596 21.461 0.672662 21.3049C0.672662 21.2291 0.666491 21.1709 0.663846 21.1286C0.661202 21.0863 0.663846 21.0687 0.663846 21.0687C0.663846 21.0687 0.663846 21.089 0.670017 21.1286C0.676188 21.1683 0.677069 21.2282 0.682359 21.3049C0.692937 21.4601 0.708805 21.6866 0.728198 21.9775C0.770512 22.562 0.833983 23.4074 0.935359 24.4503C1.13194 26.5342 1.49425 29.4089 2.10956 32.5472C2.16157 32.8072 2.2127 33.0646 2.26471 33.3185C2.31672 33.5724 2.36873 33.821 2.42075 34.0634L2.39871 34.0458L9.53914 34.1013L11.6548 34.1066H12.2261C12.2913 34.1066 12.3398 34.1013 12.3733 34.1013L12.4288 34.096Z" fill="#263238"/>
<path d="M12.2993 34.6443C12.2984 34.6258 12.3002 34.6073 12.3046 34.5888C12.3108 34.5482 12.3178 34.4962 12.3275 34.4328C12.3372 34.3693 12.3522 34.282 12.3628 34.185C12.3734 34.0881 12.391 33.9788 12.3989 33.8562C12.4069 33.7337 12.4227 33.6015 12.428 33.4569C12.4333 33.3123 12.4377 33.1598 12.4404 32.9976C12.4386 32.6468 12.4183 32.2959 12.3787 31.9468C12.3363 31.5986 12.2755 31.2522 12.1971 30.9101C12.123 30.5946 12.0437 30.3142 11.967 30.0806C11.9326 29.9634 11.8929 29.8602 11.8612 29.7677C11.8295 29.6751 11.8004 29.5967 11.773 29.5332L11.7184 29.3851C11.7105 29.3683 11.7052 29.3507 11.7025 29.3322C11.7122 29.3481 11.721 29.3639 11.7272 29.3816L11.7898 29.5261C11.8171 29.5896 11.8497 29.6672 11.8779 29.7589C11.9062 29.8505 11.9538 29.9537 11.9908 30.0709C12.071 30.3028 12.1547 30.584 12.2314 30.9004C12.3125 31.2442 12.3742 31.5916 12.4174 31.9415C12.4571 32.2924 12.4765 32.6459 12.4756 32.9994C12.4756 33.1625 12.4703 33.3167 12.4589 33.4613C12.4474 33.6059 12.4377 33.7399 12.4245 33.8615C12.4113 33.9832 12.3945 34.0942 12.3804 34.1903C12.3663 34.2864 12.3522 34.3666 12.3381 34.4372C12.324 34.5077 12.3143 34.5518 12.3064 34.5923C12.3055 34.6099 12.3028 34.6276 12.2993 34.6443Z" fill="#263238"/>
<path d="M3.30835 26.3464C3.32334 26.3314 3.34009 26.3173 3.35772 26.305C3.39563 26.2759 3.44587 26.2389 3.50582 26.1913L3.61425 26.111C3.6548 26.0837 3.7024 26.0573 3.75088 26.0273C3.86019 25.9568 3.97391 25.8933 4.09204 25.8369L4.29655 25.7408C4.36708 25.7055 4.44553 25.68 4.52399 25.6474C4.60245 25.6147 4.68443 25.5812 4.77082 25.5539L5.03528 25.4658C5.43462 25.3485 5.84277 25.263 6.25621 25.2119C6.66788 25.1572 7.08309 25.1325 7.49829 25.1361C7.68958 25.1361 7.87118 25.1484 8.04131 25.1546C8.21145 25.1607 8.36836 25.181 8.51205 25.2013C8.73861 25.2304 8.9634 25.2718 9.18555 25.3256L9.36185 25.375C9.38301 25.3802 9.40329 25.3873 9.42356 25.3952C9.40152 25.3935 9.38037 25.3899 9.35921 25.3838L9.17761 25.3423C9.0207 25.3097 8.79062 25.2665 8.50412 25.2339C8.36131 25.2154 8.20352 25.2066 8.03514 25.1925C7.86677 25.1784 7.68253 25.174 7.49388 25.1784C7.08132 25.1775 6.66877 25.2039 6.25973 25.2568C5.84982 25.308 5.44431 25.3908 5.04762 25.5054L4.78316 25.5874C4.69501 25.6139 4.61655 25.6491 4.53721 25.6756C4.45788 25.702 4.3803 25.732 4.30978 25.7637C4.23925 25.7955 4.17049 25.829 4.10526 25.8598C3.98802 25.9145 3.87342 25.9753 3.76323 26.0432C3.71386 26.0714 3.66714 26.0969 3.62482 26.1225L3.51551 26.2001L3.36301 26.3059C3.34538 26.3208 3.32775 26.335 3.30835 26.3464Z" fill="#263238"/>
<path d="M10.6004 26.975C10.6004 26.975 10.6004 26.9847 10.5916 27.004C10.5828 27.0234 10.5766 27.0508 10.5616 27.0878C10.5158 27.1927 10.455 27.2897 10.3809 27.3761C10.261 27.5118 10.1174 27.6246 9.95691 27.7093C9.85642 27.7604 9.7524 27.8045 9.64485 27.8389C9.5232 27.875 9.3989 27.9006 9.27284 27.9147C8.9837 27.9394 8.69279 27.9226 8.40894 27.8653C8.10128 27.8107 7.78128 27.7216 7.43925 27.6405C7.08752 27.548 6.72609 27.4995 6.36201 27.4977C6.17072 27.5004 5.98119 27.5303 5.79783 27.5859C5.61006 27.644 5.43287 27.7331 5.2742 27.8503C4.96566 28.0892 4.70649 28.3854 4.50903 28.7222C4.30715 29.0422 4.1476 29.3727 3.98011 29.6786C3.82495 29.9713 3.63983 30.2463 3.42826 30.5011C3.24314 30.7259 3.01218 30.9084 2.75036 31.0362C2.53351 31.1411 2.29637 31.1984 2.05571 31.2063C1.87412 31.2107 1.69428 31.1772 1.52679 31.1076C1.46509 31.082 1.40602 31.0503 1.35049 31.0133C1.30465 30.9789 1.26233 30.9489 1.23765 30.9251L1.17682 30.8608C1.16272 30.8458 1.15655 30.8378 1.15655 30.8378C1.15655 30.8378 1.16536 30.844 1.17947 30.8572L1.24382 30.9181C1.27291 30.9427 1.31258 30.971 1.35754 31.0062C1.41396 31.0406 1.47214 31.0706 1.53385 31.0944C1.69957 31.1596 1.87676 31.1896 2.05483 31.1825C2.29108 31.1737 2.52293 31.1173 2.73626 31.015C2.99279 30.8872 3.21846 30.7074 3.40005 30.4861C3.60898 30.2313 3.79057 29.9563 3.94308 29.6645C4.11145 29.3595 4.27101 29.0281 4.472 28.7045C4.67211 28.3634 4.93569 28.0645 5.24863 27.823C5.41084 27.7031 5.59243 27.6114 5.78461 27.5515C5.97237 27.4951 6.16631 27.466 6.36201 27.4633C6.72961 27.466 7.09545 27.5145 7.45071 27.6097C7.7901 27.6925 8.10921 27.786 8.41334 27.8389C8.69455 27.8962 8.98193 27.9147 9.26843 27.8926C9.39185 27.8794 9.51438 27.8556 9.63427 27.8212C9.74094 27.7877 9.84408 27.7463 9.94369 27.6969C10.1024 27.6158 10.2452 27.5065 10.3659 27.3752C10.4664 27.2571 10.5467 27.1213 10.6004 26.975Z" fill="white"/>
<path d="M15.0841 32.6168L15.0453 32.6265L14.9316 32.6494C14.8717 32.6644 14.8126 32.6829 14.7553 32.7049C14.7174 32.7182 14.6804 32.734 14.6451 32.7525C14.6037 32.7711 14.5622 32.7913 14.5235 32.8151C14.3198 32.9324 14.1303 33.0734 13.9584 33.2339C13.7539 33.419 13.5353 33.6455 13.2673 33.8686C13.128 33.9876 12.9764 34.0907 12.8142 34.1762C12.7278 34.2221 12.6379 34.2609 12.5453 34.2926L12.3998 34.3323C12.3505 34.3437 12.2993 34.3517 12.2491 34.3578C12.0367 34.3834 11.8224 34.3728 11.6135 34.3261C11.3931 34.275 11.1807 34.1956 10.9806 34.0907C10.5557 33.8615 10.1625 33.5785 9.81078 33.2471C9.44053 32.9112 9.06235 32.556 8.62159 32.2651C8.40561 32.1205 8.172 32.0032 7.92605 31.9186C7.68716 31.8375 7.43592 31.8023 7.1838 31.8155C6.94138 31.8322 6.70248 31.8895 6.47857 31.9847C6.2626 32.0764 6.05544 32.1848 5.85709 32.31C5.46745 32.5507 5.11308 32.8081 4.75253 33.0047C3.92653 33.449 2.98417 33.6262 2.05327 33.5124C1.85316 33.4895 1.65481 33.4498 1.46088 33.3934C1.4741 33.3943 1.48732 33.397 1.50055 33.3996L1.61426 33.4243C1.71388 33.4454 1.86286 33.4728 2.05503 33.4948C2.59982 33.5547 3.15166 33.5168 3.68323 33.3828C4.04906 33.2894 4.40256 33.151 4.73402 32.9694C5.08663 32.7728 5.44453 32.5154 5.83505 32.2721C6.03516 32.1452 6.24409 32.035 6.46182 31.9424C6.69014 31.8437 6.93345 31.7846 7.18116 31.7661C7.43857 31.752 7.69597 31.7882 7.94016 31.871C8.18963 31.9565 8.42677 32.0755 8.64539 32.2236C9.09144 32.5172 9.4705 32.8742 9.83987 33.2101C10.1881 33.5389 10.5777 33.821 10.9991 34.0493C11.1957 34.156 11.4055 34.2379 11.6223 34.2917C11.826 34.3384 12.0367 34.3499 12.2438 34.3252C12.2932 34.3199 12.3434 34.3111 12.3919 34.3005L12.5347 34.2635C12.6255 34.2318 12.7137 34.1939 12.7992 34.1498C12.9596 34.066 13.1104 33.9655 13.2479 33.8483C13.5123 33.6288 13.7363 33.4075 13.9425 33.2206C14.1153 33.0584 14.3066 32.9165 14.5129 32.7993C14.5526 32.7764 14.594 32.7561 14.6372 32.7384C14.6733 32.7199 14.7103 32.7041 14.7491 32.6917C14.8091 32.6714 14.8699 32.6538 14.9316 32.6397L15.0462 32.6212L15.0841 32.6168Z" fill="white"/>
<path d="M2.81571 22.9834C2.81307 23.0213 2.80513 23.0583 2.79191 23.0944C2.76282 23.1941 2.72315 23.291 2.67378 23.3827C2.34585 24.0121 1.66002 24.3709 0.955673 24.281C0.852534 24.2686 0.751157 24.2466 0.652425 24.2131C0.615401 24.2034 0.580139 24.1884 0.546641 24.169C0.682397 24.2052 0.819917 24.2325 0.959199 24.2493C1.64768 24.3198 2.31147 23.9733 2.64734 23.3677C2.71169 23.2434 2.76811 23.1156 2.81571 22.9834Z" fill="white"/>
<path d="M13.7372 11.4001H30.4035C30.7411 11.4001 31.0153 11.6742 31.0153 12.0119V16.5235C31.0153 16.8612 30.7411 17.1353 30.4035 17.1353H13.7372C13.3995 17.1353 13.1254 16.8612 13.1254 16.5235V12.0119C13.1254 11.6742 13.3987 11.4001 13.7372 11.4001Z" fill="white"/>
<path d="M30.399 17.1353C30.4386 17.1327 30.4783 17.1283 30.5171 17.1212C30.6317 17.0983 30.7366 17.0419 30.8203 16.9599C30.882 16.9008 30.9305 16.8285 30.9614 16.7492C30.9975 16.6522 31.0116 16.5491 31.0046 16.4459C31.0046 16.2212 31.0046 15.9611 31.0046 15.6693C31.0046 15.084 31.0046 14.369 31.0046 13.5395C31.0046 13.1243 31.0046 12.68 31.0046 12.2093C31.0125 12.0912 31.0055 11.973 30.9834 11.8567C30.9191 11.6143 30.7101 11.4379 30.4607 11.4159C30.3364 11.4106 30.205 11.4159 30.0746 11.4159L13.738 11.423C13.6419 11.423 13.5467 11.4468 13.462 11.4917C13.3774 11.5367 13.3051 11.601 13.2505 11.6804C13.1967 11.7597 13.1632 11.8505 13.1517 11.9448C13.1438 12.0383 13.1517 12.1405 13.1517 12.2375V13.4108C13.1517 14.1875 13.1517 14.9517 13.1517 15.7028V16.2643C13.1517 16.3578 13.1517 16.4512 13.1517 16.5429C13.1553 16.6319 13.1791 16.7192 13.2205 16.7986C13.3051 16.9564 13.4559 17.0683 13.6322 17.1018C13.7203 17.1115 13.8085 17.115 13.8966 17.1115H16.2944L23.6367 17.1168L28.5865 17.1238L29.9326 17.1283H30.2852H30.4043C30.4043 17.1283 30.3646 17.1283 30.2852 17.1283H29.9326H28.5865L23.6367 17.1353L16.2944 17.1406H13.9002C13.8085 17.1441 13.7159 17.1406 13.6242 17.13C13.3307 17.0771 13.1147 16.8276 13.1041 16.5297C13.1041 16.4354 13.1041 16.3437 13.1041 16.2502V12.2216C13.1041 12.122 13.1041 12.0277 13.1085 11.9237C13.1315 11.7156 13.2566 11.5323 13.4426 11.4344C13.5343 11.3859 13.6357 11.3604 13.7397 11.3604L30.0719 11.3674C30.2033 11.3674 30.3311 11.3674 30.4607 11.3674C30.7225 11.3912 30.942 11.5763 31.0099 11.8302C31.0257 11.8893 31.0328 11.951 31.031 12.0127V12.189C31.031 12.6598 31.031 13.104 31.031 13.5192C31.031 14.3488 31.031 15.0637 31.031 15.649C31.031 15.9408 31.031 16.2009 31.031 16.4257C31.0381 16.5306 31.0231 16.6355 30.9852 16.7333C30.9067 16.9264 30.7357 17.0657 30.5312 17.1053C30.5021 17.1106 30.473 17.1141 30.443 17.115L30.399 17.1353Z" fill="#263238"/>
<path d="M29.7264 12.5769C29.7202 12.5769 29.7149 12.5751 29.7105 12.5707C29.7017 12.5619 29.7017 12.5478 29.7105 12.539L30.1513 12.1167C30.1601 12.1079 30.1742 12.1079 30.183 12.1167C30.1918 12.1256 30.1918 12.1388 30.183 12.1476L29.7423 12.5698C29.7379 12.5743 29.7317 12.5769 29.7264 12.5769Z" fill="#263238"/>
<path d="M30.1652 12.5787C30.1599 12.5787 30.1538 12.5769 30.1502 12.5725L29.7139 12.1467C29.7051 12.1388 29.7051 12.1256 29.713 12.1167L29.7139 12.1159C29.7227 12.107 29.7359 12.107 29.7447 12.1159L30.1855 12.5425C30.1943 12.5513 30.1943 12.5646 30.1855 12.5734C30.1793 12.5787 30.1723 12.5804 30.1652 12.5787Z" fill="#263238"/>
<path d="M16.9802 15.3819L16.8039 15.1272C16.6955 14.9738 16.6373 14.7904 16.6373 14.6026V14.0296C16.6373 13.5686 16.3005 13.1763 15.8439 13.1067V12.8334C15.8439 12.7638 15.7875 12.7073 15.7179 12.7073C15.6491 12.7073 15.5927 12.7638 15.5927 12.8325V12.8334V13.0979C15.1219 13.1534 14.7676 13.5527 14.7676 14.0261V14.6194C14.7676 14.823 14.6988 15.0214 14.5727 15.1818L14.4185 15.3784L16.9802 15.3819Z" fill="#FDB812"/>
<path d="M15.5637 15.798C15.7057 15.8553 15.8687 15.828 15.9833 15.7258C16.0318 15.6817 16.068 15.6253 16.0891 15.5636L15.3425 15.5583C15.3786 15.6658 15.4588 15.7531 15.5637 15.798Z" fill="#FDB812"/>
<path d="M27.049 13.3377C27.049 13.35 25.0453 13.3606 22.5735 13.3606C20.1016 13.3606 18.0979 13.35 18.0979 13.3377C18.0979 13.3253 20.1016 13.3147 22.5735 13.3147C25.0453 13.3147 27.049 13.3253 27.049 13.3377Z" fill="#263238"/>
<path d="M29.1543 14.4211C29.1543 14.4334 26.6781 14.444 23.6244 14.444C20.5708 14.444 18.0937 14.4334 18.0937 14.4211C18.0937 14.4087 20.569 14.3982 23.6244 14.3982C26.6798 14.3982 29.1543 14.4078 29.1543 14.4211Z" fill="#E0E0E0"/>
<path d="M29.1543 15.0743C29.1543 15.0866 26.6781 15.0972 23.6244 15.0972C20.5708 15.0972 18.0937 15.0866 18.0937 15.0743C18.0937 15.062 20.569 15.0514 23.6244 15.0514C26.6798 15.0514 29.1543 15.0567 29.1543 15.0743Z" fill="#E0E0E0"/>
<path d="M16.4734 18.031H27.5411C27.8787 18.031 28.1528 18.3051 28.1528 18.6428V21.3596C28.1528 21.6973 27.8787 21.9714 27.5411 21.9714H16.4734C16.1358 21.9714 15.8616 21.6973 15.8616 21.3596V18.6428C15.8616 18.3051 16.1349 18.031 16.4734 18.031Z" fill="#FAFAFA"/>
<path d="M27.5411 21.9714C27.5411 21.9714 27.5684 21.9714 27.6213 21.9626C27.6997 21.952 27.7755 21.9265 27.8434 21.8859C28.0277 21.7784 28.1423 21.5809 28.144 21.3676V21.0864C28.144 20.6879 28.144 20.2048 28.1396 19.638C28.1396 19.3559 28.1396 19.0535 28.1396 18.7335C28.144 18.6533 28.137 18.574 28.1202 18.4955C28.0999 18.4162 28.0638 18.3421 28.0136 18.2778C27.9087 18.142 27.7509 18.0583 27.5798 18.0486L16.4725 18.0539C16.2036 18.0539 15.9691 18.2346 15.9013 18.4946C15.8854 18.5581 15.8792 18.6225 15.8828 18.6877V18.8878C15.8828 19.0209 15.8828 19.1523 15.8828 19.2854V21.2248C15.8828 21.2882 15.8828 21.3526 15.8828 21.4125C15.8889 21.4733 15.9048 21.5324 15.9277 21.5888C16.0264 21.8154 16.2548 21.9582 16.5016 21.9467H17.9447L22.9368 21.9511L26.3034 21.9591L27.2184 21.9635H27.4564H27.5375C27.5375 21.9635 27.5093 21.9635 27.4564 21.9635H27.2184H26.3034L22.9368 21.9705L17.9447 21.9758H16.5051C16.2398 21.9882 15.9938 21.8348 15.888 21.5915C15.8634 21.5315 15.8475 21.4672 15.8404 21.4028C15.8351 21.3358 15.8404 21.2741 15.8404 21.2106V18.6886C15.8369 18.6198 15.844 18.5511 15.8607 18.4841C15.933 18.2028 16.1869 18.0063 16.4778 18.0071L27.5851 18.0151C27.8566 18.0327 28.0867 18.2231 28.1528 18.4876C28.1705 18.5678 28.1766 18.6507 28.1722 18.7327C28.1722 19.0526 28.1722 19.355 28.1722 19.6371C28.1722 20.2013 28.1722 20.687 28.1722 21.0855C28.1722 21.1842 28.1722 21.2785 28.1722 21.3667C28.1713 21.4504 28.1528 21.5333 28.1185 21.6091C28.0647 21.7281 27.9739 21.8277 27.8602 21.893C27.7905 21.9326 27.7138 21.9582 27.6345 21.967C27.6028 21.9714 27.5719 21.9723 27.5411 21.9714Z" fill="#263238"/>
<path d="M27.2679 18.8464C27.2617 18.8464 27.2564 18.8437 27.252 18.8393C27.2432 18.8314 27.2432 18.8182 27.2511 18.8093L27.252 18.8085L27.5544 18.5184C27.5632 18.5096 27.5764 18.5096 27.5852 18.5176C27.5852 18.5176 27.5852 18.5176 27.5861 18.5184C27.5949 18.5273 27.5949 18.5405 27.5861 18.5493L27.2829 18.8393C27.2785 18.8437 27.2732 18.8464 27.2679 18.8464Z" fill="#263238"/>
<path d="M27.5692 18.8472C27.563 18.8472 27.5577 18.8455 27.5533 18.8411L27.2536 18.5484C27.2465 18.5387 27.2483 18.5246 27.258 18.5175C27.2659 18.5114 27.2765 18.5114 27.2844 18.5175L27.5841 18.8102C27.593 18.819 27.593 18.8322 27.5841 18.8411C27.5797 18.8446 27.5744 18.8472 27.5692 18.8472Z" fill="#263238"/>
<path d="M18.5097 20.7663L18.3862 20.59C18.3122 20.4843 18.2716 20.3582 18.2716 20.2295V19.8346C18.2716 19.5181 18.0407 19.2492 17.7277 19.2007V19.013C17.7277 18.9645 17.6881 18.9248 17.6396 18.9248C17.5911 18.9248 17.5514 18.9645 17.5514 19.013V19.1981C17.2279 19.236 16.9846 19.5102 16.9846 19.8354V20.2427C16.9846 20.3829 16.9379 20.5186 16.8515 20.6288L16.7448 20.7646L18.5097 20.7663Z" fill="#455A64"/>
<path d="M17.5365 21.0528C17.6343 21.0916 17.7454 21.0731 17.8248 21.0035C17.8583 20.9726 17.8829 20.9347 17.897 20.8915H17.384C17.4104 20.9638 17.4651 21.022 17.5365 21.0528Z" fill="#455A64"/>
<path d="M25.4254 19.362C25.4254 19.3744 24.0485 19.385 22.3498 19.385C20.651 19.385 19.275 19.3744 19.275 19.362C19.275 19.3497 20.6519 19.3391 22.3498 19.3391C24.0476 19.3391 25.4254 19.3488 25.4254 19.362Z" fill="#263238"/>
<path d="M26.8729 20.1061C26.8729 20.1193 25.1716 20.129 23.0735 20.129C20.9755 20.129 19.2732 20.1193 19.2732 20.1061C19.2732 20.0929 20.9737 20.0832 23.0735 20.0832C25.1733 20.0832 26.8729 20.0938 26.8729 20.1061Z" fill="#E0E0E0"/>
<path d="M26.8729 20.5522C26.8729 20.5645 25.1716 20.5751 23.0735 20.5751C20.9755 20.5751 19.2732 20.5645 19.2732 20.5522C19.2732 20.5398 20.9737 20.5292 23.0735 20.5292C25.1733 20.5292 26.8729 20.5398 26.8729 20.5522Z" fill="#E0E0E0"/>
<path d="M16.5191 22.5841H27.4943C27.8319 22.5841 28.106 22.8582 28.106 23.1959V25.8828C28.106 26.2204 27.8319 26.4946 27.4943 26.4946H16.5191C16.1815 26.4946 15.9074 26.2204 15.9074 25.8828V23.1959C15.9074 22.8582 16.1806 22.5841 16.5191 22.5841Z" fill="#FAFAFA"/>
<path d="M27.4944 26.4954C27.4944 26.4954 27.5218 26.4954 27.5738 26.4875C27.6513 26.4769 27.7263 26.4505 27.7942 26.4108C27.9052 26.3473 27.9934 26.2495 28.0454 26.1331C28.078 26.0591 28.0956 25.9797 28.0974 25.8986V25.6201C28.0974 25.2251 28.0974 24.7429 28.0974 24.1832C28.0974 23.9028 28.0974 23.6031 28.0974 23.2858C28.1018 23.2064 28.0956 23.1271 28.078 23.0495C28.0586 22.971 28.0225 22.897 27.9731 22.8335C27.87 22.6987 27.713 22.614 27.5438 22.6026L16.5246 22.607C16.2575 22.6087 16.0239 22.7895 15.9551 23.0477C15.9393 23.1103 15.9322 23.1747 15.9349 23.239V23.8314C15.9349 24.3559 15.9349 24.8725 15.9349 25.3794V25.7576C15.9349 25.8202 15.9349 25.8845 15.9349 25.9436C15.941 26.0044 15.956 26.0635 15.9789 26.1199C16.0759 26.3456 16.3016 26.4884 16.5466 26.4787H17.9783L22.9316 26.4831L26.2717 26.491L27.1797 26.4954H27.416H27.4962C27.4962 26.4954 27.4689 26.4954 27.416 26.4954H27.1797L26.2717 26.4998L22.9316 26.5069L17.9783 26.5122H16.5449C16.2822 26.521 16.0406 26.3685 15.9357 26.1269C15.9111 26.067 15.8952 26.0035 15.8881 25.9392C15.8881 25.8739 15.8881 25.8122 15.8881 25.7488C15.8881 25.6236 15.8881 25.4975 15.8881 25.3706V23.2355C15.8855 23.1676 15.8925 23.0989 15.9102 23.0328C15.9851 22.7542 16.239 22.5611 16.5273 22.5611L27.5464 22.5708C27.7254 22.5832 27.8894 22.6722 27.9978 22.815C28.0489 22.8829 28.0868 22.9605 28.108 23.0425C28.1247 23.1227 28.1318 23.2038 28.1274 23.2858C28.1274 23.6031 28.1274 23.9028 28.1274 24.1832C28.1274 24.7429 28.1274 25.2251 28.123 25.6201C28.123 25.7179 28.123 25.8114 28.123 25.8986C28.1168 26.1155 27.9978 26.3121 27.8091 26.4187C27.7404 26.4584 27.6637 26.4831 27.5843 26.4919C27.5544 26.4954 27.5244 26.4963 27.4944 26.4954Z" fill="#263238"/>
<path d="M27.2254 23.3942C27.2192 23.3942 27.2139 23.3916 27.2095 23.3872C27.2007 23.3792 27.2007 23.366 27.2086 23.3572L27.2095 23.3563L27.5101 23.0681C27.5189 23.0592 27.533 23.0592 27.5418 23.0681C27.5506 23.0769 27.5506 23.0901 27.5418 23.0989L27.2412 23.3872C27.2368 23.3916 27.2307 23.3942 27.2254 23.3942Z" fill="#263238"/>
<path d="M27.5269 23.3951C27.5208 23.3951 27.5155 23.3933 27.5111 23.3889L27.214 23.0962C27.2052 23.0874 27.2052 23.0733 27.2131 23.0645C27.2219 23.0557 27.236 23.0557 27.2448 23.0645L27.5419 23.3554C27.5507 23.3642 27.5507 23.3774 27.5419 23.3863C27.5375 23.3907 27.5322 23.3942 27.5269 23.3951Z" fill="#263238"/>
<path d="M18.5362 25.3001L18.4101 25.1238C18.3361 25.0189 18.2964 24.8937 18.2964 24.7659V24.3763C18.2964 24.0616 18.0672 23.7944 17.756 23.746V23.56C17.756 23.5115 17.7163 23.4718 17.6679 23.4718C17.6194 23.4718 17.5797 23.5115 17.5797 23.56V23.7433C17.2597 23.7821 17.0182 24.0536 17.0182 24.3763V24.7809C17.0182 24.9202 16.9714 25.055 16.8859 25.1644L16.7881 25.3001H18.5362Z" fill="#E0E0E0"/>
<path d="M17.57 25.5839C17.667 25.6227 17.778 25.6033 17.8565 25.5346C17.8891 25.5046 17.9138 25.4658 17.9279 25.4235H17.4192C17.4448 25.4958 17.4995 25.554 17.57 25.5839Z" fill="#E0E0E0"/>
<path d="M25.399 23.9055C25.399 23.9187 24.0326 23.9284 22.3471 23.9284C20.6616 23.9284 19.2952 23.9187 19.2952 23.9055C19.2952 23.8923 20.6616 23.8826 22.3471 23.8826C24.0326 23.8826 25.399 23.8896 25.399 23.9055Z" fill="#263238"/>
<path d="M26.8376 24.6442C26.8376 24.6574 25.1486 24.6671 23.0664 24.6671C20.9842 24.6671 19.2952 24.6574 19.2952 24.6442C19.2952 24.631 20.9834 24.6213 23.0664 24.6213C25.1495 24.6213 26.8376 24.6319 26.8376 24.6442Z" fill="#E0E0E0"/>
<path d="M26.8376 25.0868C26.8376 25.0991 25.1486 25.1097 23.0664 25.1097C20.9842 25.1097 19.2952 25.0991 19.2952 25.0868C19.2952 25.0744 20.9834 25.0638 23.0664 25.0638C25.1495 25.0638 26.8376 25.0744 26.8376 25.0868Z" fill="#E0E0E0"/>
<path d="M36.5218 21.4857C35.6094 21.9591 34.9095 22.7727 34.4061 23.6683C33.9028 24.564 33.5783 25.5487 33.2601 26.5245L32.9763 31.559C34.0385 29.7518 34.891 27.6282 35.121 25.546L34.4158 25.4825C34.8901 25.4103 35.2876 25.0673 35.5406 24.6601C35.7936 24.2528 35.9241 23.7838 36.0511 23.3219L35.1871 23.4488C35.8677 22.9904 36.3455 22.287 36.5218 21.4857Z" fill="#455A64"/>
<path d="M36.5218 21.4857C35.6094 21.9591 34.9095 22.7727 34.4061 23.6683C33.9028 24.564 33.5783 25.5487 33.2601 26.5245L32.9763 31.559C34.0385 29.7518 34.891 27.6282 35.121 25.546L34.4158 25.4825C34.8901 25.4103 35.2876 25.0673 35.5406 24.6601C35.7936 24.2528 35.9241 23.7838 36.0511 23.3219L35.1871 23.4488C35.8677 22.9904 36.3455 22.287 36.5218 21.4857Z" fill="#FDB812"/>
<g opacity="0.3">
<path d="M36.5218 21.4857C35.6094 21.9591 34.9095 22.7727 34.4061 23.6683C33.9028 24.564 33.5783 25.5487 33.2601 26.5245L32.9763 31.559C34.0385 29.7518 34.891 27.6282 35.121 25.546L34.4158 25.4825C34.8901 25.4103 35.2876 25.0673 35.5406 24.6601C35.7936 24.2528 35.9241 23.7838 36.0511 23.3219L35.1871 23.4488C35.8677 22.9904 36.3455 22.287 36.5218 21.4857Z" fill="black"/>
</g>
<path d="M32.8194 32.7393C32.8194 32.7393 30.5142 29.981 30.5407 27.347H31.4724C31.4724 27.347 30.4604 26.6823 30.5407 26.3094C30.6209 25.9365 30.6473 24.5269 30.6473 24.5269L31.4989 24.7403C31.4989 24.7403 30.8607 24.4212 30.7804 23.9152C30.7002 23.4092 30.9664 21.0687 30.9664 21.0687C30.9664 21.0687 32.004 22.16 32.3231 23.2769C32.6422 24.3938 33.4806 25.6976 33.2346 29.103C32.9887 32.5084 32.8194 32.7393 32.8194 32.7393Z" fill="#FDB812"/>
<path d="M33.9876 32.9994C33.9876 32.9994 36.485 31.3359 37.0394 29.2132L36.291 29.0096C36.291 29.0096 37.2501 28.6957 37.2669 28.3793C37.2836 28.0628 37.571 26.923 37.571 26.923L36.8402 26.908C36.8402 26.908 37.4229 26.7907 37.5983 26.402C37.7738 26.0132 38.0682 24.073 38.0682 24.073C38.0682 24.073 36.9954 24.7227 36.4946 25.5513C35.9939 26.3799 35.0348 27.2438 34.4874 30.0357C33.94 32.8275 33.9876 32.9994 33.9876 32.9994Z" fill="#FDB812"/>
<path d="M31.5959 23.4744C31.6003 23.4832 31.603 23.4929 31.6047 23.5026C31.61 23.5246 31.6171 23.5528 31.625 23.5907C31.6426 23.6683 31.6673 23.7785 31.699 23.9178C31.7308 24.0571 31.7687 24.2343 31.8092 24.437C31.8498 24.6398 31.8974 24.8707 31.945 25.1264C32.0437 25.6377 32.1486 26.2494 32.2553 26.93C32.362 27.6105 32.4633 28.3607 32.5559 29.1506C32.6485 29.9404 32.7163 30.695 32.7701 31.3817C32.8239 32.0685 32.8583 32.6882 32.8794 33.2083C32.8918 33.4683 32.8979 33.7037 32.9041 33.9135C32.9103 34.1233 32.9147 34.2987 32.9156 34.4424C32.9164 34.5861 32.9156 34.6981 32.9156 34.7774V34.8656C32.9164 34.8753 32.9164 34.8858 32.9156 34.8955C32.9138 34.8858 32.9138 34.8753 32.9156 34.8656C32.9156 34.8435 32.9156 34.8153 32.9156 34.7774C32.9156 34.6972 32.9085 34.5852 32.9032 34.4415C32.8979 34.2979 32.8926 34.118 32.8838 33.9126C32.875 33.7072 32.8662 33.4719 32.8512 33.2074C32.8265 32.6873 32.7851 32.0685 32.7322 31.3826C32.6793 30.6968 32.6044 29.9431 32.5136 29.1532C32.4228 28.3634 32.3196 27.6149 32.2174 26.9344C32.1151 26.2538 32.012 25.6421 31.9177 25.1299C31.8727 24.8742 31.8295 24.6424 31.789 24.4396C31.7484 24.2369 31.7167 24.0615 31.6876 23.9187C31.6585 23.7759 31.6382 23.6683 31.6223 23.5899C31.6162 23.5546 31.6109 23.5264 31.6074 23.5017C31.6021 23.4929 31.5985 23.4841 31.5959 23.4744Z" fill="#263238"/>
<path d="M32.4995 34.4284C32.4995 34.4284 30.3899 32.0359 29.7358 30.5893L30.2295 30.3786C29.8716 30.4377 29.504 30.2834 29.2263 30.0498C28.9486 29.8162 28.7441 29.5085 28.544 29.2053L29.1955 29.0951C28.5969 28.9241 28.0874 28.5291 27.7727 27.9923C28.5414 28.1192 29.2369 28.5415 29.8099 29.0686C30.2648 29.5059 30.6773 29.9846 31.044 30.4985C31.2283 30.7453 31.3887 31.0098 31.5227 31.2866C31.8771 32.0191 32.5003 33.5495 32.4995 34.4284Z" fill="#FDB812"/>
<path d="M37.0729 25.4658C37.0702 25.4746 37.0676 25.4826 37.0632 25.4905L37.0315 25.5601C37.0006 25.6236 36.9574 25.7126 36.9036 25.8246C36.7908 26.0547 36.6304 26.3888 36.4373 26.804C36.0494 27.6335 35.539 28.791 35.0348 30.0939C34.5305 31.3968 34.1303 32.5974 33.8588 33.4719C33.7231 33.9127 33.6164 34.2653 33.545 34.5104C33.5097 34.6302 33.4815 34.7246 33.4612 34.7924L33.4374 34.8656C33.4357 34.8744 33.4322 34.8824 33.4286 34.8903C33.4295 34.8815 33.4304 34.8727 33.433 34.8647C33.4374 34.8453 33.4436 34.8207 33.4515 34.7898C33.4692 34.721 33.4947 34.6258 33.5265 34.5051C33.5926 34.2574 33.694 33.9003 33.8253 33.4622C34.0898 32.5807 34.4847 31.3809 34.9881 30.0762C35.4914 28.7716 36.0098 27.615 36.4056 26.789C36.603 26.3756 36.7679 26.0432 36.886 25.8193C36.9442 25.7082 36.9891 25.6201 37.0226 25.5548L37.0588 25.487C37.0676 25.4764 37.072 25.4649 37.0729 25.4658Z" fill="#263238"/>
<path d="M32.6784 35.4545C32.6731 35.4404 32.6695 35.4254 32.6678 35.4104C32.6616 35.3751 32.6545 35.3337 32.6466 35.2835C32.6299 35.1733 32.6025 35.0137 32.5638 34.818C32.525 34.6223 32.4712 34.3913 32.4015 34.1366C32.3319 33.8818 32.2429 33.6077 32.1371 33.322C32.0313 33.0364 31.9114 32.772 31.7977 32.5348C31.684 32.2977 31.5694 32.0888 31.4689 31.9178C31.3684 31.7467 31.2846 31.6075 31.2238 31.5131L31.1559 31.4038C31.1471 31.3915 31.1401 31.3783 31.1348 31.3642C31.1348 31.3642 31.1462 31.3747 31.1639 31.3985L31.2397 31.5026C31.3058 31.5907 31.3948 31.7291 31.4989 31.8992C31.6029 32.0694 31.7192 32.2792 31.8382 32.5163C31.9573 32.7535 32.0745 33.0206 32.1829 33.3097C32.2914 33.5988 32.3769 33.8748 32.4474 34.1304C32.5179 34.3861 32.5655 34.6197 32.5999 34.8171C32.6343 35.0146 32.6572 35.175 32.6669 35.2861C32.6722 35.3372 32.6757 35.3795 32.6792 35.4148C32.6801 35.428 32.6801 35.4413 32.6784 35.4545Z" fill="#263238"/>
<path d="M35.4623 34.8911H30.8457V35.8326H35.4623V34.8911Z" fill="#455A64"/>
<path d="M31.2856 35.8326L31.7845 39H34.5737L35.0391 35.8326H31.2856Z" fill="#455A64"/>
<path d="M35.1784 35.8326C35.1784 35.8467 34.3048 35.8573 33.2284 35.8573C32.1521 35.8573 31.2776 35.8467 31.2776 35.8326C31.2776 35.8185 32.1512 35.8079 33.2284 35.8079C34.3056 35.8079 35.1784 35.8194 35.1784 35.8326Z" fill="#263238"/>
<path d="M8.06268 12.4376L8.15877 11.2986C6.93343 10.4841 6.60021 8.83033 7.41475 7.605C8.22929 6.37966 9.88305 6.04644 11.1084 6.86098C12.3337 7.67552 12.6669 9.32928 11.8524 10.5546C11.238 11.4785 10.1167 11.9254 9.03501 11.6759L8.06268 12.4376Z" fill="white"/>
<path d="M8.06256 12.4376L9.04194 11.683L9.05164 11.675L9.04018 11.6698L9.03401 11.6847C9.24205 11.7332 9.45538 11.757 9.66871 11.7553C9.92259 11.7517 10.1756 11.7129 10.4189 11.6389C10.5538 11.5983 10.6851 11.5455 10.8103 11.482C10.8738 11.4476 10.9408 11.415 11.0051 11.3788L11.1955 11.2537C11.7465 10.8526 12.1247 10.2575 12.2534 9.58845C12.3301 9.21644 12.3248 8.83297 12.2393 8.46273C12.1432 8.07574 11.9625 7.71431 11.7103 7.40489C11.4494 7.07872 11.1153 6.82043 10.7345 6.64941L10.5855 6.58682C10.5361 6.56479 10.4833 6.55244 10.433 6.53569C10.3828 6.51895 10.3316 6.50043 10.2796 6.49074L10.1236 6.45724C10.0716 6.4449 10.0196 6.43696 9.96667 6.43344L9.80976 6.41492H9.65285C9.60083 6.4114 9.54882 6.4114 9.49681 6.41492C9.09043 6.43784 8.69462 6.55156 8.33759 6.74814C7.99997 6.93239 7.70642 7.18979 7.47898 7.50009C7.07171 8.05899 6.89452 8.75364 6.98268 9.43947C7.02587 9.72861 7.11226 10.0098 7.24008 10.2734C7.35292 10.5008 7.49837 10.7106 7.67115 10.8966C7.81484 11.0509 7.97705 11.1884 8.15335 11.3048V11.2977C8.09694 12.0259 8.0652 12.382 8.0652 12.4376C8.07049 12.382 8.10311 12.0268 8.16922 11.2995V11.2951C7.99468 11.1779 7.83512 11.0412 7.69231 10.887C7.52218 10.7009 7.37848 10.492 7.26741 10.2655C7.14223 10.0045 7.05672 9.72509 7.01529 9.43859C6.9289 8.75893 7.10609 8.07309 7.50983 7.51949C7.73551 7.21271 8.02553 6.95971 8.35963 6.77723C8.71225 6.5833 9.10365 6.47134 9.50563 6.4493C9.55676 6.44578 9.60877 6.44578 9.6599 6.4493H9.81505L9.9702 6.46782C10.0222 6.47222 10.0733 6.48016 10.1245 6.49162L10.2787 6.52423C10.3307 6.53393 10.3792 6.55421 10.4304 6.56831C10.4815 6.58242 10.5326 6.5974 10.5811 6.61944L10.7274 6.68115C11.1039 6.84952 11.4344 7.10517 11.6918 7.42693C11.9395 7.7337 12.1167 8.0916 12.2102 8.47507C12.2974 8.83826 12.3054 9.21644 12.234 9.58316C12.1053 10.2461 11.7289 10.8358 11.1814 11.2316L10.9937 11.3559C10.9293 11.393 10.8632 11.4247 10.8006 11.4591C10.6763 11.5225 10.5467 11.5745 10.4127 11.616C10.1721 11.6909 9.92171 11.7306 9.66959 11.7341C9.45714 11.7368 9.24558 11.7147 9.03842 11.668L9.03313 11.683V11.6689C8.41517 12.159 8.1084 12.4014 8.06256 12.4376Z" fill="#263238"/>
<path d="M9.25627 7.7293L9.33825 9.27728C9.3453 9.40334 9.4458 9.50471 9.57186 9.51353C9.70409 9.52234 9.82045 9.42538 9.83632 9.29403L10.0241 7.74076C10.0364 7.63233 9.95885 7.53448 9.85131 7.52214C9.84337 7.52126 9.83544 7.52038 9.8275 7.52038H9.45021C9.34178 7.52126 9.25539 7.60941 9.25539 7.71696C9.25539 7.72137 9.25539 7.72578 9.25627 7.7293Z" fill="#FDB812"/>
<path d="M9.97644 10.2919C9.91032 10.4894 9.69699 10.5969 9.49953 10.5308C9.30207 10.4647 9.19452 10.2514 9.26063 10.0539C9.32675 9.85646 9.54008 9.74891 9.73754 9.81503C9.93501 9.88114 10.0417 10.0945 9.97644 10.2919Z" fill="#FDB812"/>
</g>
<defs>
<clipPath id="clip0_1_9112">
<rect width="38.0623" height="38.0761" fill="white" transform="scale(1.02426)"/>
</clipPath>
</defs>
</svg>
