<svg width="16" height="14" viewBox="0 0 16 14" fill="none" xmlns="http://www.w3.org/2000/svg">
<path d="M1.76284 7.77913L1.76182 7.77819C0.893966 6.97428 0.4 5.84082 0.4 4.65164V4.47164C0.4 2.47723 1.83863 0.783903 3.79606 0.456148L3.79621 0.456123C5.09821 0.237605 6.41744 0.665666 7.33577 1.59309L7.33572 1.59313L7.34095 1.59823L7.72095 1.96823L8 2.23993L8.27905 1.96823L8.65905 1.59823L8.65909 1.59828L8.66423 1.59309C9.58256 0.665666 10.9018 0.237605 12.2038 0.456123L12.2039 0.456148C14.1608 0.783813 15.6 2.48668 15.6 4.47164V4.65164C15.6 5.84084 15.1059 6.97548 14.2561 7.78016C14.2557 7.78047 14.2554 7.78078 14.2551 7.78109L8.60971 13.0468C8.60934 13.0471 8.60897 13.0475 8.6086 13.0478C8.44222 13.1998 8.22901 13.2816 8.01 13.2816C7.77726 13.2816 7.568 13.1975 7.41649 13.0526L7.41651 13.0526L7.41284 13.0491L1.76284 7.77913Z" stroke="#FF0000" stroke-width="0.8"/>
</svg>
