<svg width="16" height="16" viewBox="0 0 16 16" fill="none" xmlns="http://www.w3.org/2000/svg">
<path fill-rule="evenodd" clip-rule="evenodd" d="M8 0C12.418 0 16 3.58203 16 8C16 12.418 12.418 16 8 16C3.58203 16 0 12.418 0 8C0 3.58203 3.58203 0 8 0ZM6.89063 3.97396H7.86849C8.04688 3.97396 8.19401 4.12109 8.19401 4.29948V8.06771H11.6328C11.8125 8.06771 11.9583 8.21484 11.9583 8.39323V9.37109C11.9583 9.55078 11.8112 9.69662 11.6328 9.69662H6.5638V4.29948C6.5638 4.11979 6.71094 3.97396 6.89063 3.97396ZM8 1.81641C11.4154 1.81641 14.1836 4.58464 14.1836 8C14.1836 11.4154 11.4154 14.1836 8 14.1836C4.58464 14.1836 1.81641 11.4154 1.81641 8C1.81641 4.58594 4.58464 1.81641 8 1.81641Z" fill="white"/>
</svg>
