<svg width="300" height="222" viewBox="0 0 300 222" fill="none" xmlns="http://www.w3.org/2000/svg">
<g clip-path="url(#clip0_8_4499)">
<path opacity="0.1" d="M3.229 106.07C7.96619 124.374 17.986 140.196 33.8203 147.866C66.7378 163.806 140.976 155.585 196.382 146.148C225.042 141.268 250.234 127.798 268.533 108.843L3.229 106.07Z" fill="#FDB812" fill-opacity="0.5"/>
<path opacity="0.1" d="M293.776 19.9124H263.376C261.933 19.9124 260.75 18.8435 260.75 17.5375C260.75 16.2314 261.933 15.1599 263.376 15.1599H268.634C267.189 15.1599 266.008 14.0911 266.008 12.7823C266.008 11.4735 267.189 10.4074 268.634 10.4074H264.881C263.436 10.4074 262.252 9.3386 262.252 8.02983C262.252 6.72107 263.436 5.65497 264.881 5.65497H280.748C277.228 4.17442 273.112 3.12196 268.37 2.56846C225.102 -2.45666 209.655 0.867059 204.206 4.28349C197.414 8.59491 189.87 11.5865 181.968 13.1013C155.274 18.0828 105.353 24.0759 60.1052 11.1927C37.6165 4.777 20.9014 15.6043 10.8843 33.7035H299.056C298.68 28.4439 297.554 23.5851 295.486 19.3343C294.997 19.7122 294.395 19.9157 293.776 19.9124Z" fill="#FDB812" fill-opacity="0.5"/>
<path opacity="0.1" d="M0.651798 67.865C-0.515874 78.5101 -0.118948 89.2688 1.82996 99.799L268.738 108.63C276.085 101.012 282.328 92.4011 287.283 83.0495L0.651798 67.865ZM106.217 90.6458H100.962C102.407 90.6458 103.591 91.7173 103.591 93.0234C103.591 94.3294 102.407 95.3982 100.962 95.3982H70.5614C69.1187 95.3982 67.9351 94.3294 67.9351 93.0234C67.9351 91.7173 69.1187 90.6458 70.5614 90.6458H75.8195C74.3741 90.6458 73.1932 89.5769 73.1932 88.2709C73.1932 86.9649 74.3741 85.8933 75.8195 85.8933H72.0641C70.6187 85.8933 69.4351 84.8245 69.4351 83.5184C69.4351 82.2124 70.6187 81.1409 72.0641 81.1409H102.464C103.91 81.1409 105.091 82.2097 105.091 83.5184C105.091 84.8272 103.91 85.8933 102.464 85.8933H106.217C107.663 85.8933 108.843 86.9621 108.843 88.2709C108.843 89.5797 107.663 90.6458 106.217 90.6458Z" fill="#FDB812" fill-opacity="0.5"/>
<path opacity="0.1" d="M299.067 33.8671L7.66891 40.2746C4.12352 48.5171 1.77265 57.8366 0.689941 67.4942H293.962C295.87 61.8439 297.287 56.0392 298.195 50.1449C299.07 44.4708 299.419 38.9822 299.067 33.8671ZM59.8543 54.8755H54.599C56.0444 54.8755 57.228 55.9471 57.228 57.2531C57.228 58.5592 56.0444 59.6307 54.599 59.6307H24.1986C22.7559 59.6307 21.5723 58.5592 21.5723 57.2531C21.5723 55.9471 22.7559 54.8755 24.1986 54.8755H29.4567C28.0113 54.8755 26.8304 53.8067 26.8304 52.5007C26.8304 51.1946 28.0113 50.1231 29.4567 50.1231H25.7013C24.2559 50.1231 23.0723 49.0542 23.0723 47.7482C23.0723 46.4422 24.2559 45.3706 25.7013 45.3706H56.1017C57.5471 45.3706 58.728 46.4394 58.728 47.7482C58.728 49.057 57.5471 50.1231 56.1017 50.1231H59.8543C61.2997 50.1231 62.4806 51.1946 62.4806 52.5007C62.4806 53.8067 61.2997 54.8755 59.8543 54.8755Z" fill="#FDB812" fill-opacity="0.5"/>
<path opacity="0.1" d="M148.655 212.969C215.98 212.969 270.557 207.949 270.557 201.757C270.557 195.565 215.98 190.546 148.655 190.546C81.331 190.546 26.7539 195.565 26.7539 201.757C26.7539 207.949 81.331 212.969 148.655 212.969Z" fill="#FDB812" fill-opacity="0.5"/>
<g opacity="0.1">
<path opacity="0.1" d="M230.376 77.479C230.433 77.3724 230.482 77.2622 230.524 77.1491C230.832 76.293 230.695 75.3523 230.698 74.4416C230.698 74.1379 230.726 73.8348 230.783 73.5364C230.531 74.0751 230.409 74.6652 230.426 75.2596C230.423 75.993 230.51 76.7619 230.376 77.479Z" fill="black"/>
<path opacity="0.1" d="M269.602 110.482C269.498 110.677 269.453 110.899 269.471 111.12C270.088 110.512 271.478 110.869 271.964 110.086C272.076 109.893 272.12 109.667 272.089 109.446C271.456 110.046 270.066 109.688 269.602 110.482Z" fill="black"/>
<path opacity="0.1" d="M265.596 115.144C265.544 115.417 265.492 115.709 265.427 115.992C267.096 116.513 269.024 115.174 269.297 113.484C268.634 114.784 266.998 115.654 265.596 115.144Z" fill="black"/>
</g>
<path d="M220.065 110.04C220.065 110.04 216.882 113.266 217.109 114.812C217.335 116.358 220.381 121.214 224.745 118.604C224.745 118.604 228.792 110.994 220.065 110.04Z" fill="#575A89"/>
<path opacity="0.1" d="M233.096 206.663C232.302 206.693 227.791 206.663 227.791 206.663C227.725 206.594 227.663 206.521 227.606 206.444C228.76 206.052 231.252 205.463 233.096 206.663Z" fill="black"/>
<path opacity="0.1" d="M245.998 206.663C245.205 206.693 240.694 206.663 240.694 206.663C240.628 206.594 240.566 206.521 240.508 206.444C241.656 206.052 244.149 205.463 245.998 206.663Z" fill="black"/>
<path opacity="0.1" d="M229.471 122.953C229.452 123.049 229.122 124.499 228.621 126.738C228.817 124.826 229.09 123.455 229.471 122.953Z" fill="black"/>
<path d="M220.338 114.22C220.338 114.22 221.137 110.463 220.065 109.268C218.993 108.074 219.337 101.814 220.973 101.95C222.61 102.087 225.064 107.038 224.655 108.085C224.246 109.132 222.7 114.493 222.7 114.493L220.338 114.22Z" fill="#FBBEBE"/>
<path d="M221.546 117.2C222.901 117.2 224 116.455 224 115.537C224 114.618 222.901 113.874 221.546 113.874C220.19 113.874 219.091 114.618 219.091 115.537C219.091 116.455 220.19 117.2 221.546 117.2Z" fill="#575A89"/>
<path d="M141.54 208.119C188.006 208.119 225.675 170.459 225.675 124.003C225.675 77.5472 188.006 39.8874 141.54 39.8874C95.0737 39.8874 57.4053 77.5472 57.4053 124.003C57.4053 170.459 95.0737 208.119 141.54 208.119Z" fill="#FDB812" fill-opacity="0.5"/>
<path d="M185.686 166.273C185.686 179.552 164.806 167.408 142.421 167.408C120.036 167.408 97.3945 179.05 97.3945 165.772C97.3945 158.2 104.611 147.67 114.963 140.022C122.763 134.258 132.341 130.13 141.963 130.13C151.857 130.13 161.55 134.599 169.281 140.733C179.039 148.469 185.686 158.863 185.686 166.273Z" fill="#444053"/>
<path d="M169.279 140.728C157.38 138.937 135.859 136.753 114.963 140.016C122.763 134.252 132.341 130.124 141.963 130.124C151.855 130.124 161.547 134.593 169.279 140.728Z" fill="#F6F8FB"/>
<path opacity="0.05" d="M97.3944 64.6258C97.3944 64.6258 72.0503 80.8246 72.2576 106.163C72.4649 131.501 97.3944 64.6258 97.3944 64.6258Z" fill="black"/>
<path d="M225.642 18.8762C225.642 18.8762 202.679 17.4939 205.387 33.5808C205.387 33.5808 204.842 36.4219 207.427 37.7143C207.427 37.7143 207.468 36.5228 209.781 36.9263C210.605 37.0642 211.442 37.1045 212.276 37.0463C213.402 36.9697 214.473 36.5274 215.325 35.7866C215.325 35.7866 221.78 33.1227 224.292 22.5735C224.292 22.5735 226.149 20.2723 226.076 19.6833L222.2 21.3356C222.2 21.3356 223.523 24.1304 222.473 26.4535C222.473 26.4535 222.348 21.4392 221.603 21.5456C221.453 21.5701 219.59 22.5135 219.59 22.5135C219.59 22.5135 221.868 27.3832 220.136 30.9196C220.136 30.9196 220.788 24.9211 218.865 22.8653L216.138 24.4576C216.138 24.4576 218.8 29.4854 216.994 33.589C216.994 33.589 217.458 27.296 215.565 24.8448L213.091 26.7725C213.091 26.7725 215.592 31.7294 214.068 35.1322C214.068 35.1322 213.869 27.8059 212.557 27.2524C212.557 27.2524 210.394 29.161 210.064 29.9435C210.064 29.9435 211.777 33.5399 210.716 35.4376C210.716 35.4376 210.064 30.557 209.53 30.5297C209.53 30.5297 207.375 33.7635 207.149 35.9829C207.149 35.9829 207.244 32.6837 209.006 30.2216C209.006 30.2216 206.922 30.5788 205.709 31.9312C205.709 31.9312 206.044 29.6436 209.527 29.4445C209.527 29.4445 211.308 26.9906 211.785 26.8434C211.785 26.8434 208.308 26.5516 206.2 27.4868C206.2 27.4868 208.054 25.3301 212.421 26.309L214.875 24.3185C214.875 24.3185 210.299 23.6914 208.357 24.384C208.357 24.384 210.591 22.4754 215.532 23.8659L218.191 22.2763C218.191 22.2763 214.289 21.4365 211.962 21.731C211.962 21.731 214.417 20.4086 218.969 21.8428L220.878 20.9894C220.878 20.9894 218.017 20.4277 217.18 20.3404C216.342 20.2532 216.299 20.0187 216.299 20.0187C218.115 19.7234 219.979 19.9396 221.679 20.6431C221.679 20.6431 225.71 19.1298 225.642 18.8762Z" fill="#FDB812" fill-opacity="0.5"/>
<path d="M202.09 11.7244C202.09 11.7244 191.726 11.0973 192.937 18.3664C192.937 18.3664 192.695 19.6506 193.859 20.2341C193.859 20.2341 193.875 19.6888 194.923 19.8796C195.295 19.9409 195.673 19.9592 196.049 19.9342C196.558 19.8978 197.042 19.6979 197.429 19.3643C197.429 19.3643 200.344 18.1591 201.479 13.3931C201.479 13.3931 202.319 12.3542 202.297 12.087L200.546 12.8341C200.546 12.8341 201.146 14.0965 200.674 15.1463C200.674 15.1463 200.617 12.8805 200.282 12.935C200.214 12.935 199.371 13.3712 199.371 13.3712C199.371 13.3712 200.402 15.5716 199.624 17.1694C199.624 17.1694 199.919 14.4592 199.052 13.5294L197.819 14.2492C197.819 14.2492 199.022 16.5232 198.206 18.3773C198.206 18.3773 198.414 15.5334 197.56 14.4264L196.442 15.2962C196.442 15.2962 197.571 17.5348 196.884 19.0726C196.884 19.0726 196.794 15.7625 196.199 15.5116C196.199 15.5116 195.223 16.3732 195.073 16.7277C195.073 16.7277 195.847 18.3636 195.367 19.2116C195.367 19.2116 195.073 17.0058 194.822 16.9976C194.822 16.9976 193.848 18.4563 193.747 19.4516C193.794 18.5254 194.083 17.6277 194.585 16.8477C194.023 16.9538 193.506 17.2221 193.095 17.6193C193.095 17.6193 193.245 16.5859 194.825 16.4959C194.825 16.4959 195.629 15.3889 195.844 15.3208C195.844 15.3208 194.274 15.1899 193.322 15.6125C193.322 15.6125 194.159 14.6364 196.134 15.0672L197.224 14.1701C197.224 14.1701 195.157 13.8975 194.279 14.1974C194.279 14.1974 195.288 13.3358 197.522 13.9656L198.722 13.2458C198.722 13.2458 196.96 12.8668 195.907 13.0031C195.907 13.0031 197.017 12.406 199.074 13.055L199.933 12.6678C199.933 12.6678 198.64 12.4142 198.264 12.376C197.887 12.3379 197.863 12.2315 197.863 12.2315C198.681 12.0954 199.522 12.1898 200.29 12.5042C200.29 12.5042 202.12 11.8389 202.09 11.7244Z" fill="#FDB812" fill-opacity="0.5"/>
<path opacity="0.1" d="M292.655 199.044C296.712 199.044 300 198.489 300 197.804C300 197.119 296.712 196.563 292.655 196.563C288.599 196.563 285.311 197.119 285.311 197.804C285.311 198.489 288.599 199.044 292.655 199.044Z" fill="#FDB812" fill-opacity="0.5"/>
<path opacity="0.1" d="M12.7551 219.682C16.8113 219.682 20.0995 219.127 20.0995 218.441C20.0995 217.756 16.8113 217.201 12.7551 217.201C8.69885 217.201 5.41064 217.756 5.41064 218.441C5.41064 219.127 8.69885 219.682 12.7551 219.682Z" fill="#FDB812" fill-opacity="0.5"/>
<path opacity="0.1" d="M55.3898 221.239C59.446 221.239 62.7342 220.684 62.7342 219.998C62.7342 219.313 59.446 218.758 55.3898 218.758C51.3336 218.758 48.0454 219.313 48.0454 219.998C48.0454 220.684 51.3336 221.239 55.3898 221.239Z" fill="#FDB812" fill-opacity="0.5"/>
<path d="M276.581 212.953C282.638 212.953 287.548 212.123 287.548 211.099C287.548 210.075 282.638 209.245 276.581 209.245C270.525 209.245 265.615 210.075 265.615 211.099C265.615 212.123 270.525 212.953 276.581 212.953Z" fill="#FDB812" fill-opacity="0.5"/>
<path d="M281.114 208.069C281.615 207.661 281.98 207.111 282.161 206.491C282.295 205.866 282.028 205.114 281.43 204.885C280.76 204.628 280.042 205.095 279.5 205.564C278.957 206.033 278.332 206.567 277.621 206.469C277.987 206.138 278.26 205.717 278.415 205.248C278.57 204.779 278.601 204.278 278.504 203.794C278.473 203.594 278.388 203.405 278.259 203.249C277.885 202.851 277.211 203.02 276.764 203.333C275.346 204.331 274.951 206.256 274.942 207.99C274.801 207.366 274.921 206.714 274.918 206.082C274.915 205.449 274.738 204.718 274.198 204.383C273.863 204.204 273.487 204.116 273.107 204.127C272.469 204.102 271.76 204.165 271.323 204.631C270.778 205.212 270.922 206.183 271.394 206.812C271.866 207.442 272.581 207.851 273.238 208.29C273.767 208.605 274.218 209.034 274.558 209.547C274.598 209.619 274.63 209.695 274.656 209.774H278.651C279.545 209.319 280.374 208.746 281.114 208.069Z" fill="#FDB812" fill-opacity="0.5"/>
<path d="M16.1834 185.207C16.1834 185.207 17.6806 187.165 15.4907 190.115C13.3007 193.065 11.4953 195.568 12.218 197.411C12.218 197.411 15.5207 191.92 18.2179 191.841C20.9151 191.762 19.1397 188.509 16.1834 185.207Z" fill="#FDB812" fill-opacity="0.5"/>
<path opacity="0.1" d="M16.1836 185.207C16.3136 185.396 16.4164 185.603 16.489 185.82C19.1126 188.901 20.5089 191.778 17.989 191.849C15.6381 191.917 12.8072 196.116 12.1445 197.177C12.1677 197.259 12.195 197.34 12.2263 197.419C12.2263 197.419 15.529 191.928 18.2262 191.849C20.9235 191.77 19.1399 188.509 16.1836 185.207Z" fill="black"/>
<path d="M18.9679 187.702C18.9679 188.392 18.8888 188.951 18.7934 188.951C18.6979 188.951 18.6216 188.405 18.6216 187.702C18.6216 186.998 18.717 187.336 18.8152 187.336C18.9133 187.336 18.9679 187.012 18.9679 187.702Z" fill="#FFD037"/>
<path d="M19.9111 188.525C19.3058 188.855 18.7796 189.054 18.7332 188.97C18.6869 188.885 19.1422 188.552 19.7475 188.223C20.3528 187.893 20.1129 188.133 20.1592 188.223C20.2056 188.313 20.5273 188.195 19.9111 188.525Z" fill="#FFD037"/>
<path d="M8.26896 185.207C8.26896 185.207 6.77172 187.165 8.95895 190.115C11.1462 193.065 12.9543 195.568 12.2316 197.411C12.2316 197.411 8.92622 191.92 6.23173 191.841C3.53723 191.762 5.30993 188.509 8.26896 185.207Z" fill="#FDB812" fill-opacity="0.5"/>
<path opacity="0.1" d="M8.26901 185.207C8.13779 185.395 8.03489 185.602 7.96356 185.82C5.33997 188.901 3.94091 191.778 6.46359 191.849C8.81173 191.917 11.6453 196.116 12.3053 197.177C12.2831 197.259 12.2567 197.34 12.2262 197.419C12.2262 197.419 8.92082 191.928 6.22632 191.849C3.53182 191.77 5.30997 188.509 8.26901 185.207Z" fill="black"/>
<path d="M5.48438 187.702C5.48438 188.392 5.56072 188.951 5.65615 188.951C5.75158 188.951 5.82793 188.405 5.82793 187.702C5.82793 186.998 5.7325 187.336 5.63707 187.336C5.54163 187.336 5.48438 187.012 5.48438 187.702Z" fill="#FFD037"/>
<path d="M4.5269 188.525C5.13221 188.855 5.66117 189.054 5.70752 188.97C5.75387 188.885 5.29853 188.552 4.69323 188.223C4.08792 187.893 4.32514 188.133 4.28151 188.223C4.23789 188.313 3.9216 188.195 4.5269 188.525Z" fill="#FFD037"/>
<path d="M5.96191 197.163C5.96191 197.163 10.1509 197.035 11.4164 196.135C12.6818 195.235 17.8608 194.164 18.1744 195.59C18.488 197.016 24.4689 202.761 19.7398 202.799C15.0108 202.837 8.75186 202.06 7.49189 201.294C6.23191 200.528 5.96191 197.163 5.96191 197.163Z" fill="#A8A8A8"/>
<path opacity="0.2" d="M19.8189 202.311C15.0899 202.349 8.83095 201.572 7.57098 200.806C6.61099 200.222 6.22918 198.126 6.101 197.158H5.96191C5.96191 197.158 6.23464 200.536 7.48643 201.302C8.73823 202.068 15.0054 202.845 19.7344 202.807C21.098 202.807 21.5698 202.308 21.5453 201.591C21.3544 202.03 20.8362 202.303 19.8189 202.311Z" fill="black"/>
<path d="M111.628 112.974C113.229 112.884 120.764 112.317 125.55 109.587C126.319 109.135 127.187 108.88 128.078 108.843C129.6 108.799 131.351 109.435 130.23 112.99C128.414 118.806 117.868 125.35 111.322 124.987C105.028 124.638 97.5609 122.103 92.6301 113.187C92.1576 112.329 91.9249 111.36 91.9564 110.381C92.0137 108.581 92.6682 106.326 96.0473 108.84C100.613 112.235 109.274 112.878 111.012 112.974C111.217 112.985 111.423 112.985 111.628 112.974Z" fill="#444053"/>
<path d="M172.172 112.974C173.773 112.884 181.309 112.317 186.095 109.587C186.863 109.135 187.732 108.88 188.623 108.843C190.145 108.799 191.896 109.435 190.775 112.99C188.958 118.806 178.412 125.35 171.867 124.987C165.572 124.638 158.105 122.103 153.175 113.187C152.702 112.329 152.469 111.36 152.501 110.381C152.558 108.581 153.213 106.326 156.592 108.84C161.157 112.235 169.819 112.878 171.556 112.974C171.761 112.985 171.967 112.985 172.172 112.974Z" fill="#444053"/>
</g>
<defs>
<clipPath id="clip0_8_4499">
<rect width="300" height="221.239" fill="white"/>
</clipPath>
</defs>
</svg>
