<svg width="13" height="13" viewBox="0 0 13 13" fill="none" xmlns="http://www.w3.org/2000/svg">
<g clip-path="url(#clip0_14_6706)">
<path d="M12.6234 2.1995C13.1304 1.69785 13.1304 0.87463 12.6234 0.372982C12.1164 -0.128667 11.2974 -0.128667 10.7774 0.372982L6.50031 4.6177L2.22324 0.385845C1.71623 -0.115804 0.89722 -0.115804 0.377212 0.385845C-0.142796 0.887493 -0.129796 1.69785 0.377212 2.21236L4.66728 6.43135L0.390212 10.6761C-0.116796 11.1777 -0.116796 11.9881 0.390212 12.5026C0.89722 13.0171 1.71623 13.0042 2.23624 12.5026L6.50031 8.25786L10.7904 12.4897C11.2974 12.9914 12.1164 12.9914 12.6364 12.4897C13.1564 11.9881 13.1434 11.1777 12.6364 10.6632L8.34633 6.43135L12.6234 2.1995Z" fill="black"/>
</g>
<defs>
<clipPath id="clip0_14_6706">
<path d="M0 5.0782C0 2.27359 2.27359 0 5.0782 0H7.92199C10.7266 0 13.0002 2.27359 13.0002 5.0782V7.78458C13.0002 10.5892 10.7266 12.8628 7.922 12.8628H5.07821C2.27359 12.8628 0 10.5892 0 7.78457V5.0782Z" fill="white"/>
</clipPath>
</defs>
</svg>
